<svg width="64" height="64" viewBox="0 0 64 64" fill="none" xmlns="http://www.w3.org/2000/svg">
<path d="M0 32C0 14.3269 14.3269 0 32 0C49.6731 0 64 14.3269 64 32C64 49.6731 49.6731 64 32 64C14.3269 64 0 49.6731 0 32Z" fill="url(#paint0_linear_4157_11984)"/>
<path d="M20 32C20 28.8174 21.2643 25.7652 23.5147 23.5147C25.7652 21.2643 28.8174 20 32 20C35.3547 20.0126 38.5747 21.3216 40.9867 23.6533L44 26.6667" stroke="white" stroke-width="2.66667" stroke-linecap="round" stroke-linejoin="round"/>
<path d="M44.0007 20V26.6667H37.334" stroke="white" stroke-width="2.66667" stroke-linecap="round" stroke-linejoin="round"/>
<path d="M44 32C44 35.1826 42.7357 38.2348 40.4853 40.4853C38.2348 42.7357 35.1826 44 32 44C28.6453 43.9874 25.4253 42.6784 23.0133 40.3467L20 37.3333" stroke="white" stroke-width="2.66667" stroke-linecap="round" stroke-linejoin="round"/>
<path d="M26.6667 37.333H20V43.9997" stroke="white" stroke-width="2.66667" stroke-linecap="round" stroke-linejoin="round"/>
<defs>
<linearGradient id="paint0_linear_4157_11984" x1="32" y1="0" x2="32" y2="64" gradientUnits="userSpaceOnUse">
<stop stop-color="#01159A"/>
<stop offset="1" stop-color="#3E55F2"/>
</linearGradient>
</defs>
</svg>
