<svg width="80" height="80" viewBox="0 0 80 80" fill="none" xmlns="http://www.w3.org/2000/svg">
<path d="M0 30C0 13.4315 13.4315 0 30 0H50C66.5685 0 80 13.4315 80 30V50C80 66.5685 66.5685 80 50 80H30C13.4315 80 0 66.5685 0 50V30Z" fill="url(#paint0_linear_2025_16852)"/>
<path d="M41.1073 26.9065C40.7599 26.748 40.3825 26.666 40.0006 26.666C39.6188 26.666 39.2414 26.748 38.8939 26.9065L27.4673 32.1065C27.2307 32.2108 27.0295 32.3817 26.8883 32.5983C26.7471 32.8149 26.6719 33.0679 26.6719 33.3265C26.6719 33.5851 26.7471 33.8381 26.8883 34.0547C27.0295 34.2713 27.2307 34.4422 27.4673 34.5465L38.9073 39.7598C39.2547 39.9183 39.6321 40.0003 40.0139 40.0003C40.3958 40.0003 40.7732 39.9183 41.1206 39.7598L52.5606 34.5598C52.7972 34.4555 52.9984 34.2846 53.1396 34.068C53.2808 33.8514 53.356 33.5984 53.356 33.3398C53.356 33.0812 53.2808 32.8282 53.1396 32.6116C52.9984 32.395 52.7972 32.2242 52.5606 32.1198L41.1073 26.9065Z" stroke="white" stroke-width="2.66667" stroke-linecap="round" stroke-linejoin="round"/>
<path d="M26.668 40C26.6673 40.255 26.7399 40.5049 26.8769 40.7199C27.014 40.935 27.2099 41.1062 27.4413 41.2133L38.908 46.4267C39.2536 46.5832 39.6286 46.6641 40.008 46.6641C40.3874 46.6641 40.7624 46.5832 41.108 46.4267L52.548 41.2267C52.784 41.1206 52.984 40.9481 53.1237 40.7303C53.2634 40.5125 53.3367 40.2587 53.3346 40" stroke="white" stroke-width="2.66667" stroke-linecap="round" stroke-linejoin="round"/>
<path d="M26.668 46.667C26.6673 46.922 26.7399 47.1719 26.8769 47.3869C27.014 47.602 27.2099 47.7732 27.4413 47.8803L38.908 53.0937C39.2536 53.2502 39.6286 53.3311 40.008 53.3311C40.3874 53.3311 40.7624 53.2502 41.108 53.0937L52.548 47.8937C52.784 47.7876 52.984 47.6151 53.1237 47.3973C53.2634 47.1795 53.3367 46.9257 53.3346 46.667" stroke="white" stroke-width="2.66667" stroke-linecap="round" stroke-linejoin="round"/>
<defs>
<linearGradient id="paint0_linear_2025_16852" x1="0" y1="40" x2="80" y2="40" gradientUnits="userSpaceOnUse">
<stop stop-color="#01159A"/>
<stop offset="1" stop-color="#3E55F2"/>
</linearGradient>
</defs>
</svg>
