<svg width="56" height="56" viewBox="0 0 56 56" fill="none" xmlns="http://www.w3.org/2000/svg">
<path d="M0 16C0 7.16344 7.16344 0 16 0H40C48.8366 0 56 7.16344 56 16V40C56 48.8366 48.8366 56 40 56H16C7.16344 56 0 48.8366 0 40V16Z" fill="#F8F9FC"/>
<path d="M28 38C33.5228 38 38 33.5228 38 28C38 22.4772 33.5228 18 28 18C22.4772 18 18 22.4772 18 28C18 33.5228 22.4772 38 28 38Z" stroke="#3E55F2" stroke-width="2" stroke-linecap="round" stroke-linejoin="round"/>
<path d="M28 18C25.4322 20.6962 24 24.2767 24 28C24 31.7233 25.4322 35.3038 28 38C30.5678 35.3038 32 31.7233 32 28C32 24.2767 30.5678 20.6962 28 18Z" stroke="#3E55F2" stroke-width="2" stroke-linecap="round" stroke-linejoin="round"/>
<path d="M18 28H38" stroke="#3E55F2" stroke-width="2" stroke-linecap="round" stroke-linejoin="round"/>
</svg>
