<svg width="67" height="67" viewBox="0 0 67 67" fill="none" xmlns="http://www.w3.org/2000/svg">
<rect width="67" height="67" rx="7.12766" fill="#F3F4FF"/>
<path d="M25.1249 48.5C24.5727 48.5 24.1249 48.0523 24.1249 47.5V45.2812C24.1249 44.729 23.6772 44.2812 23.1249 44.2812H21.3749C20.8227 44.2812 20.3749 43.8335 20.3749 43.2812V23.7188C20.3749 23.1665 20.8227 22.7187 21.3749 22.7187H23.1249C23.6772 22.7187 24.1249 22.271 24.1249 21.7187V19.5C24.1249 18.9477 24.5727 18.5 25.1249 18.5H25.9374C26.4897 18.5 26.9374 18.9477 26.9374 19.5V21.7187C26.9374 22.271 27.3852 22.7187 27.9374 22.7187H29.6874C30.2397 22.7187 30.6874 23.1665 30.6874 23.7187V43.2812C30.6874 43.8335 30.2397 44.2812 29.6874 44.2812H27.9374C27.3852 44.2812 26.9374 44.729 26.9374 45.2812V47.5C26.9374 48.0523 26.4897 48.5 25.9374 48.5H25.1249ZM41.0624 48.5C40.5102 48.5 40.0624 48.0523 40.0624 47.5V39.6562C40.0624 39.104 39.6147 38.6562 39.0624 38.6562H37.3124C36.7602 38.6562 36.3124 38.2085 36.3124 37.6562V27.4687C36.3124 26.9165 36.7602 26.4687 37.3124 26.4687H39.0624C39.6147 26.4687 40.0624 26.021 40.0624 25.4687V19.5C40.0624 18.9477 40.5102 18.5 41.0624 18.5H41.8749C42.4272 18.5 42.8749 18.9477 42.8749 19.5V25.4687C42.8749 26.021 43.3227 26.4687 43.8749 26.4687H45.6249C46.1772 26.4687 46.6249 26.9165 46.6249 27.4687V37.6562C46.6249 38.2085 46.1772 38.6562 45.6249 38.6562H43.8749C43.3227 38.6562 42.8749 39.104 42.8749 39.6562V47.5C42.8749 48.0523 42.4272 48.5 41.8749 48.5H41.0624Z" fill="url(#paint0_linear_2023_1178)"/>
<defs>
<linearGradient id="paint0_linear_2023_1178" x1="20.3749" y1="33.5" x2="46.6249" y2="33.5" gradientUnits="userSpaceOnUse">
<stop stop-color="#01159A"/>
<stop offset="1" stop-color="#3E55F2"/>
</linearGradient>
</defs>
</svg>
