<svg width="45" height="40" viewBox="0 0 45 40" fill="none" xmlns="http://www.w3.org/2000/svg">
<path fill-rule="evenodd" clip-rule="evenodd" d="M31.5 0C30.6716 0 30 0.67155 30 1.5V32.5C30 33.6046 30.8954 34.5 32 34.5H38.5C39.6046 34.5 40.5 33.6046 40.5 32.5V1.5C40.5 0.67155 39.8284 0 39 0H31.5ZM19 6.5C18.1716 6.5 17.5 7.17155 17.5 8V32.5C17.5 33.6046 18.3954 34.5 19.5 34.5H26C27.1046 34.5 28 33.6046 28 32.5V8C28 7.17155 27.3284 6.5 26.5 6.5H19ZM1.5 36C0.671575 36 0 36.6716 0 37.5V38.5C0 39.3284 0.671575 40 1.5 40H43.5C44.3284 40 45 39.3284 45 38.5V37.5C45 36.6716 44.3284 36 43.5 36H1.5ZM5 14C5 13.1715 5.67155 12.5 6.5 12.5H14C14.8285 12.5 15.5 13.1715 15.5 14V32.5C15.5 33.6046 14.6046 34.5 13.5 34.5H7C5.89543 34.5 5 33.6046 5 32.5V14Z" fill="url(#paint0_linear_2025_7671)"/>
<defs>
<linearGradient id="paint0_linear_2025_7671" x1="0" y1="20" x2="45" y2="20" gradientUnits="userSpaceOnUse">
<stop stop-color="#01159A"/>
<stop offset="1" stop-color="#3E55F2"/>
</linearGradient>
</defs>
</svg>
