<svg width="86" height="43" viewBox="0 0 86 43" fill="none" xmlns="http://www.w3.org/2000/svg">
<path d="M1 43C0.447716 43 0 42.5523 0 42V38.2521C0 35.9486 1.23924 34.0739 3.71771 32.628C6.19618 31.1816 9.44746 30.4583 13.4715 30.4583C14.1978 30.4583 14.8962 30.4733 15.5669 30.5031C15.7903 30.5131 16.0129 30.5268 16.2348 30.5444C16.8991 30.597 17.2786 31.301 17.0493 31.9267C16.8168 32.5615 16.6281 33.2013 16.4833 33.8464C16.2444 34.91 16.125 36.0203 16.125 37.1771V42C16.125 42.5523 15.6773 43 15.125 43H1ZM22.5 43C21.9477 43 21.5 42.5523 21.5 42V37.1771C21.5 35.266 22.0226 33.5191 23.0677 31.9365C24.1128 30.3538 25.591 28.9653 27.5021 27.7708C29.4132 26.5764 31.6976 25.6806 34.3552 25.0833C37.0128 24.4861 39.8944 24.1875 43 24.1875C46.1653 24.1875 49.0767 24.4861 51.7344 25.0833C54.392 25.6806 56.6764 26.5764 58.5875 27.7708C60.4986 28.9653 61.9618 30.3538 62.9771 31.9365C63.9924 33.5191 64.5 35.266 64.5 37.1771V42C64.5 42.5523 64.0523 43 63.5 43H22.5ZM70.875 43C70.3227 43 69.875 42.5523 69.875 42V37.1771C69.875 35.991 69.7705 34.8733 69.5615 33.824C69.4349 33.1888 69.2592 32.5569 69.0342 31.9283C68.8103 31.303 69.1847 30.6001 69.8466 30.5457C70.0696 30.5273 70.2932 30.5132 70.5173 30.5031C71.1844 30.4733 71.8661 30.4583 72.5625 30.4583C76.5938 30.4583 79.8411 31.1681 82.3047 32.5877C84.7682 34.0073 86 35.8954 86 38.2521V42C86 42.5523 85.5523 43 85 43H70.875ZM13.399 27.7708C11.6927 27.7708 10.2274 27.1569 9.00312 25.929C7.77882 24.7005 7.16667 23.2242 7.16667 21.5C7.16667 19.7681 7.78061 18.2899 9.0085 17.0656C10.237 15.8413 11.7133 15.2292 13.4375 15.2292C15.1694 15.2292 16.6476 15.8413 17.8719 17.0656C19.0962 18.2899 19.7083 19.7809 19.7083 21.5385C19.7083 23.2448 19.0962 24.7101 17.8719 25.9344C16.6476 27.1587 15.1566 27.7708 13.399 27.7708ZM72.524 27.7708C70.8177 27.7708 69.3524 27.1569 68.1281 25.929C66.9038 24.7005 66.2917 23.2242 66.2917 21.5C66.2917 19.7681 66.9056 18.2899 68.1335 17.0656C69.362 15.8413 70.8383 15.2292 72.5625 15.2292C74.2944 15.2292 75.7726 15.8413 76.9969 17.0656C78.2212 18.2899 78.8333 19.7809 78.8333 21.5385C78.8333 23.2448 78.2212 24.7101 76.9969 25.9344C75.7726 27.1587 74.2816 27.7708 72.524 27.7708ZM43 21.5C40.0139 21.5 37.4757 20.4549 35.3854 18.3646C33.2951 16.2743 32.25 13.7361 32.25 10.75C32.25 7.70417 33.2951 5.15104 35.3854 3.09062C37.4757 1.03021 40.0139 0 43 0C46.0458 0 48.599 1.03021 50.6594 3.09062C52.7198 5.15104 53.75 7.70417 53.75 10.75C53.75 13.7361 52.7198 16.2743 50.6594 18.3646C48.599 20.4549 46.0458 21.5 43 21.5Z" fill="url(#paint0_linear_4147_22937)"/>
<defs>
<linearGradient id="paint0_linear_4147_22937" x1="0" y1="21.5" x2="86" y2="21.5" gradientUnits="userSpaceOnUse">
<stop stop-color="#01159A"/>
<stop offset="1" stop-color="#3E55F2"/>
</linearGradient>
</defs>
</svg>
