<svg width="86" height="86" viewBox="0 0 86 86" fill="none" xmlns="http://www.w3.org/2000/svg">
<path d="M13.4375 50.1667L20.7833 43L13.4375 35.6542L6.27083 43L13.4375 50.1667ZM64.7687 49.2708L72.5625 36.7292L80.4458 49.2708H64.7687ZM43 43C40.0139 43 37.4757 41.9549 35.3854 39.8646C33.2951 37.7743 32.25 35.2361 32.25 32.25C32.25 29.2042 33.2951 26.651 35.3854 24.5906C37.4757 22.5302 40.0139 21.5 43 21.5C46.0458 21.5 48.599 22.5302 50.6594 24.5906C52.7198 26.651 53.75 29.2042 53.75 32.25C53.75 35.2361 52.7198 37.7743 50.6594 39.8646C48.599 41.9549 46.0458 43 43 43ZM0 64.5V59.7521C0 57.3954 1.25417 55.5073 3.7625 54.0877C6.27083 52.6681 9.50778 51.9583 13.4733 51.9583C14.1996 51.9583 14.8977 51.9733 15.5678 52.0031C16.2379 52.033 16.9014 52.0996 17.5583 52.2029C17.0806 53.2343 16.7222 54.2747 16.4833 55.324C16.2444 56.3733 16.125 57.491 16.125 58.6771V64.5H0ZM21.5 64.5V58.6771C21.5 54.7951 23.4858 51.6597 27.4573 49.2708C31.4288 46.8819 36.6097 45.6875 43 45.6875C49.45 45.6875 54.6458 46.8819 58.5875 49.2708C62.5292 51.6597 64.5 54.7951 64.5 58.6771V64.5H21.5ZM72.5625 51.9583C76.5938 51.9583 79.8411 52.6681 82.3047 54.0877C84.7682 55.5073 86 57.3954 86 59.7521V64.5H69.875V58.6771C69.875 57.491 69.7705 56.3733 69.5615 55.324C69.3524 54.2747 69.009 53.2343 68.5312 52.2029C69.1882 52.0996 69.8502 52.033 70.5173 52.0031C71.1844 51.9733 71.8661 51.9583 72.5625 51.9583Z" fill="#454545"/>
</svg>
