<svg width="57" height="57" viewBox="0 0 57 57" fill="none" xmlns="http://www.w3.org/2000/svg">
<path d="M29.4533 54.3084C28.901 54.3084 28.4533 53.8606 28.4533 53.3084V51.7665C28.4533 51.2142 28.901 50.7665 29.4533 50.7665H45.0446C45.5969 50.7665 46.0446 50.3188 46.0446 49.7665V48.5788C46.0446 48.0265 45.5969 47.5788 45.0446 47.5788H38.308C37.7557 47.5788 37.308 47.1311 37.308 46.5788V31.1056C37.308 30.5533 37.7557 30.1056 38.308 30.1056H45.0446C45.5969 30.1056 46.0446 29.6578 46.0446 29.1056V26.0914C46.0446 21.2115 44.3327 17.0105 40.9089 13.4883C37.4851 9.96606 33.3332 8.20496 28.4533 8.20496C23.5734 8.20496 19.3822 9.96606 15.8796 13.4883C12.3771 17.0105 10.6259 21.2115 10.6259 26.0914V29.1056C10.6259 29.6578 11.0736 30.1056 11.6259 30.1056H18.3625C18.9148 30.1056 19.3625 30.5533 19.3625 31.1056V46.5788C19.3625 47.1311 18.9148 47.5788 18.3625 47.5788H10.6259C9.68136 47.5788 8.85492 47.2246 8.14655 46.5162C7.43817 45.8079 7.08398 44.9814 7.08398 44.0369V26.0914C7.08398 23.1505 7.64478 20.3784 8.76637 17.7751C9.88797 15.1718 11.4129 12.8966 13.3413 10.9493C15.2697 9.00169 17.5365 7.46707 20.1417 6.34548C22.7473 5.22388 25.5218 4.66309 28.4651 4.66309C31.4088 4.66309 34.1695 5.22388 36.7472 6.34548C39.3249 7.46707 41.5592 9.00169 43.4502 10.9493C45.3412 12.8966 46.8366 15.1718 47.9366 17.7751C49.0365 20.3784 49.5865 23.1505 49.5865 26.0914V50.7665C49.5865 51.711 49.2323 52.5374 48.5239 53.2458C47.8155 53.9542 46.9891 54.3084 46.0446 54.3084H29.4533Z" fill="url(#paint0_linear_3852_5514)"/>
<defs>
<linearGradient id="paint0_linear_3852_5514" x1="7.08398" y1="29.4857" x2="49.5865" y2="29.4857" gradientUnits="userSpaceOnUse">
<stop stop-color="#01159A"/>
<stop offset="1" stop-color="#3E55F2"/>
</linearGradient>
</defs>
</svg>
