<svg width="68" height="68" viewBox="0 0 68 68" fill="none" xmlns="http://www.w3.org/2000/svg">
<path d="M9.5 51.0003C8.94772 51.0003 8.5 50.5526 8.5 50.0003V47.7503C8.5 47.198 8.94772 46.7503 9.5 46.7503H11.75C12.3023 46.7503 12.75 47.198 12.75 47.7503V50.0003C12.75 50.5526 12.3023 51.0003 11.75 51.0003H9.5ZM9.5 39.667C8.94772 39.667 8.5 39.2193 8.5 38.667V36.417C8.5 35.8647 8.94772 35.417 9.5 35.417H11.75C12.3023 35.417 12.75 35.8647 12.75 36.417V38.667C12.75 39.2193 12.3023 39.667 11.75 39.667H9.5ZM9.5 28.3337C8.94772 28.3337 8.5 27.8859 8.5 27.3337V25.0837C8.5 24.5314 8.94772 24.0837 9.5 24.0837H11.75C12.3023 24.0837 12.75 24.5314 12.75 25.0837V27.3337C12.75 27.8859 12.3023 28.3337 11.75 28.3337H9.5ZM20.8333 62.3337C20.281 62.3337 19.8333 61.8859 19.8333 61.3337V59.0837C19.8333 58.5314 20.281 58.0837 20.8333 58.0837H23.0833C23.6356 58.0837 24.0833 58.5314 24.0833 59.0837V61.3337C24.0833 61.8859 23.6356 62.3337 23.0833 62.3337H20.8333ZM24.0833 51.0003C22.95 51.0003 21.9583 50.5753 21.1083 49.7253C20.2583 48.8753 19.8333 47.8837 19.8333 46.7503V9.91699C19.8333 8.78366 20.2583 7.79199 21.1083 6.94199C21.9583 6.09199 22.95 5.66699 24.0833 5.66699H52.4167C53.55 5.66699 54.5417 6.09199 55.3917 6.94199C56.2417 7.79199 56.6667 8.78366 56.6667 9.91699V46.7503C56.6667 47.8837 56.2417 48.8753 55.3917 49.7253C54.5417 50.5753 53.55 51.0003 52.4167 51.0003H24.0833ZM32.1667 62.3337C31.6144 62.3337 31.1667 61.8859 31.1667 61.3337V59.0837C31.1667 58.5314 31.6144 58.0837 32.1667 58.0837H34.4167C34.969 58.0837 35.4167 58.5314 35.4167 59.0837V61.3337C35.4167 61.8859 34.969 62.3337 34.4167 62.3337H32.1667ZM12.75 61.3337C12.75 61.8859 12.2963 62.3484 11.758 62.2246C11.0047 62.0513 10.335 61.6714 9.74879 61.0849C9.16227 60.4987 8.78235 59.8289 8.60904 59.0756C8.48521 58.5374 8.94772 58.0837 9.5 58.0837H11.75C12.3023 58.0837 12.75 58.5314 12.75 59.0837V61.3337ZM43.4921 62.2254C42.9537 62.3484 42.5 61.8859 42.5 61.3337V59.0837C42.5 58.5314 42.9477 58.0837 43.5 58.0837H45.75C46.3023 58.0837 46.7648 58.5372 46.6428 59.0759C46.4704 59.8371 46.0901 60.5099 45.5019 61.0941C44.9154 61.6763 44.2455 62.0534 43.4921 62.2254ZM9.5 17.0003C8.94772 17.0003 8.48522 16.5466 8.60902 16.0084C8.78233 15.2549 9.16225 14.5849 9.74879 13.9984C10.335 13.4122 11.0047 13.0325 11.758 12.8593C12.2963 12.7355 12.75 13.198 12.75 13.7503V16.0003C12.75 16.5526 12.3023 17.0003 11.75 17.0003H9.5Z" fill="url(#paint0_linear_2025_9966)"/>
<defs>
<linearGradient id="paint0_linear_2025_9966" x1="8.5" y1="34.0003" x2="56.6667" y2="34.0003" gradientUnits="userSpaceOnUse">
<stop stop-color="#01159A"/>
<stop offset="1" stop-color="#3E55F2"/>
</linearGradient>
</defs>
</svg>
