<svg width="50" height="50" viewBox="0 0 50 50" fill="none" xmlns="http://www.w3.org/2000/svg">
<path d="M36.9779 42.1875C34.7904 42.1875 32.9414 41.4323 31.431 39.9219C29.9206 38.4115 29.1654 36.5625 29.1654 34.375C29.1654 32.1875 29.9206 30.3385 31.431 28.8281C32.9414 27.3177 34.7904 26.5625 36.9779 26.5625C39.1654 26.5625 41.0143 27.3177 42.5247 28.8281C44.0352 30.3385 44.7904 32.1875 44.7904 34.375C44.7904 36.5625 44.0352 38.4115 42.5247 39.9219C41.0143 41.4323 39.1654 42.1875 36.9779 42.1875ZM8.33203 36.4583V32.2917H24.9987V36.4583H8.33203ZM13.0195 23.4375C10.832 23.4375 8.98307 22.6823 7.47266 21.1719C5.96224 19.6615 5.20703 17.8125 5.20703 15.625C5.20703 13.4375 5.96224 11.5885 7.47266 10.0781C8.98307 8.56771 10.832 7.8125 13.0195 7.8125C15.207 7.8125 17.056 8.56771 18.5664 10.0781C20.0768 11.5885 20.832 13.4375 20.832 15.625C20.832 17.8125 20.0768 19.6615 18.5664 21.1719C17.056 22.6823 15.207 23.4375 13.0195 23.4375ZM24.9987 17.7083V13.5417H41.6654V17.7083H24.9987Z" fill="url(#paint0_linear_2029_5027)"/>
<defs>
<linearGradient id="paint0_linear_2029_5027" x1="5.20703" y1="25" x2="44.7904" y2="25" gradientUnits="userSpaceOnUse">
<stop stop-color="#01159A"/>
<stop offset="1" stop-color="#3E55F2"/>
</linearGradient>
</defs>
</svg>
