<svg width="40" height="40" viewBox="0 0 40 40" fill="none" xmlns="http://www.w3.org/2000/svg">
<path d="M24.1657 20.833L10.8324 34.1663C10.1694 34.8294 9.27009 35.2019 8.33241 35.2019C7.39473 35.2019 6.49545 34.8294 5.83241 34.1663C5.16937 33.5033 4.79688 32.604 4.79688 31.6663C4.79688 30.7287 5.16937 29.8294 5.83241 29.1663L19.1657 15.833" stroke="url(#paint0_linear_2025_18684)" stroke-width="3.33333" stroke-linecap="round" stroke-linejoin="round"/>
<path d="M26.668 26.667L36.668 16.667" stroke="url(#paint1_linear_2025_18684)" stroke-width="3.33333" stroke-linecap="round" stroke-linejoin="round"/>
<path d="M13.332 13.333L23.332 3.33301" stroke="url(#paint2_linear_2025_18684)" stroke-width="3.33333" stroke-linecap="round" stroke-linejoin="round"/>
<path d="M15 11.667L28.3333 25.0003" stroke="url(#paint3_linear_2025_18684)" stroke-width="3.33333" stroke-linecap="round" stroke-linejoin="round"/>
<path d="M35.0013 18.3333L21.668 5" stroke="url(#paint4_linear_2025_18684)" stroke-width="3.33333" stroke-linecap="round" stroke-linejoin="round"/>
<defs>
<linearGradient id="paint0_linear_2025_18684" x1="4.79688" y1="25.5174" x2="24.1657" y2="25.5174" gradientUnits="userSpaceOnUse">
<stop stop-color="#01159A"/>
<stop offset="1" stop-color="#3E55F2"/>
</linearGradient>
<linearGradient id="paint1_linear_2025_18684" x1="26.668" y1="21.667" x2="36.668" y2="21.667" gradientUnits="userSpaceOnUse">
<stop stop-color="#01159A"/>
<stop offset="1" stop-color="#3E55F2"/>
</linearGradient>
<linearGradient id="paint2_linear_2025_18684" x1="13.332" y1="8.33301" x2="23.332" y2="8.33301" gradientUnits="userSpaceOnUse">
<stop stop-color="#01159A"/>
<stop offset="1" stop-color="#3E55F2"/>
</linearGradient>
<linearGradient id="paint3_linear_2025_18684" x1="15" y1="18.3337" x2="28.3333" y2="18.3337" gradientUnits="userSpaceOnUse">
<stop stop-color="#01159A"/>
<stop offset="1" stop-color="#3E55F2"/>
</linearGradient>
<linearGradient id="paint4_linear_2025_18684" x1="21.668" y1="11.6667" x2="35.0013" y2="11.6667" gradientUnits="userSpaceOnUse">
<stop stop-color="#01159A"/>
<stop offset="1" stop-color="#3E55F2"/>
</linearGradient>
</defs>
</svg>
