<svg width="64" height="64" viewBox="0 0 64 64" fill="none" xmlns="http://www.w3.org/2000/svg">
<path d="M0 32C0 14.3269 14.3269 0 32 0C49.6731 0 64 14.3269 64 32C64 49.6731 49.6731 64 32 64C14.3269 64 0 49.6731 0 32Z" fill="url(#paint0_linear_4157_11995)"/>
<path d="M41.3333 30.667H22.6667C21.1939 30.667 20 31.8609 20 33.3337V42.667C20 44.1398 21.1939 45.3337 22.6667 45.3337H41.3333C42.8061 45.3337 44 44.1398 44 42.667V33.3337C44 31.8609 42.8061 30.667 41.3333 30.667Z" stroke="white" stroke-width="2.66667" stroke-linecap="round" stroke-linejoin="round"/>
<path d="M25.334 30.667V25.3337C25.334 23.5655 26.0364 21.8699 27.2866 20.6196C28.5368 19.3694 30.2325 18.667 32.0007 18.667C33.7688 18.667 35.4645 19.3694 36.7147 20.6196C37.9649 21.8699 38.6673 23.5655 38.6673 25.3337V30.667" stroke="white" stroke-width="2.66667" stroke-linecap="round" stroke-linejoin="round"/>
<defs>
<linearGradient id="paint0_linear_4157_11995" x1="32" y1="0" x2="32" y2="64" gradientUnits="userSpaceOnUse">
<stop stop-color="#01159A"/>
<stop offset="1" stop-color="#3E55F2"/>
</linearGradient>
</defs>
</svg>
