<svg width="50" height="45" viewBox="0 0 50 45" fill="none" xmlns="http://www.w3.org/2000/svg">
<path d="M3.73292 25.8125C3.23935 25.8125 2.81701 25.4526 2.7613 24.9622C2.73196 24.704 2.70736 24.4457 2.6875 24.1875C2.64583 23.6458 2.625 23.0833 2.625 22.5C2.625 19.375 3.20833 16.4479 4.375 13.7188C5.54167 10.9896 7.13542 8.61458 9.15625 6.59375C11.1771 4.57292 13.5521 2.96875 16.2812 1.78125C19.0104 0.59375 21.9167 0 25 0C28.0833 0 30.9896 0.59375 33.7188 1.78125C36.4479 2.96875 38.8333 4.57292 40.875 6.59375C42.9167 8.61458 44.5208 10.9896 45.6875 13.7188C46.8542 16.4479 47.4375 19.375 47.4375 22.5C47.4375 23.0833 47.4167 23.6458 47.375 24.1875C47.3551 24.4457 47.3305 24.704 47.3012 24.9622C47.2455 25.4526 46.8232 25.8125 46.3296 25.8125H44.5406C43.9277 25.8125 43.4599 25.2662 43.5368 24.6582C43.5567 24.5013 43.5756 24.3444 43.5938 24.1875C43.6562 23.6458 43.6875 23.0833 43.6875 22.5C43.6875 21.9583 43.6667 21.4167 43.625 20.875C43.6051 20.6168 43.5805 20.3585 43.5512 20.1003C43.4955 19.6099 43.0732 19.25 42.5796 19.25H35.5174C34.9349 19.25 34.4767 19.7459 34.5067 20.3276C34.516 20.5101 34.5242 20.6925 34.5312 20.875C34.5521 21.4167 34.5625 21.9583 34.5625 22.5C34.5625 23.0833 34.5521 23.6354 34.5312 24.1562C34.5218 24.3922 34.5102 24.6345 34.4965 24.8832C34.4677 25.4071 34.031 25.8125 33.5064 25.8125H31.845C31.257 25.8125 30.7989 25.3073 30.8099 24.7193C30.8116 24.6254 30.8125 24.5314 30.8125 24.4375V21.0625C30.8125 20.7402 30.8014 20.4234 30.7793 20.1122C30.7439 19.6158 30.3179 19.25 29.8202 19.25H20.2423C19.7446 19.25 19.3196 19.6158 19.276 20.1115C19.2486 20.423 19.2295 20.74 19.2188 21.0625C19.1979 21.6875 19.1875 22.3542 19.1875 23.0625V24.4375C19.1875 24.5314 19.1884 24.6254 19.1901 24.7193C19.2011 25.3073 18.743 25.8125 18.155 25.8125H16.4885C15.966 25.8125 15.5303 25.4102 15.5015 24.8885C15.4887 24.6548 15.4777 24.4212 15.4688 24.1875C15.4479 23.6458 15.4375 23.0833 15.4375 22.5C15.4375 21.9583 15.4479 21.4167 15.4688 20.875C15.4758 20.6925 15.484 20.5101 15.4933 20.3276C15.5233 19.7459 15.0651 19.25 14.4826 19.25H7.48292C6.98935 19.25 6.56701 19.6099 6.5113 20.1003C6.48196 20.3585 6.45736 20.6168 6.4375 20.875C6.39583 21.4167 6.375 21.9583 6.375 22.5C6.375 23.0833 6.40625 23.6458 6.46875 24.1875C6.48685 24.3444 6.50583 24.5013 6.52568 24.6582C6.60262 25.2662 6.13477 25.8125 5.52189 25.8125H3.73292ZM8.27738 14.1552C7.96932 14.7896 8.45101 15.5 9.15624 15.5H15.1529C15.6417 15.5 16.0575 15.1463 16.1479 14.6659C16.5078 12.7527 16.9794 11.0307 17.5625 9.5C17.9306 8.53369 18.3686 7.58007 18.8765 6.63917C19.3144 5.82793 18.5916 4.86345 17.7407 5.21805C15.8728 5.9964 14.1676 7.06955 12.625 8.4375C10.7855 10.0688 9.33629 11.9747 8.27738 14.1552ZM20.0758 14.3553C19.9557 14.9551 20.4255 15.5 21.0373 15.5H28.9627C29.5745 15.5 30.0443 14.9551 29.9242 14.3553C29.565 12.5617 29.007 10.8391 28.25 9.1875C27.5358 7.62916 26.7203 6.12141 25.8037 4.66425C25.4285 4.06777 24.5715 4.06777 24.1963 4.66425C23.2797 6.12141 22.4642 7.62916 21.75 9.1875C20.993 10.8391 20.435 12.5617 20.0758 14.3553ZM33.8521 14.6659C33.9425 15.1463 34.3583 15.5 34.8471 15.5H40.9063C41.6115 15.5 42.0931 14.7896 41.7844 14.1556C40.7226 11.9749 39.2632 10.0688 37.4062 8.4375C35.8484 7.06895 34.1329 5.99546 32.2597 5.21702C31.4084 4.86326 30.6856 5.82793 31.1235 6.63917C31.6314 7.58007 32.0694 8.53368 32.4375 9.5C33.0206 11.0307 33.4922 12.7527 33.8521 14.6659ZM24.125 45C23.5727 45 23.125 44.5523 23.125 44V41.75C23.125 39.375 22.3125 37.375 20.6875 35.75C19.0625 34.125 17.0625 33.3125 14.6875 33.3125H1C0.447716 33.3125 0 32.8648 0 32.3125V30.5625C0 30.0102 0.447715 29.5625 1 29.5625H14.6875C16.7708 29.5625 18.7083 30.0417 20.5 31C21.887 31.7419 23.0992 32.696 24.1367 33.8625C24.5887 34.3707 25.4112 34.3707 25.8624 33.8617C26.896 32.6956 28.0982 31.7417 29.4688 31C31.2396 30.0417 33.1667 29.5625 35.25 29.5625H49C49.5523 29.5625 50 30.0102 50 30.5625V32.3125C50 32.8648 49.5523 33.3125 49 33.3125H35.25C32.9167 33.3125 30.9375 34.1354 29.3125 35.7812C27.6875 37.4271 26.875 39.4167 26.875 41.75V44C26.875 44.5523 26.4273 45 25.875 45H24.125Z" fill="url(#paint0_linear_4175_15371)"/>
<defs>
<linearGradient id="paint0_linear_4175_15371" x1="0" y1="22.5" x2="50" y2="22.5" gradientUnits="userSpaceOnUse">
<stop stop-color="#01159A"/>
<stop offset="1" stop-color="#3E55F2"/>
</linearGradient>
</defs>
</svg>
