<svg width="48" height="48" viewBox="0 0 48 48" fill="none" xmlns="http://www.w3.org/2000/svg">
<mask id="path-1-inside-1_2025_17195" fill="white">
<path d="M0 14C0 6.26801 6.26801 0 14 0H34C41.732 0 48 6.26801 48 14V34C48 41.732 41.732 48 34 48H14C6.26801 48 0 41.732 0 34V14Z"/>
</mask>
<path d="M0 14C0 6.26801 6.26801 0 14 0H34C41.732 0 48 6.26801 48 14V34C48 41.732 41.732 48 34 48H14C6.26801 48 0 41.732 0 34V14Z" fill="white" fill-opacity="0.05"/>
<path d="M14 0V1H34V0V-1H14V0ZM48 14H47V34H48H49V14H48ZM34 48V47H14V48V49H34V48ZM0 34H1V14H0H-1V34H0ZM14 48V47C6.8203 47 1 41.1797 1 34H0H-1C-1 42.2843 5.71573 49 14 49V48ZM48 34H47C47 41.1797 41.1797 47 34 47V48V49C42.2843 49 49 42.2843 49 34H48ZM34 0V1C41.1797 1 47 6.8203 47 14H48H49C49 5.71573 42.2843 -1 34 -1V0ZM14 0V-1C5.71573 -1 -1 5.71573 -1 14H0H1C1 6.8203 6.8203 1 14 1V0Z" fill="white" fill-opacity="0.1" mask="url(#path-1-inside-1_2025_17195)"/>
<path d="M24 11.2744C21.0829 11.2767 18.287 12.4365 16.2246 14.499C14.1622 16.5615 13.0023 19.3576 13 22.2744C13 30.6652 23.2518 36.4071 23.6891 36.6465H23.6902C23.8826 36.7527 24.1174 36.7527 24.3098 36.6465C24.7471 36.4083 34.9989 30.6649 34.9989 22.2744H35C34.9978 19.3574 33.8379 16.5614 31.7754 14.499C29.7129 12.4366 26.9168 11.2767 24 11.2744ZM24 35.3257C22.3055 34.3392 14.2962 29.1305 14.2962 22.2744C14.2962 18.8073 16.1461 15.6039 19.148 13.8714C22.1498 12.1378 25.8497 12.1378 28.8518 13.8714C31.8536 15.6039 33.7035 18.807 33.7035 22.2744C33.7035 29.1305 25.6945 34.3393 24 35.3257Z" fill="white" stroke="white" stroke-width="0.7"/>
<path d="M24.001 17.3115C22.9116 17.3093 21.867 17.7399 21.0953 18.5083C20.3247 19.2767 19.8908 20.3213 19.8897 21.4096C19.8874 22.499 20.3191 23.5436 21.0886 24.3144C21.8581 25.0851 22.9016 25.5189 23.9911 25.5189C25.0794 25.5201 26.124 25.0883 26.8947 24.3177C27.6642 23.5482 28.0971 22.5036 28.0971 21.4152C28.0971 20.3281 27.6665 19.2857 26.8981 18.5162C26.1297 17.7467 25.0884 17.3128 24.0013 17.3116L24.001 17.3115ZM24.001 24.2145C22.8646 24.2145 21.8401 23.53 21.4061 22.4798C20.9722 21.4296 21.2138 20.2216 22.0191 19.4187C22.8232 18.6168 24.0323 18.3785 25.0813 18.8159C26.1293 19.252 26.8115 20.2788 26.8082 21.4151C26.8037 22.9619 25.5489 24.2145 24.001 24.2145Z" fill="white" stroke="white" stroke-width="0.7"/>
</svg>
