<svg width="50" height="50" viewBox="0 0 50 50" fill="none" xmlns="http://www.w3.org/2000/svg">
<path d="M30.2083 37.5003C28.75 37.5003 27.5174 36.9969 26.5104 35.9899C25.5035 34.983 25 33.7503 25 32.292C25 30.8337 25.5035 29.601 26.5104 28.5941C27.5174 27.5871 28.75 27.0837 30.2083 27.0837C31.6667 27.0837 32.8993 27.5871 33.9062 28.5941C34.9132 29.601 35.4167 30.8337 35.4167 32.292C35.4167 33.7503 34.9132 34.983 33.9062 35.9899C32.8993 36.9969 31.6667 37.5003 30.2083 37.5003ZM10.4167 45.8337C9.27083 45.8337 8.28993 45.4257 7.47396 44.6097C6.65799 43.7937 6.25 42.8128 6.25 41.667V12.5003C6.25 11.3545 6.65799 10.3736 7.47396 9.55762C8.28993 8.74165 9.27083 8.33366 10.4167 8.33366H12.5V4.16699H16.6667V8.33366H33.3333V4.16699H37.5V8.33366H39.5833C40.7292 8.33366 41.7101 8.74165 42.526 9.55762C43.342 10.3736 43.75 11.3545 43.75 12.5003V41.667C43.75 42.8128 43.342 43.7937 42.526 44.6097C41.7101 45.4257 40.7292 45.8337 39.5833 45.8337H10.4167ZM10.4167 41.667H39.5833V20.8337H10.4167V41.667Z" fill="url(#paint0_linear_2029_5046)"/>
<defs>
<linearGradient id="paint0_linear_2029_5046" x1="25" y1="4.16699" x2="25" y2="45.8337" gradientUnits="userSpaceOnUse">
<stop stop-color="#3E55F2"/>
<stop offset="1" stop-color="#01159A"/>
</linearGradient>
</defs>
</svg>
