<svg width="68" height="68" viewBox="0 0 68 68" fill="none" xmlns="http://www.w3.org/2000/svg">
<path d="M31.9471 53.3295C31.9471 53.8818 32.3948 54.3295 32.9471 54.3295H34.843C35.3953 54.3295 35.843 53.8818 35.843 53.3295V51.538C35.843 51.0298 36.2251 50.6057 36.7267 50.5241C39.1862 50.1241 41.1347 49.2794 42.5721 47.9899C44.1777 46.5496 44.9805 44.6253 44.9805 42.217C44.9805 39.8087 44.2957 37.8489 42.9263 36.3378C41.5569 34.8267 39.243 33.3864 35.9846 32.017C33.2457 30.8837 31.2624 29.8684 30.0346 28.9712C28.8069 28.0739 28.193 26.8698 28.193 25.3587C28.193 23.8948 28.7242 22.7378 29.7867 21.8878C30.8492 21.0378 32.3013 20.6128 34.143 20.6128C35.5596 20.6128 36.7874 20.9434 37.8263 21.6045C38.6377 22.1208 39.3483 22.8388 39.958 23.7585C40.2536 24.2042 40.827 24.3975 41.3093 24.1664L42.9405 23.3847C43.4404 23.1452 43.6543 22.5418 43.3721 22.0646C42.64 20.8266 41.7359 19.8232 40.6596 19.0545C39.5612 18.2699 38.2999 17.746 36.8756 17.4829C36.3723 17.3899 35.9846 16.966 35.9846 16.4542V14.742C35.9846 14.1897 35.5369 13.742 34.9846 13.742H33.0888C32.5365 13.742 32.0888 14.1897 32.0888 14.742V16.4824C32.0888 16.9821 31.7187 17.4005 31.229 17.5005C29.2237 17.9096 27.6096 18.7464 26.3867 20.0107C24.9937 21.451 24.2971 23.2337 24.2971 25.3587C24.2971 27.6725 25.0055 29.5142 26.4221 30.8837C27.8388 32.2531 29.9638 33.5281 32.7971 34.7087C35.961 36.0309 38.1332 37.2232 39.3138 38.2857C40.4944 39.3482 41.0846 40.6587 41.0846 42.217C41.0846 43.7281 40.4589 44.9441 39.2076 45.8649C37.9562 46.7857 36.386 47.2462 34.4971 47.2462C32.6555 47.2462 31.0145 46.7267 29.5742 45.6878C28.3986 44.8398 27.514 43.7401 26.9204 42.3887C26.6958 41.8774 26.1298 41.5825 25.5999 41.7591L24.0068 42.2901C23.443 42.4781 23.1642 43.115 23.4403 43.6413C24.3345 45.3459 25.3875 46.7246 26.5992 47.7774C27.8696 48.8812 29.4063 49.7186 31.2094 50.2897C31.6414 50.4265 31.9471 50.8197 31.9471 51.2728V53.3295ZM34.0013 62.3337C30.1291 62.3337 26.4694 61.5899 23.0221 60.1024C19.5749 58.6149 16.5645 56.5844 13.9909 54.0107C11.4173 51.4371 9.38672 48.4267 7.89922 44.9795C6.41172 41.5323 5.66797 37.8725 5.66797 34.0003C5.66797 30.0809 6.41172 26.3975 7.89922 22.9503C9.38672 19.5031 11.4173 16.5045 13.9909 13.9545C16.5645 11.4045 19.5749 9.38574 23.0221 7.89824C26.4694 6.41074 30.1291 5.66699 34.0013 5.66699C37.9207 5.66699 41.6041 6.41074 45.0513 7.89824C48.4985 9.38574 51.4971 11.4045 54.0471 13.9545C56.5971 16.5045 58.6159 19.5031 60.1034 22.9503C61.5909 26.3975 62.3346 30.0809 62.3346 34.0003C62.3346 37.8725 61.5909 41.5323 60.1034 44.9795C58.6159 48.4267 56.5971 51.4371 54.0471 54.0107C51.4971 56.5844 48.4985 58.6149 45.0513 60.1024C41.6041 61.5899 37.9207 62.3337 34.0013 62.3337Z" fill="url(#paint0_linear_2025_9975)"/>
<defs>
<linearGradient id="paint0_linear_2025_9975" x1="5.66797" y1="34.0003" x2="62.3346" y2="34.0003" gradientUnits="userSpaceOnUse">
<stop stop-color="#01159A"/>
<stop offset="1" stop-color="#3E55F2"/>
</linearGradient>
</defs>
</svg>
