<svg width="67" height="67" viewBox="0 0 67 67" fill="none" xmlns="http://www.w3.org/2000/svg">
<rect width="67" height="67" rx="7.12766" fill="#F3F4FF"/>
<path d="M34.5938 52.125C34.0415 52.125 33.5938 51.6773 33.5938 51.125V50.3125C33.5938 49.7602 34.0415 49.3125 34.5938 49.3125H46.5625C47.1148 49.3125 47.5625 48.8648 47.5625 48.3125V47.7812C47.5625 47.229 47.1148 46.7812 46.5625 46.7812H41.625C41.0727 46.7812 40.625 46.3335 40.625 45.7812V33.9062C40.625 33.354 41.0727 32.9062 41.625 32.9062H46.5625C47.1148 32.9062 47.5625 32.4585 47.5625 31.9062V29.7188C47.5625 25.8438 46.2031 22.5078 43.4844 19.7109C40.7656 16.9141 37.4688 15.5156 33.5938 15.5156C29.7188 15.5156 26.3906 16.9141 23.6094 19.7109C20.8281 22.5078 19.4375 25.8438 19.4375 29.7188V31.9062C19.4375 32.4585 19.8852 32.9062 20.4375 32.9062H25.375C25.9273 32.9062 26.375 33.354 26.375 33.9062V45.7812C26.375 46.3335 25.9273 46.7812 25.375 46.7812H19.4375C18.6875 46.7812 18.0312 46.5 17.4688 45.9375C16.9062 45.375 16.625 44.7188 16.625 43.9688V29.7188C16.625 27.3834 17.0703 25.1822 17.9609 23.115C18.8516 21.0478 20.0625 19.2411 21.5938 17.6948C23.125 16.1483 24.925 14.9297 26.9938 14.0391C29.0628 13.1484 31.2659 12.7031 33.6031 12.7031C35.9406 12.7031 38.1328 13.1484 40.1797 14.0391C42.2266 14.9297 44.0008 16.1483 45.5023 17.6948C47.0039 19.2411 48.1914 21.0478 49.0648 23.115C49.9383 25.1822 50.375 27.3834 50.375 29.7188V49.3125C50.375 50.0625 50.0938 50.7188 49.5312 51.2812C48.9688 51.8438 48.3125 52.125 47.5625 52.125H34.5938Z" fill="url(#paint0_linear_2023_1186)"/>
<defs>
<linearGradient id="paint0_linear_2023_1186" x1="16.625" y1="32.4141" x2="50.375" y2="32.4141" gradientUnits="userSpaceOnUse">
<stop stop-color="#01159A"/>
<stop offset="1" stop-color="#3E55F2"/>
</linearGradient>
</defs>
</svg>
