<svg width="68" height="68" viewBox="0 0 68 68" fill="none" xmlns="http://www.w3.org/2000/svg">
<path d="M12.75 59.5C11.6167 59.5 10.625 59.075 9.775 58.225C8.925 57.375 8.5 56.3833 8.5 55.25V12.75C8.5 11.6167 8.925 10.625 9.775 9.775C10.625 8.925 11.6167 8.5 12.75 8.5H55.25C56.3833 8.5 57.375 8.925 58.225 9.775C59.075 10.625 59.5 11.6167 59.5 12.75V55.25C59.5 56.3833 59.075 57.375 58.225 58.225C57.375 59.075 56.3833 59.5 55.25 59.5H12.75ZM12.75 42.9167C12.75 43.469 13.1977 43.9167 13.75 43.9167H54.25C54.8023 43.9167 55.25 43.469 55.25 42.9167V13.75C55.25 13.1977 54.8023 12.75 54.25 12.75H13.75C13.1977 12.75 12.75 13.1977 12.75 13.75V42.9167Z" fill="url(#paint0_linear_3852_5505)"/>
<defs>
<linearGradient id="paint0_linear_3852_5505" x1="8.5" y1="34" x2="59.5" y2="34" gradientUnits="userSpaceOnUse">
<stop stop-color="#01159A"/>
<stop offset="1" stop-color="#3E55F2"/>
</linearGradient>
</defs>
</svg>
