<svg width="67" height="67" viewBox="0 0 67 67" fill="none" xmlns="http://www.w3.org/2000/svg">
<rect width="67" height="67" rx="7.12766" fill="#F3F4FF"/>
<path d="M19.8125 48.75C19.0625 48.75 18.4062 48.4688 17.8438 47.9062C17.2812 47.3438 17 46.6875 17 45.9375V17.8125C17 17.0625 17.2812 16.4062 17.8438 15.8438C18.4062 15.2812 19.0625 15 19.8125 15H47.9375C48.6875 15 49.3438 15.2812 49.9062 15.8438C50.4688 16.4062 50.75 17.0625 50.75 17.8125V45.9375C50.75 46.6875 50.4688 47.3438 49.9062 47.9062C49.3438 48.4688 48.6875 48.75 47.9375 48.75H19.8125ZM19.8125 37.4375C19.8125 37.9898 20.2602 38.4375 20.8125 38.4375H46.9375C47.4898 38.4375 47.9375 37.9898 47.9375 37.4375V18.8125C47.9375 18.2602 47.4898 17.8125 46.9375 17.8125H20.8125C20.2602 17.8125 19.8125 18.2602 19.8125 18.8125V37.4375Z" fill="url(#paint0_linear_2023_1195)"/>
<defs>
<linearGradient id="paint0_linear_2023_1195" x1="17" y1="31.875" x2="50.75" y2="31.875" gradientUnits="userSpaceOnUse">
<stop stop-color="#01159A"/>
<stop offset="1" stop-color="#3E55F2"/>
</linearGradient>
</defs>
</svg>
