<svg width="64" height="64" viewBox="0 0 64 64" fill="none" xmlns="http://www.w3.org/2000/svg">
<path d="M0 16C0 7.16344 7.16344 0 16 0H48C56.8366 0 64 7.16344 64 16V48C64 56.8366 56.8366 64 48 64H16C7.16344 64 0 56.8366 0 48V16Z" fill="#6E89FF" fill-opacity="0.05"/>
<path d="M37.3359 18.667V26.667H45.3359" stroke="url(#paint0_linear_2025_17127)" stroke-width="2.66667" stroke-linecap="round" stroke-linejoin="round"/>
<path d="M45.3359 18.667L37.3359 26.667" stroke="url(#paint1_linear_2025_17127)" stroke-width="2.66667" stroke-linecap="round" stroke-linejoin="round"/>
<path d="M45.33 38.5605V42.5605C45.3315 42.9318 45.2554 43.2993 45.1067 43.6396C44.9579 43.9798 44.7397 44.2852 44.4661 44.5363C44.1925 44.7873 43.8694 44.9784 43.5177 45.0974C43.1659 45.2164 42.7932 45.2605 42.4233 45.2271C38.3204 44.7813 34.3793 43.3793 30.9167 41.1338C27.6951 39.0867 24.9638 36.3554 22.9167 33.1338C20.6633 29.6554 19.261 25.6951 18.8233 21.5738C18.79 21.2051 18.8338 20.8335 18.952 20.4826C19.0702 20.1318 19.2601 19.8094 19.5097 19.5359C19.7593 19.2625 20.0631 19.0441 20.4017 18.8945C20.7404 18.7449 21.1064 18.6675 21.4767 18.6671H25.4767C26.1237 18.6608 26.751 18.8899 27.2417 19.3118C27.7323 19.7338 28.0528 20.3197 28.1433 20.9605C28.3122 22.2405 28.6253 23.4974 29.0767 24.7071C29.256 25.1844 29.2949 25.703 29.1885 26.2016C29.0822 26.7002 28.8351 27.1579 28.4767 27.5205L26.7833 29.2138C28.6814 32.5518 31.4453 35.3157 34.7833 37.2138L36.4767 35.5205C36.8392 35.162 37.2969 34.9149 37.7955 34.8086C38.2941 34.7022 38.8128 34.7411 39.29 34.9205C40.4997 35.3719 41.7566 35.685 43.0367 35.8538C43.6843 35.9452 44.2759 36.2714 44.6987 36.7704C45.1215 37.2695 45.3462 37.9066 45.33 38.5605Z" stroke="url(#paint2_linear_2025_17127)" stroke-width="2.66667" stroke-linecap="round" stroke-linejoin="round"/>
<defs>
<linearGradient id="paint0_linear_2025_17127" x1="37.3359" y1="22.667" x2="45.3359" y2="22.667" gradientUnits="userSpaceOnUse">
<stop stop-color="#01159A"/>
<stop offset="1" stop-color="#3E55F2"/>
</linearGradient>
<linearGradient id="paint1_linear_2025_17127" x1="37.3359" y1="22.667" x2="45.3359" y2="22.667" gradientUnits="userSpaceOnUse">
<stop stop-color="#01159A"/>
<stop offset="1" stop-color="#3E55F2"/>
</linearGradient>
<linearGradient id="paint2_linear_2025_17127" x1="18.8125" y1="31.9525" x2="45.3308" y2="31.9525" gradientUnits="userSpaceOnUse">
<stop stop-color="#01159A"/>
<stop offset="1" stop-color="#3E55F2"/>
</linearGradient>
</defs>
</svg>
