<svg width="26" height="47" viewBox="0 0 26 47" fill="none" xmlns="http://www.w3.org/2000/svg">
<path d="M25.6396 14.059H0.36041C0.160743 14.059 0 14.2386 0 14.4599V14.8705C0 15.0918 0.160743 15.2714 0.36041 15.2714H0.713614C0.950043 15.2714 1.14322 15.4855 1.14322 15.7493V30.3712C1.14322 30.5925 1.30396 30.7721 1.50363 30.7721H24.4978C24.696 30.7721 24.8582 30.5925 24.8582 30.3712V15.7485C24.8582 15.4847 25.0514 15.2706 25.2878 15.2706H25.6396C25.8393 15.2706 26 15.091 26 14.8697V14.4591C26 14.2386 25.84 14.059 25.6396 14.059ZM10.09 23.7955C10.09 20.5066 15.91 20.5066 15.91 23.7955C15.91 25.5811 14.6031 27.0332 13 27.0332C11.3947 27.0324 10.09 25.5803 10.09 23.7955ZM26 0.400908V0.817051C26 1.03835 25.8393 1.21796 25.6396 1.21796H25.2878C25.0514 1.21796 24.8582 1.43204 24.8582 1.69584V11.9013C24.8582 12.1226 24.696 12.3023 24.4978 12.3023H1.50363C1.30396 12.3023 1.14322 12.1226 1.14322 11.9013V1.69584C1.14322 1.43204 0.950043 1.21796 0.713614 1.21796H0.36041C0.160743 1.21796 0 1.03835 0 0.817051V0.400908C0 0.179607 0.160743 0 0.36041 0H25.6396C25.84 0 26 0.179607 26 0.400908ZM26 32.9305V33.3467C26 33.568 25.8393 33.7476 25.6396 33.7476H25.2878C25.0514 33.7476 24.8582 33.9625 24.8582 34.2255V45.3098C24.8582 45.5736 25.0514 45.7877 25.2878 45.7877H25.6396C25.8393 45.7877 26 45.9673 26 46.1886V46.5991C26 46.8204 25.8393 47 25.6396 47H0.36041C0.160743 47 0 46.8204 0 46.5991V46.1886C0 45.9673 0.160743 45.7877 0.36041 45.7877H0.713614C0.950043 45.7877 1.14322 45.5736 1.14322 45.3098V34.2255C1.14322 33.9617 0.950043 33.7476 0.713614 33.7476H0.36041C0.160743 33.7476 0 33.568 0 33.3467V32.9305C0 32.7093 0.160743 32.5296 0.36041 32.5296H25.6396C25.84 32.5296 26 32.7093 26 32.9305Z" fill="url(#paint0_linear_2025_7636)"/>
<defs>
<linearGradient id="paint0_linear_2025_7636" x1="0" y1="23.5" x2="26" y2="23.5" gradientUnits="userSpaceOnUse">
<stop stop-color="#01159A"/>
<stop offset="1" stop-color="#3E55F2"/>
</linearGradient>
</defs>
</svg>
