<svg width="68" height="68" viewBox="0 0 68 68" fill="none" xmlns="http://www.w3.org/2000/svg">
<path d="M18.418 65.1663C17.2492 65.1663 16.2488 64.7501 15.4168 63.9175C14.5842 63.0855 14.168 62.0851 14.168 60.9163V7.08301C14.168 5.94967 14.593 4.95801 15.443 4.10801C16.293 3.25801 17.2846 2.83301 18.418 2.83301H49.443C50.6117 2.83301 51.6124 3.24904 52.4449 4.08109C53.2769 4.91362 53.693 5.91426 53.693 7.08301V16.8609C53.693 17.3497 54.0549 17.751 54.5058 17.94C55.0053 18.1495 55.4427 18.4724 55.818 18.9086C56.3846 19.5679 56.668 20.3147 56.668 21.1491V26.4205C56.668 27.3177 56.3846 28.0969 55.818 28.758C55.4427 29.1959 55.0052 29.5198 54.5056 29.7298C54.055 29.9192 53.693 30.3205 53.693 30.8093V60.9163C53.693 62.0851 53.2769 63.0855 52.4449 63.9175C51.6124 64.7501 50.6117 65.1663 49.443 65.1663H18.418ZM26.2096 55.2497H41.6513C42.2534 55.2497 42.7582 55.0447 43.1657 54.6348C43.5728 54.2254 43.7763 53.7178 43.7763 53.1119C43.7763 52.5065 43.5728 52.0031 43.1657 51.6018C42.7582 51.2004 42.2534 50.9997 41.6513 50.9997H26.2096C25.6076 50.9997 25.103 51.2046 24.6959 51.6145C24.2884 52.0239 24.0846 52.5316 24.0846 53.1374C24.0846 53.7428 24.2884 54.2462 24.6959 54.6476C25.103 55.049 25.6076 55.2497 26.2096 55.2497Z" fill="url(#paint0_linear_2025_9984)"/>
<defs>
<linearGradient id="paint0_linear_2025_9984" x1="14.168" y1="33.9997" x2="56.668" y2="33.9997" gradientUnits="userSpaceOnUse">
<stop stop-color="#01159A"/>
<stop offset="1" stop-color="#3E55F2"/>
</linearGradient>
</defs>
</svg>
