<svg width="33" height="60" viewBox="0 0 33 60" fill="none" xmlns="http://www.w3.org/2000/svg">
<path d="M32.5426 17.8805H0.457444C0.20402 17.8805 0 18.1089 0 18.3903V18.9124C0 19.1939 0.20402 19.4223 0.457444 19.4223H0.90574C1.20582 19.4223 1.45101 19.6946 1.45101 20.0301V38.6264C1.45101 38.9079 1.65503 39.1363 1.90845 39.1363H31.0934C31.345 39.1363 31.5508 38.9079 31.5508 38.6264V20.0291C31.5508 19.6936 31.796 19.4213 32.0961 19.4213H32.5426C32.796 19.4213 33 19.1929 33 18.9114V18.3893C33 18.1089 32.7969 17.8805 32.5426 17.8805ZM12.8066 30.2634C12.8066 28.829 14.3634 25.5338 15.6491 23.0944C16.0132 22.4035 16.9868 22.4035 17.3509 23.0944C18.6366 25.5338 20.1934 28.829 20.1934 30.2634C20.1934 32.5344 18.5347 34.3812 16.5 34.3812C14.4625 34.3801 12.8066 32.5334 12.8066 30.2634ZM33 0.509879V1.03914C33 1.32059 32.796 1.54901 32.5426 1.54901H32.0961C31.796 1.54901 31.5508 1.82129 31.5508 2.15679V15.1363C31.5508 15.4177 31.345 15.6462 31.0934 15.6462H1.90845C1.65503 15.6462 1.45101 15.4177 1.45101 15.1363V2.15679C1.45101 1.82129 1.20582 1.54901 0.90574 1.54901H0.457444C0.20402 1.54901 0 1.32059 0 1.03914V0.509879C0 0.228426 0.20402 0 0.457444 0H32.5426C32.7969 0 33 0.228426 33 0.509879ZM33 41.8815V42.4107C33 42.6922 32.796 42.9206 32.5426 42.9206H32.0961C31.796 42.9206 31.5508 43.1939 31.5508 43.5284V57.6255C31.5508 57.961 31.796 58.2333 32.0961 58.2333H32.5426C32.796 58.2333 33 58.4617 33 58.7432V59.2653C33 59.5468 32.796 59.7752 32.5426 59.7752H0.457444C0.20402 59.7752 0 59.5468 0 59.2653V58.7432C0 58.4617 0.20402 58.2333 0.457444 58.2333H0.90574C1.20582 58.2333 1.45101 57.961 1.45101 57.6255V43.5284C1.45101 43.1929 1.20582 42.9206 0.90574 42.9206H0.457444C0.20402 42.9206 0 42.6922 0 42.4107V41.8815C0 41.6 0.20402 41.3716 0.457444 41.3716H32.5426C32.7969 41.3716 33 41.6 33 41.8815Z" fill="url(#paint0_linear_2596_12960)"/>
<defs>
<linearGradient id="paint0_linear_2596_12960" x1="0" y1="29.8876" x2="33" y2="29.8876" gradientUnits="userSpaceOnUse">
<stop stop-color="#01159A"/>
<stop offset="1" stop-color="#3E55F2"/>
</linearGradient>
</defs>
</svg>
