<svg width="35" height="35" viewBox="0 0 35 35" fill="none" xmlns="http://www.w3.org/2000/svg">
<path d="M1 35C0.447715 35 0 34.5523 0 34V21C0 20.4477 0.447715 20 1 20H4C4.55228 20 5 20.4477 5 21V29C5 29.5523 5.44772 30 6 30H14C14.5523 30 15 30.4477 15 31V34C15 34.5523 14.5523 35 14 35H1ZM31 15C30.4477 15 30 14.5523 30 14V6C30 5.44772 29.5523 5 29 5H21C20.4477 5 20 4.55228 20 4V1C20 0.447715 20.4477 0 21 0H34C34.5523 0 35 0.447715 35 1V14C35 14.5523 34.5523 15 34 15H31Z" fill="url(#paint0_linear_4181_24924)"/>
<defs>
<linearGradient id="paint0_linear_4181_24924" x1="0" y1="17.5" x2="35" y2="17.5" gradientUnits="userSpaceOnUse">
<stop stop-color="#01159A"/>
<stop offset="1" stop-color="#3E55F2"/>
</linearGradient>
</defs>
</svg>
