<svg width="60" height="60" viewBox="0 0 60 60" fill="none" xmlns="http://www.w3.org/2000/svg">
<path d="M13.5 47.5C12.9477 47.5 12.5 47.0523 12.5 46.5V33.5C12.5 32.9477 12.9477 32.5 13.5 32.5H16.5C17.0523 32.5 17.5 32.9477 17.5 33.5V41.5C17.5 42.0523 17.9477 42.5 18.5 42.5H26.5C27.0523 42.5 27.5 42.9477 27.5 43.5V46.5C27.5 47.0523 27.0523 47.5 26.5 47.5H13.5ZM43.5 27.5C42.9477 27.5 42.5 27.0523 42.5 26.5V18.5C42.5 17.9477 42.0523 17.5 41.5 17.5H33.5C32.9477 17.5 32.5 17.0523 32.5 16.5V13.5C32.5 12.9477 32.9477 12.5 33.5 12.5H46.5C47.0523 12.5 47.5 12.9477 47.5 13.5V26.5C47.5 27.0523 47.0523 27.5 46.5 27.5H43.5Z" fill="url(#paint0_linear_2025_18058)"/>
<defs>
<linearGradient id="paint0_linear_2025_18058" x1="12.5" y1="30" x2="47.5" y2="30" gradientUnits="userSpaceOnUse">
<stop stop-color="#01159A"/>
<stop offset="1" stop-color="#3E55F2"/>
</linearGradient>
</defs>
</svg>
