<svg width="60" height="60" viewBox="0 0 60 60" fill="none" xmlns="http://www.w3.org/2000/svg">
<path d="M30 55C26.5417 55 23.2917 54.3438 20.25 53.0312C17.2083 51.7188 14.5625 49.9375 12.3125 47.6875C10.0625 45.4375 8.28125 42.7917 6.96875 39.75C5.65625 36.7083 5 33.4583 5 30C5 26.5417 5.65625 23.2917 6.96875 20.25C8.28125 17.2083 10.0625 14.5625 12.3125 12.3125C14.5625 10.0625 17.2083 8.28125 20.25 6.96875C23.2917 5.65625 26.5417 5 30 5C33.4583 5 36.7083 5.65625 39.75 6.96875C42.7917 8.28125 45.4375 10.0625 47.6875 12.3125C49.9375 14.5625 51.7188 17.2083 53.0312 20.25C54.3438 23.2917 55 26.5417 55 30C55 33.4583 54.3438 36.7083 53.0312 39.75C51.7188 42.7917 49.9375 45.4375 47.6875 47.6875C45.4375 49.9375 42.7917 51.7188 39.75 53.0312C36.7083 54.3438 33.4583 55 30 55ZM30 50C35.5833 50 40.3125 48.0625 44.1875 44.1875C48.0625 40.3125 50 35.5833 50 30C50 29.7083 49.9896 29.4062 49.9688 29.0938C49.9633 29.012 49.7766 28.9934 49.7513 29.0714C49.4677 29.946 48.9673 30.693 48.25 31.3125C47.3333 32.1042 46.25 32.5 45 32.5H40C38.625 32.5 37.4479 32.0104 36.4688 31.0312C35.4896 30.0521 35 28.875 35 27.5V26C35 25.4477 34.5523 25 34 25H26C25.4477 25 25 24.5523 25 24V20C25 18.625 25.4896 17.4479 26.4688 16.4688C27.4479 15.4896 28.625 15 30 15H31.5C32.0523 15 32.4859 14.547 32.6018 14.007C32.7219 13.4475 32.9484 12.9347 33.2812 12.4688C33.328 12.4033 33.3756 12.339 33.4242 12.2758C33.9645 11.5723 33.7253 10.3513 32.8486 10.2164C32.7845 10.2065 32.7204 10.1969 32.6562 10.1875C31.8021 10.0625 30.9167 10 30 10C24.4167 10 19.6875 11.9375 15.8125 15.8125C12.171 19.454 10.2405 23.8499 10.0211 29.0001C9.99759 29.5519 10.4477 30 11 30H22.5C25.25 30 27.6042 30.9792 29.5625 32.9375C31.5208 34.8958 32.5 37.25 32.5 40V41.5C32.5 42.0523 32.0523 42.5 31.5 42.5H26C25.4477 42.5 25 42.9477 25 43.5V48.5942C25 49.0531 25.3118 49.4555 25.7606 49.5513C26.335 49.6739 26.9044 49.7714 27.4688 49.8438C28.2812 49.9479 29.125 50 30 50Z" fill="url(#paint0_linear_2025_18028)"/>
<defs>
<linearGradient id="paint0_linear_2025_18028" x1="5" y1="30" x2="55" y2="30" gradientUnits="userSpaceOnUse">
<stop stop-color="#01159A"/>
<stop offset="1" stop-color="#3E55F2"/>
</linearGradient>
</defs>
</svg>
