<svg width="53" height="50" viewBox="0 0 53 50" fill="none" xmlns="http://www.w3.org/2000/svg">
<path d="M25 50C21.5417 50 18.2917 49.3438 15.25 48.0312C12.2083 46.7188 9.5625 44.9375 7.3125 42.6875C5.0625 40.4375 3.28125 37.7917 1.96875 34.75C0.65625 31.7083 0 28.4583 0 25C0 21.5417 0.65625 18.2917 1.96875 15.25C3.28125 12.2083 5.0625 9.5625 7.3125 7.3125C9.5625 5.0625 12.2083 3.28125 15.25 1.96875C18.2917 0.65625 21.5417 0 25 0C31.3333 0 36.8229 2.04167 41.4688 6.125C45.6274 9.78014 48.2753 14.2365 49.4125 19.4942C49.5832 20.2831 48.7517 20.8995 47.9848 20.6479C47.7117 20.5582 47.4355 20.4777 47.1562 20.4062C46.492 20.2363 45.8106 20.118 45.1121 20.0511C44.6749 20.0093 44.3019 19.7091 44.1763 19.2882C43.3548 16.5342 41.994 14.0631 40.0938 11.875C38.2453 9.74644 36.0203 8.08643 33.4187 6.89498C32.9837 6.69577 32.5 7.02157 32.5 7.5C32.5 8.875 32.0104 10.0521 31.0312 11.0312C30.0521 12.0104 28.875 12.5 27.5 12.5H23.5C22.9477 12.5 22.5 12.9477 22.5 13.5V17.5C22.5 18.2083 22.2604 18.8021 21.7812 19.2812C21.3021 19.7604 20.7083 20 20 20H16C15.4477 20 15 20.4477 15 21V24C15 24.5523 15.4477 25 16 25H30C30.4583 25 30.8854 25.1146 31.2812 25.3438C31.5129 25.4779 31.7125 25.6441 31.8799 25.8425C32.1054 26.1096 32.0715 26.4919 31.8965 26.7944C31.329 27.7753 30.8844 28.8021 30.5625 29.875C30.1875 31.125 30 32.4167 30 33.75C30 36.375 30.6771 38.8125 32.0312 41.0625C33.1648 42.946 34.3203 44.7273 35.4977 46.4064C35.8541 46.9148 35.677 47.6253 35.1073 47.8721C33.7279 48.4697 32.2963 48.9498 30.8125 49.3125C28.9375 49.7708 27 50 25 50ZM21.3805 44.7077C21.9725 44.8117 22.5 44.3445 22.5 43.7434V41C22.5 40.4477 22.0481 40.0122 21.5057 39.9082C20.5487 39.7246 19.7031 39.2656 18.9688 38.5312C17.9896 37.5521 17.5 36.375 17.5 35V32.9142C17.5 32.649 17.3946 32.3946 17.2071 32.2071L6.87404 21.874C6.2989 21.2989 5.31783 21.6151 5.20272 22.4203C5.187 22.5302 5.17151 22.6401 5.15625 22.75C5.05208 23.5 5 24.25 5 25C5 30.0417 6.65625 34.4583 9.96875 38.25C13.0329 41.7574 16.8368 43.9099 21.3805 44.7077ZM43 49.75C42.7917 49.5833 42.6458 49.375 42.5625 49.125C42.1042 47.6667 41.4583 46.3125 40.625 45.0625C39.7917 43.8125 38.8958 42.5833 37.9375 41.375C37.0625 40.2917 36.3542 39.1042 35.8125 37.8125C35.2708 36.5208 35 35.1667 35 33.75C35 31.3333 35.8542 29.2708 37.5625 27.5625C39.2708 25.8542 41.3333 25 43.75 25C46.1667 25 48.2292 25.8542 49.9375 27.5625C51.6458 29.2708 52.5 31.3333 52.5 33.75C52.5 35.1667 52.2188 36.5104 51.6562 37.7812C51.0938 39.0521 50.3958 40.25 49.5625 41.375C48.6042 42.5833 47.7083 43.8125 46.875 45.0625C46.0417 46.3125 45.3958 47.6667 44.9375 49.125C44.8542 49.375 44.7083 49.5833 44.5 49.75C44.2917 49.9167 44.0417 50 43.75 50C43.4583 50 43.2083 49.9167 43 49.75ZM42.8206 41.5148C43.2686 42.132 44.2329 42.1325 44.6898 41.5219C44.8311 41.3329 44.9762 41.1485 45.125 40.9688C45.625 40.3646 46.1042 39.75 46.5625 39.125C47.1458 38.3333 47.6562 37.4896 48.0938 36.5938C48.5312 35.6979 48.75 34.75 48.75 33.75C48.75 32.375 48.2604 31.1979 47.2812 30.2188C46.3021 29.2396 45.125 28.75 43.75 28.75C42.375 28.75 41.1979 29.2396 40.2188 30.2188C39.2396 31.1979 38.75 32.375 38.75 33.75C38.75 34.75 38.9688 35.6979 39.4062 36.5938C39.8438 37.4896 40.3542 38.3333 40.9375 39.125C41.4375 39.75 41.9271 40.3646 42.4062 40.9688C42.5471 41.1463 42.6852 41.3283 42.8206 41.5148ZM41.5312 35.9688C40.9271 35.3646 40.625 34.625 40.625 33.75C40.625 32.875 40.9271 32.1354 41.5312 31.5312C42.1354 30.9271 42.875 30.625 43.75 30.625C44.625 30.625 45.3646 30.9271 45.9688 31.5312C46.5729 32.1354 46.875 32.875 46.875 33.75C46.875 34.625 46.5729 35.3646 45.9688 35.9688C45.3646 36.5729 44.625 36.875 43.75 36.875C42.875 36.875 42.1354 36.5729 41.5312 35.9688Z" fill="url(#paint0_linear_4175_15379)"/>
<defs>
<linearGradient id="paint0_linear_4175_15379" x1="0" y1="25" x2="52.5" y2="25" gradientUnits="userSpaceOnUse">
<stop stop-color="#01159A"/>
<stop offset="1" stop-color="#3E55F2"/>
</linearGradient>
</defs>
</svg>
