<svg width="67" height="67" viewBox="0 0 67 67" fill="none" xmlns="http://www.w3.org/2000/svg">
<rect width="67" height="67" rx="7.12766" fill="#F3F4FF"/>
<path d="M32.7969 41.0238C32.7969 42.0682 34.1965 42.4134 34.6822 41.4888L39.3399 32.6213C39.6896 31.9554 39.2067 31.1562 38.4546 31.1562H35.4844C34.9321 31.1562 34.4844 30.7085 34.4844 30.1562V25.8578C34.4844 24.8239 33.1071 24.4698 32.6084 25.3754L27.6601 34.3614C27.2931 35.0278 27.7752 35.8437 28.536 35.8437H31.7969C32.3492 35.8437 32.7969 36.2915 32.7969 36.8437V41.0238ZM33.5 52.25C30.9375 52.25 28.5156 51.7578 26.2344 50.7734C23.9531 49.7891 21.9609 48.4453 20.2578 46.7422C18.5547 45.0391 17.2109 43.0469 16.2266 40.7656C15.2422 38.4844 14.75 36.0625 14.75 33.5C14.75 30.9062 15.2422 28.4687 16.2266 26.1875C17.2109 23.9062 18.5547 21.9219 20.2578 20.2344C21.9609 18.5469 23.9531 17.2109 26.2344 16.2266C28.5156 15.2422 30.9375 14.75 33.5 14.75C36.0937 14.75 38.5312 15.2422 40.8125 16.2266C43.0937 17.2109 45.0781 18.5469 46.7656 20.2344C48.4531 21.9219 49.7891 23.9062 50.7734 26.1875C51.7578 28.4687 52.25 30.9062 52.25 33.5C52.25 36.0625 51.7578 38.4844 50.7734 40.7656C49.7891 43.0469 48.4531 45.0391 46.7656 46.7422C45.0781 48.4453 43.0937 49.7891 40.8125 50.7734C38.5312 51.7578 36.0937 52.25 33.5 52.25Z" fill="url(#paint0_linear_2023_1170)"/>
<defs>
<linearGradient id="paint0_linear_2023_1170" x1="14.75" y1="33.5" x2="52.25" y2="33.5" gradientUnits="userSpaceOnUse">
<stop stop-color="#01159A"/>
<stop offset="1" stop-color="#3E55F2"/>
</linearGradient>
</defs>
</svg>
