<svg width="48" height="55" viewBox="0 0 48 55" fill="none" xmlns="http://www.w3.org/2000/svg">
<path d="M7.85714 55C7.30486 55 6.85714 54.5523 6.85714 54V48.2656C6.85714 47.7133 6.40943 47.2656 5.85714 47.2656H0.999999C0.447715 47.2656 0 46.8179 0 46.2656V8.73438C0 8.18209 0.447715 7.73438 1 7.73438H5.85714C6.40943 7.73438 6.85714 7.28666 6.85714 6.73438V1C6.85714 0.447715 7.30486 0 7.85714 0H11C11.5523 0 12 0.447715 12 1V6.73438C12 7.28666 12.4477 7.73438 13 7.73438H17.8571C18.4094 7.73438 18.8571 8.18209 18.8571 8.73438V46.2656C18.8571 46.8179 18.4094 47.2656 17.8571 47.2656H13C12.4477 47.2656 12 47.7133 12 48.2656V54C12 54.5523 11.5523 55 11 55H7.85714ZM37 55C36.4477 55 36 54.5523 36 54V37.9531C36 37.4008 35.5523 36.9531 35 36.9531H30.1429C29.5906 36.9531 29.1429 36.5054 29.1429 35.9531V15.6094C29.1429 15.0571 29.5906 14.6094 30.1429 14.6094H35C35.5523 14.6094 36 14.1617 36 13.6094V1C36 0.447715 36.4477 0 37 0H40.1429C40.6951 0 41.1429 0.447715 41.1429 1V13.6094C41.1429 14.1617 41.5906 14.6094 42.1429 14.6094H47C47.5523 14.6094 48 15.0571 48 15.6094V35.9531C48 36.5054 47.5523 36.9531 47 36.9531H42.1429C41.5906 36.9531 41.1429 37.4008 41.1429 37.9531V54C41.1429 54.5523 40.6951 55 40.1429 55H37Z" fill="url(#paint0_linear_2025_9940)"/>
<defs>
<linearGradient id="paint0_linear_2025_9940" x1="0" y1="27.5" x2="48" y2="27.5" gradientUnits="userSpaceOnUse">
<stop stop-color="#01159A"/>
<stop offset="1" stop-color="#3E55F2"/>
</linearGradient>
</defs>
</svg>
