<svg width="74" height="68" viewBox="0 0 74 68" fill="none" xmlns="http://www.w3.org/2000/svg">
<path fill-rule="evenodd" clip-rule="evenodd" d="M47.8 10C46.8059 10 46 10.8059 46 11.8V50.4C46 50.9523 46.4477 51.4 47 51.4H57.6C58.1523 51.4 58.6 50.9523 58.6 50.4V11.8C58.6 10.8059 57.7941 10 56.8 10H47.8ZM32.8 17.8C31.8059 17.8 31 18.6059 31 19.6V50.4C31 50.9523 31.4477 51.4 32 51.4H42.6C43.1523 51.4 43.6 50.9523 43.6 50.4V19.6C43.6 18.6059 42.7941 17.8 41.8 17.8H32.8ZM11.8 53.2C10.8059 53.2 10 54.0059 10 55V56.2C10 57.1941 10.8059 58 11.8 58H62.2C63.1941 58 64 57.1941 64 56.2V55C64 54.0059 63.1941 53.2 62.2 53.2H11.8ZM16 26.8C16 25.8059 16.8059 25 17.8 25H26.8C27.7941 25 28.6 25.8059 28.6 26.8V50.4C28.6 50.9523 28.1523 51.4 27.6 51.4H17C16.4477 51.4 16 50.9523 16 50.4V26.8Z" fill="url(#paint0_linear_2023_947)"/>
<defs>
<linearGradient id="paint0_linear_2023_947" x1="10" y1="34" x2="64" y2="34" gradientUnits="userSpaceOnUse">
<stop stop-color="#01159A"/>
<stop offset="1" stop-color="#3E55F2"/>
</linearGradient>
</defs>
</svg>
