<svg width="47" height="51" viewBox="0 0 47 51" fill="none" xmlns="http://www.w3.org/2000/svg">
<path d="M38.7847 17.2881C38.7847 17.266 38.8028 17.2481 38.8248 17.2483C41.0662 17.2718 42.8671 19.2591 42.8671 21.7198V46.326C42.8671 46.8532 43.3606 47.2722 43.8877 47.2722C45.0109 47.2722 46.2934 46.4594 46.2934 45.3362V21.7997C46.2934 17.2481 42.8671 13.4951 38.7118 13.4951H33.122C32.0994 13.4951 31.276 14.3889 31.276 15.4116C31.276 16.4342 32.0994 17.328 33.122 17.328H38.7448C38.7669 17.328 38.7847 17.3101 38.7847 17.2881Z" fill="url(#paint0_linear_2025_7660)"/>
<path d="M6.88606 49.062C6.91483 49.0397 6.94163 49.0149 6.96618 48.9881C6.99014 48.9618 7.01624 48.9376 7.04435 48.9158C7.08534 48.8841 7.12635 48.8529 7.1674 48.8222C7.9749 48.2187 8.60599 47.3322 8.60599 46.3241V34.3579C8.60599 33.7261 8.18362 33.1702 7.60412 32.9184C6.52254 32.4485 5.17969 33.1665 5.17969 34.3457V48.2607C5.17969 49.1264 6.17484 49.6138 6.85879 49.0832L6.88606 49.062Z" fill="url(#paint1_linear_2025_7660)"/>
<path d="M14.1457 37.291C13.8541 37.291 13.5625 37.5306 13.5625 37.9298V44.3179C13.5625 44.6373 13.7812 44.9567 14.1457 44.9567H18.8842C19.1758 44.9567 19.4674 44.7172 19.4674 44.3179V37.9298C19.4674 37.6104 19.2487 37.291 18.8842 37.291H14.1457Z" fill="url(#paint2_linear_2025_7660)"/>
<path d="M22.8203 33.7775V44.3179C22.8203 44.6373 23.039 44.9567 23.4035 44.9567H28.142C28.4336 44.9567 28.7252 44.7171 28.7252 44.3179V33.7775C28.7252 33.4581 28.5065 33.1387 28.142 33.1387H23.4035C23.039 33.1387 22.8203 33.4581 22.8203 33.7775Z" fill="url(#paint3_linear_2025_7660)"/>
<path d="M32.6613 28.9863C32.3697 28.9863 32.0781 29.2259 32.0781 29.6251V44.3976C32.0781 44.717 32.2968 45.0364 32.6613 45.0364H37.3998C37.6914 45.0364 37.983 44.7969 37.983 44.3976V29.6251C37.983 29.3057 37.7643 28.9863 37.3998 28.9863H32.6613Z" fill="url(#paint4_linear_2025_7660)"/>
<path d="M13.9968 30.6629C21.7242 30.6629 27.9936 23.7957 27.9936 15.3315C27.9936 6.86722 21.7242 0 13.9968 0C6.26941 0 0 6.86722 0 15.3315C0.0729001 23.7957 6.26941 30.6629 13.9968 30.6629ZM14.58 16.7688H13.5594C11.3724 16.7688 9.40411 15.0121 9.18541 12.6165C9.02695 10.8229 9.82532 9.23891 11.0813 8.35055C11.9132 7.76218 12.6846 6.92792 12.6846 5.909C12.6846 5.66945 12.8304 5.50974 13.0491 5.50974H14.9445C15.1632 5.50974 15.309 5.66945 15.309 5.909C15.309 6.92476 16.0869 7.75684 16.9099 8.35212C17.9339 9.09274 18.6591 10.3227 18.8082 11.7382C18.8082 11.9777 18.6624 12.1374 18.4437 12.1374H16.5483C16.4025 12.1374 16.2567 12.0576 16.1838 11.818C16.038 11.0195 15.3819 10.3008 14.58 10.3008H13.4865C12.6846 10.3008 11.9556 10.8598 11.8098 11.7382C11.664 12.8561 12.393 13.8143 13.4136 13.8143H14.58C17.0586 13.8143 18.954 16.13 18.7353 18.8449C18.5893 20.2314 17.8905 21.3687 16.8995 22.0901C16.0326 22.7212 15.2361 23.6017 15.2361 24.6741C15.2361 24.9136 15.0903 25.0733 14.8716 25.0733H12.9762C12.7575 25.0733 12.6117 24.9136 12.6117 24.6741C12.6117 23.6121 11.7951 22.7423 10.9466 22.1037C9.95655 21.3586 9.25849 20.1508 9.11251 18.7651C9.11251 18.5255 9.25831 18.3658 9.47701 18.3658H11.3724C11.5182 18.3658 11.664 18.4457 11.7369 18.6852C11.8827 19.4837 12.5388 20.2024 13.3407 20.2024H14.4342C15.2361 20.2024 15.9651 19.6434 16.1109 18.7651C16.3296 17.727 15.6006 16.7688 14.58 16.7688Z" fill="url(#paint5_linear_2025_7660)"/>
<defs>
<linearGradient id="paint0_linear_2025_7660" x1="31.2031" y1="30.6632" x2="46.2934" y2="30.6632" gradientUnits="userSpaceOnUse">
<stop stop-color="#01159A"/>
<stop offset="1" stop-color="#3E55F2"/>
</linearGradient>
<linearGradient id="paint1_linear_2025_7660" x1="5.17969" y1="40.9635" x2="8.60599" y2="40.9635" gradientUnits="userSpaceOnUse">
<stop stop-color="#01159A"/>
<stop offset="1" stop-color="#3E55F2"/>
</linearGradient>
<linearGradient id="paint2_linear_2025_7660" x1="13.5625" y1="41.1239" x2="19.4674" y2="41.1239" gradientUnits="userSpaceOnUse">
<stop stop-color="#01159A"/>
<stop offset="1" stop-color="#3E55F2"/>
</linearGradient>
<linearGradient id="paint3_linear_2025_7660" x1="22.8203" y1="39.0477" x2="28.7252" y2="39.0477" gradientUnits="userSpaceOnUse">
<stop stop-color="#01159A"/>
<stop offset="1" stop-color="#3E55F2"/>
</linearGradient>
<linearGradient id="paint4_linear_2025_7660" x1="32.0781" y1="37.0114" x2="37.983" y2="37.0114" gradientUnits="userSpaceOnUse">
<stop stop-color="#01159A"/>
<stop offset="1" stop-color="#3E55F2"/>
</linearGradient>
<linearGradient id="paint5_linear_2025_7660" x1="0" y1="15.3315" x2="27.9936" y2="15.3315" gradientUnits="userSpaceOnUse">
<stop stop-color="#01159A"/>
<stop offset="1" stop-color="#3E55F2"/>
</linearGradient>
</defs>
</svg>
