<svg width="67" height="67" viewBox="0 0 67 67" fill="none" xmlns="http://www.w3.org/2000/svg">
<path d="M0 7.12766C0 3.19116 3.19116 0 7.12766 0H59.8723C63.8088 0 67 3.19116 67 7.12766V59.8723C67 63.8088 63.8088 67 59.8723 67H7.12766C3.19116 67 0 63.8088 0 59.8723V7.12766Z" fill="#F3F4FF"/>
<path d="M33.4688 53.4219V50.6094H47.4375V48.0781H40.5V34.2031H47.4375V31.0156C47.4375 27.1406 46.0781 23.8047 43.3594 21.0078C40.6406 18.2109 37.3438 16.8125 33.4688 16.8125C29.5938 16.8125 26.2656 18.2109 23.4844 21.0078C20.7031 23.8047 19.3125 27.1406 19.3125 31.0156V34.2031H26.25V48.0781H19.3125C18.5625 48.0781 17.9062 47.7969 17.3438 47.2344C16.7812 46.6719 16.5 46.0156 16.5 45.2656V31.0156C16.5 28.6803 17.8359 24.4119 17.8359 24.4119C17.8359 24.4119 19.9375 20.538 21.4688 18.9917C23 17.4452 24.8 16.2266 26.8688 15.3359C28.9378 14.4453 31.1409 14 33.4781 14C35.8156 14 38.0078 14.4453 40.0547 15.3359C42.1016 16.2266 43.8758 17.4452 45.3773 18.9917C46.8789 20.538 48.0664 22.3447 48.9398 24.4119C49.8133 26.4791 50.25 28.6803 50.25 31.0156V50.6094C50.25 51.3594 49.9688 52.0156 49.4062 52.5781C48.8438 53.1406 48.1875 53.4219 47.4375 53.4219H33.4688Z" fill="url(#paint0_linear_3866_10688)"/>
<defs>
<linearGradient id="paint0_linear_3866_10688" x1="16.5" y1="33.7109" x2="50.25" y2="33.7109" gradientUnits="userSpaceOnUse">
<stop stop-color="#01159A"/>
<stop offset="1" stop-color="#3E55F2"/>
</linearGradient>
</defs>
</svg>
