<svg width="67" height="67" viewBox="0 0 67 67" fill="none" xmlns="http://www.w3.org/2000/svg">
<rect width="67" height="67" rx="7.12766" fill="#F3F4FF"/>
<path d="M33.4 52C29.0852 50.9135 25.5232 48.438 22.7139 44.5733C19.9046 40.7086 18.5 36.4171 18.5 31.6987V20.3375L33.4 14.75L48.3 20.3375V31.6987C48.3 36.4171 46.8954 40.7086 44.0861 44.5733C41.2768 48.438 37.7148 50.9135 33.4 52ZM29.675 40.825H37.125C37.6527 40.825 38.095 40.6465 38.452 40.2895C38.809 39.9326 38.9875 39.4902 38.9875 38.9625V33.375C38.9875 32.8473 38.809 32.4049 38.452 32.048C38.095 31.691 37.6527 31.5125 37.125 31.5125V29.65C37.125 28.6256 36.7603 27.7487 36.0308 27.0192C35.3013 26.2897 34.4244 25.925 33.4 25.925C32.3756 25.925 31.4987 26.2897 30.7692 27.0192C30.0397 27.7487 29.675 28.6256 29.675 29.65V31.5125C29.1473 31.5125 28.7049 31.691 28.348 32.048C27.991 32.4049 27.8125 32.8473 27.8125 33.375V38.9625C27.8125 39.4902 27.991 39.9326 28.348 40.2895C28.7049 40.6465 29.1473 40.825 29.675 40.825ZM31.5375 31.5125V29.65C31.5375 29.1223 31.716 28.6799 32.073 28.323C32.4299 27.966 32.8723 27.7875 33.4 27.7875C33.9277 27.7875 34.37 27.966 34.727 28.323C35.084 28.6799 35.2625 29.1223 35.2625 29.65V31.5125H31.5375Z" fill="url(#paint0_linear_3852_3414)"/>
<defs>
<linearGradient id="paint0_linear_3852_3414" x1="18.5" y1="33.375" x2="48.3" y2="33.375" gradientUnits="userSpaceOnUse">
<stop stop-color="#01159A"/>
<stop offset="1" stop-color="#3E55F2"/>
</linearGradient>
</defs>
</svg>
