<svg width="34" height="34" viewBox="0 0 34 34" fill="none" xmlns="http://www.w3.org/2000/svg">
<path d="M1.66663 20.0003H6.66663C7.55068 20.0003 8.39853 20.3515 9.02365 20.9766C9.64877 21.6018 9.99996 22.4496 9.99996 23.3337V28.3337C9.99996 29.2177 9.64877 30.0656 9.02365 30.6907C8.39853 31.3158 7.55068 31.667 6.66663 31.667H4.99996C4.1159 31.667 3.26806 31.3158 2.64294 30.6907C2.01782 30.0656 1.66663 29.2177 1.66663 28.3337V16.667C1.66663 12.6887 3.24698 8.87344 6.06002 6.06039C8.87307 3.24734 12.6884 1.66699 16.6666 1.66699C20.6449 1.66699 24.4602 3.24734 27.2732 6.06039C30.0863 8.87344 31.6666 12.6887 31.6666 16.667V28.3337C31.6666 29.2177 31.3154 30.0656 30.6903 30.6907C30.0652 31.3158 29.2173 31.667 28.3333 31.667H26.6666C25.7826 31.667 24.9347 31.3158 24.3096 30.6907C23.6845 30.0656 23.3333 29.2177 23.3333 28.3337V23.3337C23.3333 22.4496 23.6845 21.6018 24.3096 20.9766C24.9347 20.3515 25.7826 20.0003 26.6666 20.0003H31.6666" stroke="url(#paint0_linear_4157_11870)" stroke-width="3.33333" stroke-linecap="round" stroke-linejoin="round"/>
<defs>
<linearGradient id="paint0_linear_4157_11870" x1="16.6666" y1="1.66699" x2="16.6666" y2="31.667" gradientUnits="userSpaceOnUse">
<stop stop-color="#3E55F2"/>
<stop offset="1" stop-color="#01159A"/>
</linearGradient>
</defs>
</svg>
