<svg width="68" height="68" viewBox="0 0 68 68" fill="none" xmlns="http://www.w3.org/2000/svg">
<path d="M32.7407 49.639C32.9406 50.3018 32.4218 50.9616 31.7349 50.8745C27.8158 50.3772 24.4629 48.6719 21.6763 45.7587C18.5596 42.5003 17.0013 38.5809 17.0013 34.0003C17.0013 29.2781 18.6541 25.2642 21.9596 21.9587C25.2652 18.6531 29.2791 17.0003 34.0013 17.0003C38.5819 17.0003 42.5013 18.5587 45.7596 21.6753C48.6712 24.4603 50.3761 27.8297 50.8746 31.7835C50.9619 32.4762 50.2913 32.9958 49.6258 32.7845L47.1187 31.9886C46.7625 31.8755 46.502 31.5724 46.423 31.2071C45.8266 28.4494 44.4485 26.134 42.2888 24.2607C39.9749 22.2538 37.2124 21.2503 34.0013 21.2503C30.4596 21.2503 27.4492 22.4899 24.9701 24.9691C22.4909 27.4482 21.2513 30.4587 21.2513 34.0003C21.2513 37.1642 22.2548 39.9149 24.2617 42.2524C26.1327 44.4316 28.4449 45.8207 31.1984 46.4198C31.5687 46.5003 31.8746 46.7671 31.984 47.1299L32.7407 49.639ZM36.1924 61.0354C36.3786 61.6353 35.9719 62.2576 35.3448 62.2943C35.322 62.2957 35.2991 62.297 35.2763 62.2982C34.8513 62.3219 34.4263 62.3337 34.0013 62.3337C30.0819 62.3337 26.3985 61.5899 22.9513 60.1024C19.5041 58.6149 16.5055 56.5962 13.9555 54.0462C11.4055 51.4962 9.38672 48.4975 7.89922 45.0503C6.41172 41.6031 5.66797 37.9198 5.66797 34.0003C5.66797 30.0809 6.41172 26.3975 7.89922 22.9503C9.38672 19.5031 11.4055 16.5045 13.9555 13.9545C16.5055 11.4045 19.5041 9.38574 22.9513 7.89824C26.3985 6.41074 30.0819 5.66699 34.0013 5.66699C37.9207 5.66699 41.6041 6.41074 45.0513 7.89824C48.4985 9.38574 51.4971 11.4045 54.0471 13.9545C56.5971 16.5045 58.6159 19.5031 60.1034 22.9503C61.5909 26.3975 62.3346 30.0809 62.3346 34.0003C62.3346 34.4253 62.3228 34.8503 62.2992 35.2753C62.298 35.2982 62.2966 35.321 62.2953 35.3438C62.2586 35.9709 61.6363 36.3776 61.0364 36.1914L58.7882 35.4937C58.3698 35.3638 58.0846 34.9767 58.0846 34.5386V34.0003C58.0846 27.2948 55.7471 21.6045 51.0721 16.9295C46.3971 12.2545 40.7069 9.91699 34.0013 9.91699C27.2957 9.91699 21.6055 12.2545 16.9305 16.9295C12.2555 21.6045 9.91797 27.2948 9.91797 34.0003C9.91797 40.7059 12.2555 46.3962 16.9305 51.0712C21.6055 55.7462 27.2957 58.0837 34.0013 58.0837H34.5396C34.9777 58.0837 35.3648 58.3688 35.4947 58.7873L36.1924 61.0354ZM58.8626 63.0432C58.472 63.4337 57.8389 63.4337 57.4484 63.0432L47.1896 52.7845C46.6634 52.2582 45.7672 52.4707 45.5332 53.1773L43.4977 59.3247C43.1904 60.2526 41.8714 60.2339 41.5905 59.2977L34.5349 35.7791C34.3061 35.0163 35.0173 34.3051 35.7801 34.534L59.2987 41.5895C60.2349 41.8704 60.2536 43.1894 59.3257 43.4967L53.1782 45.5322C52.4717 45.7662 52.2592 46.6624 52.7855 47.1887L63.0442 57.4474C63.4347 57.8379 63.4347 58.4711 63.0442 58.8616L58.8626 63.0432Z" fill="url(#paint0_linear_2025_9957)"/>
<defs>
<linearGradient id="paint0_linear_2025_9957" x1="5.66797" y1="34.7087" x2="63.7513" y2="34.7087" gradientUnits="userSpaceOnUse">
<stop stop-color="#01159A"/>
<stop offset="1" stop-color="#3E55F2"/>
</linearGradient>
</defs>
</svg>
