<svg width="40" height="40" viewBox="0 0 40 40" fill="none" xmlns="http://www.w3.org/2000/svg">
<path d="M21.3841 3.6336C20.9498 3.43552 20.4781 3.33301 20.0008 3.33301C19.5234 3.33301 19.0517 3.43552 18.6174 3.6336L4.33409 10.1336C4.03834 10.264 3.78689 10.4776 3.61036 10.7484C3.43383 11.0191 3.33984 11.3354 3.33984 11.6586C3.33984 11.9818 3.43383 12.2981 3.61036 12.5688C3.78689 12.8396 4.03834 13.0532 4.33409 13.1836L18.6341 19.7003C19.0684 19.8984 19.5401 20.0009 20.0174 20.0009C20.4947 20.0009 20.9665 19.8984 21.4008 19.7003L35.7008 13.2003C35.9965 13.0699 36.248 12.8563 36.4245 12.5855C36.601 12.3147 36.695 11.9985 36.695 11.6753C36.695 11.352 36.601 11.0358 36.4245 10.765C36.248 10.4943 35.9965 10.2807 35.7008 10.1503L21.3841 3.6336Z" stroke="url(#paint0_linear_2025_18657)" stroke-width="3.33333" stroke-linecap="round" stroke-linejoin="round"/>
<path d="M3.33204 20C3.33125 20.3188 3.4219 20.6311 3.59323 20.8999C3.76457 21.1687 4.0094 21.3828 4.2987 21.5167L18.632 28.0333C19.064 28.229 19.5328 28.3301 20.007 28.3301C20.4813 28.3301 20.95 28.229 21.382 28.0333L35.682 21.5333C35.977 21.4007 36.2271 21.1852 36.4017 20.9129C36.5763 20.6406 36.6679 20.3234 36.6654 20" stroke="url(#paint1_linear_2025_18657)" stroke-width="3.33333" stroke-linecap="round" stroke-linejoin="round"/>
<path d="M3.33204 28.333C3.33125 28.6518 3.4219 28.9641 3.59323 29.2329C3.76457 29.5017 4.0094 29.7158 4.2987 29.8497L18.632 36.3663C19.064 36.562 19.5328 36.6631 20.007 36.6631C20.4813 36.6631 20.95 36.562 21.382 36.3663L35.682 29.8663C35.977 29.7337 36.2271 29.5182 36.4017 29.2459C36.5763 28.9736 36.6679 28.6564 36.6654 28.333" stroke="url(#paint2_linear_2025_18657)" stroke-width="3.33333" stroke-linecap="round" stroke-linejoin="round"/>
<defs>
<linearGradient id="paint0_linear_2025_18657" x1="3.33984" y1="11.6669" x2="36.695" y2="11.6669" gradientUnits="userSpaceOnUse">
<stop stop-color="#01159A"/>
<stop offset="1" stop-color="#3E55F2"/>
</linearGradient>
<linearGradient id="paint1_linear_2025_18657" x1="3.33203" y1="24.1651" x2="36.6654" y2="24.1651" gradientUnits="userSpaceOnUse">
<stop stop-color="#01159A"/>
<stop offset="1" stop-color="#3E55F2"/>
</linearGradient>
<linearGradient id="paint2_linear_2025_18657" x1="3.33203" y1="32.4981" x2="36.6654" y2="32.4981" gradientUnits="userSpaceOnUse">
<stop stop-color="#01159A"/>
<stop offset="1" stop-color="#3E55F2"/>
</linearGradient>
</defs>
</svg>
