<svg width="48" height="48" viewBox="0 0 48 48" fill="none" xmlns="http://www.w3.org/2000/svg">
<mask id="path-1-inside-1_2025_17204" fill="white">
<path d="M0 14C0 6.26801 6.26801 0 14 0H34C41.732 0 48 6.26801 48 14V34C48 41.732 41.732 48 34 48H14C6.26801 48 0 41.732 0 34V14Z"/>
</mask>
<path d="M0 14C0 6.26801 6.26801 0 14 0H34C41.732 0 48 6.26801 48 14V34C48 41.732 41.732 48 34 48H14C6.26801 48 0 41.732 0 34V14Z" fill="white" fill-opacity="0.05"/>
<path d="M14 0V1H34V0V-1H14V0ZM48 14H47V34H48H49V14H48ZM34 48V47H14V48V49H34V48ZM0 34H1V14H0H-1V34H0ZM14 48V47C6.8203 47 1 41.1797 1 34H0H-1C-1 42.2843 5.71573 49 14 49V48ZM48 34H47C47 41.1797 41.1797 47 34 47V48V49C42.2843 49 49 42.2843 49 34H48ZM34 0V1C41.1797 1 47 6.8203 47 14H48H49C49 5.71573 42.2843 -1 34 -1V0ZM14 0V-1C5.71573 -1 -1 5.71573 -1 14H0H1C1 6.8203 6.8203 1 14 1V0Z" fill="white" fill-opacity="0.1" mask="url(#path-1-inside-1_2025_17204)"/>
<path d="M37.2587 30.6083V34.6083C37.2602 34.9796 37.1841 35.3472 37.0354 35.6874C36.8866 36.0277 36.6684 36.3331 36.3948 36.5841C36.1212 36.8352 35.7981 37.0263 35.4464 37.1452C35.0946 37.2642 34.7219 37.3084 34.352 37.275C30.2491 36.8292 26.308 35.4272 22.8454 33.1816C19.6238 31.1345 16.8925 28.4032 14.8454 25.1816C12.592 21.7032 11.1897 17.743 10.752 13.6216C10.7187 13.2529 10.7625 12.8813 10.8807 12.5305C10.9989 12.1796 11.1888 11.8572 11.4384 11.5838C11.688 11.3104 11.9918 11.0919 12.3304 10.9423C12.6691 10.7928 13.0352 10.7153 13.4054 10.715H17.4054C18.0524 10.7086 18.6798 10.9377 19.1704 11.3597C19.661 11.7816 19.9815 12.3676 20.072 13.0083C20.2409 14.2884 20.554 15.5453 21.0054 16.755C21.1848 17.2322 21.2236 17.7509 21.1172 18.2495C21.0109 18.7481 20.7639 19.2058 20.4054 19.5683L18.712 21.2616C20.6101 24.5997 23.374 27.3636 26.712 29.2616L28.4054 27.5683C28.7679 27.2098 29.2256 26.9628 29.7242 26.8564C30.2228 26.7501 30.7415 26.7889 31.2187 26.9683C32.4284 27.4197 33.6853 27.7328 34.9654 27.9016C35.6131 27.993 36.2046 28.3192 36.6274 28.8183C37.0503 29.3174 37.2749 29.9544 37.2587 30.6083Z" fill="white"/>
</svg>
