<svg width="68" height="68" viewBox="0 0 68 68" fill="none" xmlns="http://www.w3.org/2000/svg">
<path d="M32.9368 47.4418C32.9368 48.4862 34.3365 48.8315 34.8222 47.9068L43.2174 31.9237C43.5671 31.2578 43.0842 30.4587 42.332 30.4587H36.4868C35.9346 30.4587 35.4868 30.0109 35.4868 29.4587V20.4644C35.4868 19.4305 34.1096 19.0764 33.6109 19.982L24.7573 36.0596C24.3903 36.7261 24.8725 37.542 25.6333 37.542H31.9368C32.4891 37.542 32.9368 37.9897 32.9368 38.542V47.4418ZM33.9993 62.3337C30.1271 62.3337 26.4674 61.5899 23.0202 60.1024C19.573 58.6149 16.5625 56.5844 13.9889 54.0107C11.4153 51.4371 9.38477 48.4267 7.89727 44.9795C6.40977 41.5323 5.66602 37.8725 5.66602 34.0003C5.66602 30.0809 6.40977 26.3975 7.89727 22.9503C9.38477 19.5031 11.4153 16.5045 13.9889 13.9545C16.5625 11.4045 19.573 9.38574 23.0202 7.89824C26.4674 6.41074 30.1271 5.66699 33.9993 5.66699C37.9188 5.66699 41.6021 6.41074 45.0493 7.89824C48.4966 9.38574 51.4952 11.4045 54.0452 13.9545C56.5952 16.5045 58.6139 19.5031 60.1014 22.9503C61.5889 26.3975 62.3327 30.0809 62.3327 34.0003C62.3327 37.8725 61.5889 41.5323 60.1014 44.9795C58.6139 48.4267 56.5952 51.4371 54.0452 54.0107C51.4952 56.5844 48.4966 58.6149 45.0493 60.1024C41.6021 61.5899 37.9188 62.3337 33.9993 62.3337Z" fill="url(#paint0_linear_3852_5495)"/>
<defs>
<linearGradient id="paint0_linear_3852_5495" x1="5.66602" y1="34.0003" x2="62.3327" y2="34.0003" gradientUnits="userSpaceOnUse">
<stop stop-color="#01159A"/>
<stop offset="1" stop-color="#3E55F2"/>
</linearGradient>
</defs>
</svg>
