<svg width="40" height="40" viewBox="0 0 40 40" fill="none" xmlns="http://www.w3.org/2000/svg">
<path d="M36.6654 19.9997H32.532C31.8036 19.9981 31.0948 20.2352 30.5139 20.6746C29.933 21.1141 29.512 21.7317 29.3154 22.433L25.3987 36.3663C25.3735 36.4529 25.3208 36.5289 25.2487 36.583C25.1766 36.6371 25.0889 36.6663 24.9987 36.6663C24.9085 36.6663 24.8208 36.6371 24.7487 36.583C24.6766 36.5289 24.6239 36.4529 24.5987 36.3663L15.3987 3.63301C15.3735 3.54646 15.3208 3.47043 15.2487 3.41634C15.1766 3.36225 15.0889 3.33301 14.9987 3.33301C14.9085 3.33301 14.8208 3.36225 14.7487 3.41634C14.6766 3.47043 14.6239 3.54646 14.5987 3.63301L10.682 17.5663C10.4861 18.2649 10.0677 18.8805 9.49014 19.3197C8.91261 19.7589 8.20756 19.9976 7.48203 19.9997H3.33203" stroke="url(#paint0_linear_2025_18676)" stroke-width="3.33333" stroke-linecap="round" stroke-linejoin="round"/>
<defs>
<linearGradient id="paint0_linear_2025_18676" x1="3.33203" y1="19.9997" x2="36.6654" y2="19.9997" gradientUnits="userSpaceOnUse">
<stop stop-color="#01159A"/>
<stop offset="1" stop-color="#3E55F2"/>
</linearGradient>
</defs>
</svg>
