<svg width="56" height="56" viewBox="0 0 56 56" fill="none" xmlns="http://www.w3.org/2000/svg">
<path d="M0 16C0 7.16344 7.16344 0 16 0H40C48.8366 0 56 7.16344 56 16V40C56 48.8366 48.8366 56 40 56H16C7.16344 56 0 48.8366 0 40V16Z" fill="#F8F9FC"/>
<path d="M25.2502 38L24.8502 34.8C24.6335 34.7167 24.4294 34.6167 24.2377 34.5C24.046 34.3833 23.8585 34.2583 23.6752 34.125L20.7002 35.375L17.9502 30.625L20.5252 28.675C20.5085 28.5583 20.5002 28.4458 20.5002 28.3375V27.6625C20.5002 27.5542 20.5085 27.4417 20.5252 27.325L17.9502 25.375L20.7002 20.625L23.6752 21.875C23.8585 21.7417 24.0502 21.6167 24.2502 21.5C24.4502 21.3833 24.6502 21.2833 24.8502 21.2L25.2502 18H30.7502L31.1502 21.2C31.3669 21.2833 31.571 21.3833 31.7627 21.5C31.9544 21.6167 32.1419 21.7417 32.3252 21.875L35.3002 20.625L38.0502 25.375L35.4752 27.325C35.4919 27.4417 35.5002 27.5542 35.5002 27.6625V28.3375C35.5002 28.4458 35.4835 28.5583 35.4502 28.675L38.0252 30.625L35.2752 35.375L32.3252 34.125C32.1419 34.2583 31.9502 34.3833 31.7502 34.5C31.5502 34.6167 31.3502 34.7167 31.1502 34.8L30.7502 38H25.2502ZM27.0002 36H28.9752L29.3252 33.35C29.8419 33.2167 30.321 33.0208 30.7627 32.7625C31.2044 32.5042 31.6085 32.1917 31.9752 31.825L34.4502 32.85L35.4252 31.15L33.2752 29.525C33.3585 29.2917 33.4169 29.0458 33.4502 28.7875C33.4835 28.5292 33.5002 28.2667 33.5002 28C33.5002 27.7333 33.4835 27.4708 33.4502 27.2125C33.4169 26.9542 33.3585 26.7083 33.2752 26.475L35.4252 24.85L34.4502 23.15L31.9752 24.2C31.6085 23.8167 31.2044 23.4958 30.7627 23.2375C30.321 22.9792 29.8419 22.7833 29.3252 22.65L29.0002 20H27.0252L26.6752 22.65C26.1585 22.7833 25.6794 22.9792 25.2377 23.2375C24.796 23.4958 24.3919 23.8083 24.0252 24.175L21.5502 23.15L20.5752 24.85L22.7252 26.45C22.6419 26.7 22.5835 26.95 22.5502 27.2C22.5169 27.45 22.5002 27.7167 22.5002 28C22.5002 28.2667 22.5169 28.525 22.5502 28.775C22.5835 29.025 22.6419 29.275 22.7252 29.525L20.5752 31.15L21.5502 32.85L24.0252 31.8C24.3919 32.1833 24.796 32.5042 25.2377 32.7625C25.6794 33.0208 26.1585 33.2167 26.6752 33.35L27.0002 36ZM28.0502 31.5C29.0169 31.5 29.8419 31.1583 30.5252 30.475C31.2085 29.7917 31.5502 28.9667 31.5502 28C31.5502 27.0333 31.2085 26.2083 30.5252 25.525C29.8419 24.8417 29.0169 24.5 28.0502 24.5C27.0669 24.5 26.2377 24.8417 25.5627 25.525C24.8877 26.2083 24.5502 27.0333 24.5502 28C24.5502 28.9667 24.8877 29.7917 25.5627 30.475C26.2377 31.1583 27.0669 31.5 28.0502 31.5Z" fill="#3E55F2"/>
</svg>
