<svg width="50" height="55" viewBox="0 0 50 55" fill="none" xmlns="http://www.w3.org/2000/svg">
<path d="M11.25 0C14.7917 0 17.5521 1.57292 19.5312 4.71875C21.5104 7.86458 22.5 11.2917 22.5 15C22.5 16.7083 22.3229 18.3333 21.9688 19.875C21.6644 21.1999 21.3215 22.4017 20.9402 23.4805C20.8255 23.8051 20.545 24.041 20.2074 24.1085L3.67588 27.4148C3.23867 27.5023 2.79444 27.2908 2.60785 26.8859C2.08608 25.7535 1.55014 24.302 1 22.5312C0.333333 20.3854 0 17.875 0 15C0 10.7083 1.0625 7.13542 3.1875 4.28125C5.3125 1.42708 8 0 11.25 0ZM14.6875 42.5C11.7292 42.5 9.42708 41.4688 7.78125 39.4062C6.31598 37.57 5.42041 35.4779 5.09452 33.1297C5.02508 32.6294 5.37212 32.175 5.86734 32.0752L20.3564 29.1549C20.8077 29.0639 21.2652 29.2919 21.442 29.7169C21.6584 30.2371 21.8652 30.8002 22.0625 31.4062C22.3542 32.3021 22.5 33.2292 22.5 34.1875C22.5 36.5625 21.7604 38.5417 20.2812 40.125C18.8021 41.7083 16.9375 42.5 14.6875 42.5ZM38.75 12.5C42 12.5 44.6875 13.9271 46.8125 16.7812C48.9375 19.6354 50 23.2083 50 27.5C50 30.375 49.6667 32.8854 49 35.0312C48.4499 36.802 47.9139 38.2535 47.3922 39.3859C47.2056 39.7908 46.7613 40.0023 46.3241 39.9148L29.7926 36.6085C29.455 36.541 29.1745 36.3051 29.0598 35.9805C28.6785 34.9017 28.3356 33.6999 28.0312 32.375C27.6771 30.8333 27.5 29.2083 27.5 27.5C27.5 23.7917 28.4896 20.3646 30.4688 17.2188C32.4479 14.0729 35.2083 12.5 38.75 12.5ZM35.3125 55C33.0625 55 31.1979 54.2083 29.7188 52.625C28.2396 51.0417 27.5 49.0625 27.5 46.6875C27.5 45.7292 27.6458 44.8021 27.9375 43.9062C28.1347 43.3005 28.3415 42.7376 28.5578 42.2175C28.7347 41.7922 29.1925 41.5643 29.644 41.6556L44.071 44.5747C44.5658 44.6748 44.9124 45.129 44.8434 45.6291C44.5197 47.9775 43.6343 50.0699 42.1875 51.9062C40.5625 53.9688 38.2708 55 35.3125 55Z" fill="url(#paint0_linear_4181_24920)"/>
<defs>
<linearGradient id="paint0_linear_4181_24920" x1="0" y1="27.5" x2="50" y2="27.5" gradientUnits="userSpaceOnUse">
<stop stop-color="#01159A"/>
<stop offset="1" stop-color="#3E55F2"/>
</linearGradient>
</defs>
</svg>
