<svg width="56" height="56" viewBox="0 0 56 56" fill="none" xmlns="http://www.w3.org/2000/svg">
<path d="M0 16C0 7.16344 7.16344 0 16 0H40C48.8366 0 56 7.16344 56 16V40C56 48.8366 48.8366 56 40 56H16C7.16344 56 0 48.8366 0 40V16Z" fill="#F8F9FC"/>
<path d="M27 33L29 35C29.197 35.197 29.4308 35.3532 29.6882 35.4598C29.9456 35.5665 30.2214 35.6213 30.5 35.6213C30.7786 35.6213 31.0544 35.5665 31.3118 35.4598C31.5692 35.3532 31.803 35.197 32 35C32.197 34.803 32.3532 34.5692 32.4598 34.3118C32.5665 34.0544 32.6213 33.7786 32.6213 33.5C32.6213 33.2214 32.5665 32.9456 32.4598 32.6882C32.3532 32.4308 32.197 32.197 32 32" stroke="#3E55F2" stroke-width="2" stroke-linecap="round" stroke-linejoin="round"/>
<path d="M30.0002 29.9995L32.5002 32.4995C32.8981 32.8974 33.4376 33.1208 34.0002 33.1208C34.5628 33.1208 35.1024 32.8974 35.5002 32.4995C35.8981 32.1017 36.1215 31.5621 36.1215 30.9995C36.1215 30.4369 35.8981 29.8974 35.5002 29.4995L31.6202 25.6195C31.0577 25.0577 30.2952 24.7422 29.5002 24.7422C28.7052 24.7422 27.9427 25.0577 27.3802 25.6195L26.5002 26.4995C26.1024 26.8974 25.5628 27.1208 25.0002 27.1208C24.4376 27.1208 23.8981 26.8974 23.5002 26.4995C23.1024 26.1017 22.8789 25.5621 22.8789 24.9995C22.8789 24.4369 23.1024 23.8974 23.5002 23.4995L26.3102 20.6895C27.2225 19.7797 28.4121 19.2001 29.6909 19.0425C30.9696 18.8849 32.2644 19.1584 33.3702 19.8195L33.8402 20.0995C34.266 20.3565 34.7723 20.4456 35.2602 20.3495L37.0002 19.9995" stroke="#3E55F2" stroke-width="2" stroke-linecap="round" stroke-linejoin="round"/>
<path d="M37 19L38 30H36" stroke="#3E55F2" stroke-width="2" stroke-linecap="round" stroke-linejoin="round"/>
<path d="M19 19L18 30L24.5 36.5C24.8978 36.8978 25.4374 37.1213 26 37.1213C26.5626 37.1213 27.1022 36.8978 27.5 36.5C27.8978 36.1022 28.1213 35.5626 28.1213 35C28.1213 34.4374 27.8978 33.8978 27.5 33.5" stroke="#3E55F2" stroke-width="2" stroke-linecap="round" stroke-linejoin="round"/>
<path d="M19 20H27" stroke="#3E55F2" stroke-width="2" stroke-linecap="round" stroke-linejoin="round"/>
</svg>
