<svg width="32" height="32" viewBox="0 0 32 32" fill="none" xmlns="http://www.w3.org/2000/svg">
<path d="M0 10C0 4.47715 4.47715 0 10 0H22C27.5228 0 32 4.47715 32 10V22C32 27.5228 27.5228 32 22 32H10C4.47715 32 0 27.5228 0 22V10Z" fill="url(#paint0_linear_4099_4209)"/>
<path d="M13.6 22C12.5889 22 11.7361 21.6528 11.0417 20.9583C10.3472 20.2639 10 19.4111 10 18.4C10 17.9778 10.0722 17.5667 10.2167 17.1667C10.3611 16.7667 10.5667 16.4056 10.8333 16.0833L13.2 13.2333L11.5833 10H20.4167L18.8 13.2333L21.1667 16.0833C21.4333 16.4056 21.6389 16.7667 21.7833 17.1667C21.9278 17.5667 22 17.9778 22 18.4C22 19.4111 21.65 20.2639 20.95 20.9583C20.25 21.6528 19.4 22 18.4 22H13.6ZM16 18.6667C15.6333 18.6667 15.3194 18.5361 15.0583 18.275C14.7972 18.0139 14.6667 17.7 14.6667 17.3333C14.6667 16.9667 14.7972 16.6528 15.0583 16.3917C15.3194 16.1306 15.6333 16 16 16C16.3667 16 16.6806 16.1306 16.9417 16.3917C17.2028 16.6528 17.3333 16.9667 17.3333 17.3333C17.3333 17.7 17.2028 18.0139 16.9417 18.275C16.6806 18.5361 16.3667 18.6667 16 18.6667ZM14.4167 12.6667H17.5833L18.25 11.3333H13.75L14.4167 12.6667ZM13.6 20.6667H18.4C19.0333 20.6667 19.5694 20.4472 20.0083 20.0083C20.4472 19.5694 20.6667 19.0333 20.6667 18.4C20.6667 18.1333 20.6194 17.875 20.525 17.625C20.4306 17.375 20.3 17.15 20.1333 16.95L17.6833 14H14.3333L11.8667 16.9333C11.7 17.1333 11.5694 17.3611 11.475 17.6167C11.3806 17.8722 11.3333 18.1333 11.3333 18.4C11.3333 19.0333 11.5528 19.5694 11.9917 20.0083C12.4306 20.4472 12.9667 20.6667 13.6 20.6667Z" fill="white"/>
<defs>
<linearGradient id="paint0_linear_4099_4209" x1="16" y1="-3.27826e-07" x2="5" y2="32" gradientUnits="userSpaceOnUse">
<stop stop-color="#3E55F2"/>
<stop offset="1" stop-color="#01159A"/>
</linearGradient>
</defs>
</svg>
