<svg xmlns="http://www.w3.org/2000/svg" width="14" height="15" viewBox="0 0 14 15" fill="none">
  <path d="M1.333 8.66873C1.20685 8.66916 1.08316 8.63378 0.976305 8.56671C0.869453 8.49964 0.783825 8.40363 0.729369 8.28983C0.674913 8.17603 0.653865 8.04912 0.668669 7.92383C0.683473 7.79855 0.733523 7.68003 0.813003 7.58206L7.413 0.782062C7.46251 0.724916 7.52998 0.686299 7.60432 0.67255C7.67867 0.658801 7.75549 0.670737 7.82216 0.706398C7.88883 0.742059 7.94139 0.799326 7.97123 0.8688C8.00106 0.938274 8.00639 1.01583 7.98634 1.08873L6.70634 5.10206C6.66859 5.20308 6.65592 5.31174 6.6694 5.41873C6.68288 5.52572 6.72211 5.62785 6.78373 5.71635C6.84535 5.80484 6.92752 5.87707 7.02319 5.92684C7.11885 5.9766 7.22517 6.00241 7.333 6.00206H11.9997C12.1258 6.00163 12.2495 6.03701 12.3564 6.10408C12.4632 6.17115 12.5488 6.26716 12.6033 6.38096C12.6578 6.49476 12.6788 6.62167 12.664 6.74696C12.6492 6.87224 12.5992 6.99076 12.5197 7.08873L5.91967 13.8887C5.87016 13.9459 5.8027 13.9845 5.72835 13.9982C5.654 14.012 5.57719 14.0001 5.51052 13.9644C5.44385 13.9287 5.39128 13.8715 5.36145 13.802C5.33161 13.7325 5.32628 13.655 5.34634 13.5821L6.62634 9.56873C6.66408 9.46771 6.67676 9.35905 6.66328 9.25206C6.6498 9.14507 6.61056 9.04294 6.54894 8.95444C6.48732 8.86595 6.40515 8.79372 6.30949 8.74396C6.21382 8.69419 6.10751 8.66838 5.99967 8.66873H1.333Z" stroke="white" stroke-width="1.33333" stroke-linecap="round" stroke-linejoin="round"/>
</svg>