<svg width="51" height="51" viewBox="0 0 51 51" fill="none" xmlns="http://www.w3.org/2000/svg">
<path fill-rule="evenodd" clip-rule="evenodd" d="M23.8169 9.19229C23.8162 9.19254 23.8154 9.19198 23.8154 9.19119C23.8125 8.77816 23.9735 8.38081 24.2632 8.08636C24.5533 7.79153 24.9487 7.62401 25.3623 7.62067C25.7759 7.61733 26.1739 7.77842 26.4687 8.06852C26.7636 8.35863 26.9311 8.75397 26.9344 9.16757C26.9479 10.8702 28.2261 12.2567 29.6495 13.191C30.2809 13.6054 30.8512 14.1151 31.3381 14.7067C32.4513 16.0593 33.0601 17.7565 33.0605 19.5082C33.0713 19.7202 33.0388 19.9322 32.9651 20.1312C32.8914 20.3303 32.778 20.5123 32.6317 20.6662C32.4855 20.8201 32.3095 20.9426 32.1144 21.0263C31.9193 21.11 31.7092 21.1532 31.497 21.1532C31.2847 21.1532 31.0746 21.11 30.8795 21.0263C30.6845 20.9426 30.5084 20.8201 30.3622 20.6662C30.2159 20.5123 30.1025 20.3303 30.0288 20.1312C29.9551 19.9322 29.9226 19.7202 29.9334 19.5082C29.9331 18.3347 29.4668 17.2093 28.6369 16.3796C27.807 15.5499 26.6816 15.0838 25.5081 15.0838C25.3396 15.0838 25.4677 15.0838 25.4475 15.0838H25.4042C24.2547 15.1102 23.1592 15.5767 22.3436 16.3871C21.9452 16.7784 21.6285 17.2449 21.4119 17.7595C21.1952 18.2742 21.083 18.8267 21.0817 19.3851C21.0817 19.5959 21.0746 19.3448 21.0817 19.486C21.1523 22.6766 23.6631 23.4201 26.1254 24.1534C29.656 25.2015 33.122 26.2294 33.0615 31.5092C33.0458 33.5123 32.245 35.4293 30.8312 36.8484C30.14 37.5409 29.3233 38.0885 28.4291 38.4645C27.7209 38.7623 27.182 39.4137 27.1883 40.1819L27.1889 40.256C27.196 41.1172 26.5035 41.8211 25.6423 41.8281C24.781 41.835 24.0772 41.1424 24.0704 40.2811L24.0699 40.2271C24.0639 39.4607 23.511 38.8214 22.7958 38.5457C21.5873 38.0797 20.5115 37.308 19.679 36.2965C18.5659 34.944 17.957 33.2468 17.9566 31.495C17.977 31.0941 18.1506 30.7163 18.4416 30.4397C18.7326 30.1632 19.1187 30.0089 19.5202 30.0089C19.9216 30.0089 20.3077 30.1632 20.5987 30.4397C20.8897 30.7163 21.0633 31.0941 21.0837 31.495C21.0819 32.3682 21.3391 33.2223 21.8227 33.9494C22.3062 34.6764 22.9945 35.2438 23.8005 35.5796C24.6065 35.9155 25.494 36.0049 26.3508 35.8364C27.2076 35.668 27.9952 35.2493 28.614 34.6332C29.4508 33.7969 29.9266 32.666 29.9395 31.4829C29.9727 28.5515 27.6294 27.8515 25.2407 27.1454C21.695 26.0922 18.0787 25.0199 17.9596 19.5435C17.9596 19.3185 17.9516 19.5092 17.9516 19.3841C17.9532 18.4136 18.1477 17.4532 18.5238 16.5585C18.9 15.6639 19.4502 14.853 20.1426 14.1729C20.9009 13.4208 21.8059 12.8394 22.7966 12.462C23.3927 12.235 23.8389 11.692 23.8337 11.0542L23.8184 9.19338C23.8184 9.19259 23.8177 9.19204 23.8169 9.19229ZM43.5353 7.47289C39.3646 3.30028 33.8761 0.702922 28.005 0.123376C22.1339 -0.45617 16.2435 1.01796 11.3374 4.29458C6.43137 7.5712 2.81324 12.4476 1.09953 18.0928C-0.614188 23.7381 -0.317448 29.8029 1.93918 35.2538C4.19581 40.7048 8.27271 45.2047 13.4752 47.9867C18.6777 50.7687 24.6839 51.6608 30.4703 50.5109C36.2568 49.3609 41.4655 46.2402 45.209 41.6804C48.9524 37.1205 50.999 31.4038 51 25.5041C51.0049 22.1551 50.3479 18.838 49.0669 15.7436C47.7858 12.6493 45.906 9.8385 43.5353 7.47289Z" fill="url(#paint0_linear_2025_7626)"/>
<defs>
<linearGradient id="paint0_linear_2025_7626" x1="0" y1="25.5" x2="51" y2="25.5" gradientUnits="userSpaceOnUse">
<stop stop-color="#01159A"/>
<stop offset="1" stop-color="#3E55F2"/>
</linearGradient>
</defs>
</svg>
