<svg width="32" height="32" viewBox="0 0 32 32" fill="none" xmlns="http://www.w3.org/2000/svg">
<path d="M0 10C0 4.47715 4.47715 0 10 0H22C27.5228 0 32 4.47715 32 10V22C32 27.5228 27.5228 32 22 32H10C4.47715 32 0 27.5228 0 22V10Z" fill="url(#paint0_linear_4099_9133)"/>
<path d="M9.33594 21.3337V20.0003H16.0026V21.3337H9.33594ZM11.3359 19.3337C10.9693 19.3337 10.6554 19.2031 10.3943 18.942C10.1332 18.6809 10.0026 18.367 10.0026 18.0003V12.0003C10.0026 11.6337 10.1332 11.3198 10.3943 11.0587C10.6554 10.7975 10.9693 10.667 11.3359 10.667H20.6693C21.0359 10.667 21.3498 10.7975 21.6109 11.0587C21.872 11.3198 22.0026 11.6337 22.0026 12.0003H11.3359V18.0003H16.0026V19.3337H11.3359ZM21.3359 20.0003V14.667H18.6693V20.0003H21.3359ZM18.3359 21.3337C18.0582 21.3337 17.822 21.2364 17.6276 21.042C17.4332 20.8475 17.3359 20.6114 17.3359 20.3337V14.3337C17.3359 14.0559 17.4332 13.8198 17.6276 13.6253C17.822 13.4309 18.0582 13.3337 18.3359 13.3337H21.6693C21.947 13.3337 22.1832 13.4309 22.3776 13.6253C22.572 13.8198 22.6693 14.0559 22.6693 14.3337V20.3337C22.6693 20.6114 22.572 20.8475 22.3776 21.042C22.1832 21.2364 21.947 21.3337 21.6693 21.3337H18.3359ZM20.0026 16.3337C20.147 16.3337 20.2665 16.2837 20.3609 16.1837C20.4554 16.0837 20.5026 15.967 20.5026 15.8337C20.5026 15.6892 20.4554 15.5698 20.3609 15.4753C20.2665 15.3809 20.147 15.3337 20.0026 15.3337C19.8693 15.3337 19.7526 15.3809 19.6526 15.4753C19.5526 15.5698 19.5026 15.6892 19.5026 15.8337C19.5026 15.967 19.5526 16.0837 19.6526 16.1837C19.7526 16.2837 19.8693 16.3337 20.0026 16.3337Z" fill="white"/>
<defs>
<linearGradient id="paint0_linear_4099_9133" x1="16" y1="-3.27826e-07" x2="5" y2="32" gradientUnits="userSpaceOnUse">
<stop stop-color="#3E55F2"/>
<stop offset="1" stop-color="#01159A"/>
</linearGradient>
</defs>
</svg>
