<svg xmlns="http://www.w3.org/2000/svg" width="16" height="16" viewBox="0 0 16 16" fill="none">
  <path d="M11.9974 2.66602H3.9974C3.26102 2.66602 2.66406 3.26297 2.66406 3.99935V11.9993C2.66406 12.7357 3.26102 13.3327 3.9974 13.3327H11.9974C12.7338 13.3327 13.3307 12.7357 13.3307 11.9993V3.99935C13.3307 3.26297 12.7338 2.66602 11.9974 2.66602Z" stroke="white" stroke-width="1.33333" stroke-linecap="round" stroke-linejoin="round"/>
  <path d="M9.33333 6H6.66667C6.29848 6 6 6.29848 6 6.66667V9.33333C6 9.70152 6.29848 10 6.66667 10H9.33333C9.70152 10 10 9.70152 10 9.33333V6.66667C10 6.29848 9.70152 6 9.33333 6Z" stroke="white" stroke-width="1.33333" stroke-linecap="round" stroke-linejoin="round"/>
  <path d="M10 1.33301V2.66634" stroke="white" stroke-width="1.33333" stroke-linecap="round" stroke-linejoin="round"/>
  <path d="M10 13.333V14.6663" stroke="white" stroke-width="1.33333" stroke-linecap="round" stroke-linejoin="round"/>
  <path d="M1.33594 10H2.66927" stroke="white" stroke-width="1.33333" stroke-linecap="round" stroke-linejoin="round"/>
  <path d="M1.33594 6H2.66927" stroke="white" stroke-width="1.33333" stroke-linecap="round" stroke-linejoin="round"/>
  <path d="M13.3359 10H14.6693" stroke="white" stroke-width="1.33333" stroke-linecap="round" stroke-linejoin="round"/>
  <path d="M13.3359 6H14.6693" stroke="white" stroke-width="1.33333" stroke-linecap="round" stroke-linejoin="round"/>
  <path d="M6 1.33301V2.66634" stroke="white" stroke-width="1.33333" stroke-linecap="round" stroke-linejoin="round"/>
  <path d="M6 13.333V14.6663" stroke="white" stroke-width="1.33333" stroke-linecap="round" stroke-linejoin="round"/>
</svg>