<svg width="47" height="49" viewBox="0 0 47 49" fill="none" xmlns="http://www.w3.org/2000/svg">
<path d="M38.7828 16.5252C38.7828 16.5041 38.8001 16.487 38.8211 16.4872C41.0633 16.5086 42.8652 18.4087 42.8652 20.7616V44.2385C42.8652 44.7673 43.357 45.1877 43.8858 45.1877C44.1578 45.1877 44.4383 45.2053 44.7186 45.2434C45.4633 45.3447 46.2915 44.8213 46.2915 44.0698V20.8379C46.2915 16.487 42.8652 12.8994 38.7099 12.8994H32.3277C31.7284 12.8994 31.2592 13.4241 31.2699 14.0233C31.2741 14.2593 31.2741 14.4954 31.2741 14.7314C31.2741 14.9674 31.2741 15.2034 31.2699 15.4394C31.2592 16.0386 31.7284 16.5633 32.3277 16.5633H38.7446C38.7657 16.5633 38.7828 16.5463 38.7828 16.5252Z" fill="url(#paint0_linear_2223_4899)"/>
<path d="M6.88298 46.8998C6.91152 46.8787 6.93821 46.8551 6.96276 46.8294C6.98673 46.8043 7.01272 46.7812 7.04062 46.7606C7.34883 46.5326 7.65777 46.3325 7.98348 46.1602C8.34699 45.9679 8.60257 45.6053 8.60257 45.194V32.569C8.60257 32.1301 8.3147 31.7465 7.90483 31.5895C7.52604 31.4444 7.15576 31.2796 6.79624 31.0999C6.08 30.742 5.17627 31.2292 5.17627 32.0299V46.179C5.17627 47.0005 6.11209 47.4716 6.77198 46.9822L6.88298 46.8998Z" fill="url(#paint1_linear_2223_4899)"/>
<path d="M14.1428 35.6475C13.8512 35.6475 13.5596 35.8765 13.5596 36.2581V42.3647C13.5596 42.67 13.7783 42.9753 14.1428 42.9753H18.8813C19.1729 42.9753 19.4645 42.7463 19.4645 42.3647V36.2581C19.4645 35.9528 19.2458 35.6475 18.8813 35.6475H14.1428Z" fill="url(#paint2_linear_2223_4899)"/>
<path d="M22.8179 32.2884V42.3642C22.8179 42.6695 23.0366 42.9748 23.4011 42.9748H28.1396C28.4312 42.9748 28.7228 42.7458 28.7228 42.3642V32.2884C28.7228 31.9831 28.5041 31.6777 28.1396 31.6777H23.4011C23.0366 31.6777 22.8179 31.9831 22.8179 32.2884Z" fill="url(#paint3_linear_2223_4899)"/>
<path d="M32.6594 27.709C32.3678 27.709 32.0762 27.938 32.0762 28.3196V42.441C32.0762 42.7463 32.2949 43.0517 32.6594 43.0517H37.3979C37.6895 43.0517 37.9811 42.8227 37.9811 42.441V28.3196C37.9811 28.0143 37.7624 27.709 37.3979 27.709H32.6594Z" fill="url(#paint4_linear_2223_4899)"/>
<path d="M13.9968 29.3114C21.7242 29.3114 27.9936 22.7469 27.9936 14.6557C27.9936 6.56453 21.7242 0 13.9968 0C6.26941 0 0 6.56453 0 14.6557C0.0729001 22.7469 6.26941 29.3114 13.9968 29.3114ZM14.58 16.0297H13.5594C11.3724 16.0297 9.40411 14.3504 9.18541 12.0604C8.99538 10.0043 10.1814 8.23632 11.8826 7.55779C12.3319 7.37857 12.6846 6.97597 12.6846 6.49221V5.64855C12.6846 5.41955 12.8304 5.26689 13.0491 5.26689H14.9445C15.1632 5.26689 15.309 5.41955 15.309 5.64855V6.48144C15.309 6.96996 15.669 7.37473 16.1219 7.55789C17.5512 8.13594 18.6232 9.54178 18.8082 11.2208C18.8082 11.4498 18.6624 11.6024 18.4437 11.6024H16.5483C16.4025 11.6024 16.2567 11.5261 16.1838 11.2971C16.038 10.5338 15.3819 9.8468 14.58 9.8468H13.4865C12.6846 9.8468 11.9556 10.3811 11.8098 11.2208C11.664 12.2894 12.393 13.2054 13.4136 13.2054H14.58C17.0586 13.2054 18.954 15.419 18.7353 18.0143C18.5487 19.7075 17.46 21.0118 16.0125 21.5954C15.5735 21.7723 15.2361 22.1699 15.2361 22.6432V23.5865C15.2361 23.8155 15.0903 23.9682 14.8716 23.9682H12.9762C12.7575 23.9682 12.6117 23.8155 12.6117 23.5865V22.6773C12.6117 22.1888 12.2517 21.784 11.7988 21.6008C10.3695 21.0228 9.29753 19.617 9.11251 17.938C9.11251 17.709 9.25831 17.5563 9.47701 17.5563H11.3724C11.5182 17.5563 11.664 17.6326 11.7369 17.8616C11.8827 18.6249 12.5388 19.3119 13.3407 19.3119H14.4342C15.2361 19.3119 15.9651 18.7776 16.1109 17.938C16.3296 16.9456 15.6006 16.0297 14.58 16.0297Z" fill="url(#paint5_linear_2223_4899)"/>
<defs>
<linearGradient id="paint0_linear_2223_4899" x1="31.2012" y1="29.3107" x2="46.2915" y2="29.3107" gradientUnits="userSpaceOnUse">
<stop stop-color="#01159A"/>
<stop offset="1" stop-color="#3E55F2"/>
</linearGradient>
<linearGradient id="paint1_linear_2223_4899" x1="5.17627" y1="39.1585" x2="8.60257" y2="39.1585" gradientUnits="userSpaceOnUse">
<stop stop-color="#01159A"/>
<stop offset="1" stop-color="#3E55F2"/>
</linearGradient>
<linearGradient id="paint2_linear_2223_4899" x1="13.5596" y1="39.3114" x2="19.4645" y2="39.3114" gradientUnits="userSpaceOnUse">
<stop stop-color="#01159A"/>
<stop offset="1" stop-color="#3E55F2"/>
</linearGradient>
<linearGradient id="paint3_linear_2223_4899" x1="22.8179" y1="37.3263" x2="28.7228" y2="37.3263" gradientUnits="userSpaceOnUse">
<stop stop-color="#01159A"/>
<stop offset="1" stop-color="#3E55F2"/>
</linearGradient>
<linearGradient id="paint4_linear_2223_4899" x1="32.0762" y1="35.3803" x2="37.9811" y2="35.3803" gradientUnits="userSpaceOnUse">
<stop stop-color="#01159A"/>
<stop offset="1" stop-color="#3E55F2"/>
</linearGradient>
<linearGradient id="paint5_linear_2223_4899" x1="0" y1="14.6557" x2="27.9936" y2="14.6557" gradientUnits="userSpaceOnUse">
<stop stop-color="#01159A"/>
<stop offset="1" stop-color="#3E55F2"/>
</linearGradient>
</defs>
</svg>
