<svg width="54" height="48" viewBox="0 0 54 48" fill="none" xmlns="http://www.w3.org/2000/svg">
<path fill-rule="evenodd" clip-rule="evenodd" d="M37.8 0C36.8059 0 36 0.80586 36 1.8V40.4C36 40.9523 36.4477 41.4 37 41.4H47.6C48.1523 41.4 48.6 40.9523 48.6 40.4V1.8C48.6 0.80586 47.7941 0 46.8 0H37.8ZM22.8 7.8C21.8059 7.8 21 8.60586 21 9.6V40.4C21 40.9523 21.4477 41.4 22 41.4H32.6C33.1523 41.4 33.6 40.9523 33.6 40.4V9.6C33.6 8.60586 32.7941 7.8 31.8 7.8H22.8ZM1.8 43.2C0.80589 43.2 0 44.0059 0 45V46.2C0 47.1941 0.80589 48 1.8 48H52.2C53.1941 48 54 47.1941 54 46.2V45C54 44.0059 53.1941 43.2 52.2 43.2H1.8ZM6 16.8C6 15.8059 6.80586 15 7.8 15H16.8C17.7941 15 18.6 15.8059 18.6 16.8V40.4C18.6 40.9523 18.1523 41.4 17.6 41.4H7C6.44771 41.4 6 40.9523 6 40.4V16.8Z" fill="url(#paint0_linear_2596_9830)"/>
<defs>
<linearGradient id="paint0_linear_2596_9830" x1="0" y1="24" x2="54" y2="24" gradientUnits="userSpaceOnUse">
<stop stop-color="#01159A"/>
<stop offset="1" stop-color="#3E55F2"/>
</linearGradient>
</defs>
</svg>
