<svg width="48" height="48" viewBox="0 0 48 48" fill="none" xmlns="http://www.w3.org/2000/svg">
<path d="M9 42C8.2 42 7.5 41.7 6.9 41.1C6.3 40.5 6 39.8 6 39V9C6 8.2 6.3 7.5 6.9 6.9C7.5 6.3 8.2 6 9 6H39C39.8 6 40.5 6.3 41.1 6.9C41.7 7.5 42 8.2 42 9V39C42 39.8 41.7 40.5 41.1 41.1C40.5 41.7 39.8 42 39 42H9ZM39 20.5776C39 19.2389 37.3815 18.5685 36.4349 19.5151L30.1612 25.7888C28.1392 27.8108 24.8608 27.8108 22.8388 25.7888L22.075 25.025C19.6311 22.5811 15.6689 22.5811 13.225 25.025L9.4401 28.8099C9.15831 29.0917 9 29.4739 9 29.8724C9 31.2111 10.6185 31.8815 11.5651 30.9349L15.1165 27.3835C16.5157 25.9843 18.7843 25.9843 20.1835 27.3835L22.075 29.275C24.5189 31.7189 28.4811 31.7189 30.925 29.275L38.5599 21.6401C38.8417 21.3583 39 20.9761 39 20.5776Z" fill="url(#paint0_linear_2025_7822)"/>
<defs>
<linearGradient id="paint0_linear_2025_7822" x1="6" y1="24" x2="42" y2="24" gradientUnits="userSpaceOnUse">
<stop stop-color="#01159A"/>
<stop offset="1" stop-color="#3E55F2"/>
</linearGradient>
</defs>
</svg>
