<svg width="47" height="48" viewBox="0 0 47 48" fill="none" xmlns="http://www.w3.org/2000/svg">
<path d="M38.783 16.2937C38.783 16.2729 38.8 16.256 38.8208 16.2562C41.0632 16.2771 42.8654 18.1506 42.8654 20.4707V43.604C42.8654 44.1333 43.3567 44.5542 43.886 44.5542C44.1608 44.5542 44.4441 44.5719 44.7273 44.6103C45.4695 44.7109 46.2917 44.1885 46.2917 43.4395V20.5459C46.2917 16.256 42.8654 12.7188 38.7101 12.7188H32.3297C31.7298 12.7188 31.26 13.2447 31.2704 13.8445C31.2743 14.0713 31.2743 14.2982 31.2743 14.525C31.2743 14.7519 31.2743 14.9787 31.2704 15.2055C31.26 15.8054 31.7298 16.3313 32.3297 16.3313H38.7453C38.7661 16.3313 38.783 16.3144 38.783 16.2937Z" fill="url(#paint0_linear_2223_4898)"/>
<path d="M6.88283 46.242C6.91131 46.2212 6.93797 46.198 6.96251 46.1726C6.98648 46.1479 7.01245 46.1251 7.04028 46.1048C7.34708 45.8811 7.65459 45.6845 7.97866 45.5152C8.34466 45.3239 8.60233 44.9601 8.60233 44.5471V32.1257C8.60233 31.6853 8.31261 31.3007 7.9007 31.145C7.52075 31.0013 7.14937 30.8382 6.78884 30.6603C6.07345 30.3072 5.17603 30.7946 5.17603 31.5924V45.52C5.17603 46.3385 6.10563 46.8104 6.76631 46.3272L6.88283 46.242Z" fill="url(#paint1_linear_2223_4898)"/>
<path d="M14.1429 35.1475C13.8513 35.1475 13.5597 35.3732 13.5597 35.7496V41.7704C13.5597 42.0715 13.7784 42.3725 14.1429 42.3725H18.8814C19.173 42.3725 19.4646 42.1468 19.4646 41.7704V35.7496C19.4646 35.4485 19.2459 35.1475 18.8814 35.1475H14.1429Z" fill="url(#paint2_linear_2223_4898)"/>
<path d="M22.8178 31.8355V41.77C22.8178 42.071 23.0365 42.3721 23.401 42.3721H28.1395C28.4311 42.3721 28.7227 42.1463 28.7227 41.77V31.8355C28.7227 31.5344 28.504 31.2334 28.1395 31.2334H23.401C23.0365 31.2334 22.8178 31.5344 22.8178 31.8355Z" fill="url(#paint3_linear_2223_4898)"/>
<path d="M32.6594 27.3203C32.3678 27.3203 32.0762 27.5461 32.0762 27.9224V41.8457C32.0762 42.1468 32.2949 42.4478 32.6594 42.4478H37.3979C37.6895 42.4478 37.9811 42.222 37.9811 41.8457V27.9224C37.9811 27.6214 37.7624 27.3203 37.3979 27.3203H32.6594Z" fill="url(#paint4_linear_2223_4898)"/>
<path d="M13.9968 28.9003C21.7242 28.9003 27.9936 22.4278 27.9936 14.4501C27.9936 6.47246 21.7242 0 13.9968 0C6.26941 0 0 6.47246 0 14.4501C0.0729001 22.4278 6.26941 28.9003 13.9968 28.9003ZM14.58 15.8049H13.5594C11.3724 15.8049 9.40411 14.1491 9.18541 11.8913C8.99548 9.86509 10.1801 8.12272 11.8798 7.45289C12.3307 7.27519 12.6846 6.87204 12.6846 6.38735V5.56933C12.6846 5.34354 12.8304 5.19302 13.0491 5.19302H14.9445C15.1632 5.19302 15.309 5.34354 15.309 5.56933V6.37671C15.309 6.86609 15.6701 7.27136 16.1246 7.45296C17.5525 8.02357 18.6233 9.40899 18.8082 11.0634C18.8082 11.2892 18.6624 11.4397 18.4437 11.4397H16.5483C16.4025 11.4397 16.2567 11.3644 16.1838 11.1387C16.038 10.386 15.3819 9.70869 14.58 9.70869H13.4865C12.6846 9.70869 11.9556 10.2355 11.8098 11.0634C11.664 12.1171 12.393 13.0202 13.4136 13.0202H14.58C17.0586 13.0202 18.954 15.2028 18.7353 17.7616C18.5489 19.43 17.4616 20.7153 16.0156 21.2913C15.5749 21.4668 15.2361 21.865 15.2361 22.3393V23.2557C15.2361 23.4815 15.0903 23.632 14.8716 23.632H12.9762C12.7575 23.632 12.6117 23.4815 12.6117 23.2557V22.3731C12.6117 21.8837 12.2506 21.4784 11.7962 21.2968C10.3682 20.7262 9.29742 19.3408 9.11251 17.6864C9.11251 17.4606 9.25831 17.3101 9.47701 17.3101H11.3724C11.5182 17.3101 11.664 17.3853 11.7369 17.6111C11.8827 18.3637 12.5388 19.0411 13.3407 19.0411H14.4342C15.2361 19.0411 15.9651 18.5143 16.1109 17.6864C16.3296 16.708 15.6006 15.8049 14.58 15.8049Z" fill="url(#paint5_linear_2223_4898)"/>
<defs>
<linearGradient id="paint0_linear_2223_4898" x1="31.2014" y1="28.8999" x2="46.2917" y2="28.8999" gradientUnits="userSpaceOnUse">
<stop stop-color="#01159A"/>
<stop offset="1" stop-color="#3E55F2"/>
</linearGradient>
<linearGradient id="paint1_linear_2223_4898" x1="5.17603" y1="38.6093" x2="8.60233" y2="38.6093" gradientUnits="userSpaceOnUse">
<stop stop-color="#01159A"/>
<stop offset="1" stop-color="#3E55F2"/>
</linearGradient>
<linearGradient id="paint2_linear_2223_4898" x1="13.5597" y1="38.76" x2="19.4646" y2="38.76" gradientUnits="userSpaceOnUse">
<stop stop-color="#01159A"/>
<stop offset="1" stop-color="#3E55F2"/>
</linearGradient>
<linearGradient id="paint3_linear_2223_4898" x1="22.8178" y1="36.8027" x2="28.7227" y2="36.8027" gradientUnits="userSpaceOnUse">
<stop stop-color="#01159A"/>
<stop offset="1" stop-color="#3E55F2"/>
</linearGradient>
<linearGradient id="paint4_linear_2223_4898" x1="32.0762" y1="34.8841" x2="37.9811" y2="34.8841" gradientUnits="userSpaceOnUse">
<stop stop-color="#01159A"/>
<stop offset="1" stop-color="#3E55F2"/>
</linearGradient>
<linearGradient id="paint5_linear_2223_4898" x1="0" y1="14.4501" x2="27.9936" y2="14.4501" gradientUnits="userSpaceOnUse">
<stop stop-color="#01159A"/>
<stop offset="1" stop-color="#3E55F2"/>
</linearGradient>
</defs>
</svg>
