<svg width="52" height="52" viewBox="0 0 52 52" fill="none" xmlns="http://www.w3.org/2000/svg">
<circle cx="26" cy="26" r="26" fill="url(#paint0_linear_2025_7652)"/>
<path d="M23.9457 13.3371C23.9457 12.5529 25.0284 10.3799 25.1516 10.135C25.2423 9.95501 25.5035 9.95501 25.5941 10.135C25.7174 10.3804 26.8001 12.5529 26.8001 13.3371C26.8001 14.2259 26.1599 14.9485 25.3726 14.9485C24.5853 14.9485 23.9457 14.2259 23.9457 13.3371ZM28.8213 14.5495C28.5804 14.6248 26.4543 15.2975 25.9629 15.8522C25.6935 16.1558 25.5448 16.5605 25.5448 16.9911C25.5448 17.4211 25.6935 17.8258 25.9629 18.1305C26.2323 18.4346 26.5908 18.6019 26.9717 18.6019C27.3531 18.6019 27.7116 18.4341 27.981 18.13C28.472 17.5758 29.0678 15.1744 29.1345 14.9031C29.159 14.8031 29.1335 14.6967 29.0688 14.6237C29.0041 14.5513 28.9094 14.5231 28.8213 14.5495ZM22.7932 18.1305C23.0626 18.4346 23.4211 18.6025 23.8026 18.6025C24.1835 18.6025 24.542 18.4352 24.8114 18.1311C25.368 17.5022 25.368 16.48 24.8114 15.8522C24.32 15.2975 22.1938 14.6248 21.9535 14.5495C21.8638 14.5231 21.7706 14.5513 21.706 14.6237C21.6413 14.6967 21.6158 14.8036 21.6403 14.9031C21.707 15.175 22.3023 17.5763 22.7932 18.1305ZM28.8066 18.806C28.5657 18.8813 26.4395 19.554 25.9481 20.1082C25.3915 20.7359 25.3915 21.7581 25.9481 22.387C26.2175 22.6911 26.5755 22.8584 26.9569 22.8584C27.3384 22.8584 27.6964 22.6911 27.9663 22.387C28.4572 21.8323 29.053 19.4315 29.1197 19.1602C29.1442 19.0601 29.1187 18.9538 29.0541 18.8808C28.9904 18.8078 28.8957 18.779 28.8066 18.806ZM22.779 22.387C23.0484 22.6911 23.4064 22.8584 23.7878 22.8584C24.1692 22.8584 24.5273 22.6911 24.7967 22.387C25.3528 21.7587 25.3528 20.7365 24.7967 20.1082C24.3052 19.554 22.1791 18.8813 21.9387 18.806C21.8496 18.779 21.7559 18.8078 21.6912 18.8802C21.6265 18.9532 21.6011 19.0601 21.6255 19.1596C21.6922 19.4315 22.2875 21.8323 22.779 22.387ZM26.9503 27.1149C27.3317 27.1149 27.6903 26.9471 27.9597 26.6429C28.4506 26.0887 29.0464 23.688 29.1131 23.4166C29.1376 23.3166 29.1121 23.2103 29.0474 23.1373C28.9833 23.0648 28.8885 23.0361 28.7999 23.0631C28.5591 23.1384 26.4329 23.8104 25.9415 24.3652C25.3848 24.993 25.3848 26.0152 25.9415 26.6441C26.2109 26.9476 26.5694 27.1149 26.9503 27.1149ZM22.7724 26.6429C23.0417 26.9471 23.3998 27.1149 23.7812 27.1149C24.1621 27.1149 24.5206 26.9476 24.79 26.6435C25.3467 26.0146 25.3467 24.9924 24.79 24.3646C24.2986 23.8099 22.1724 23.1378 21.9321 23.0625C21.8435 23.0355 21.7487 23.0642 21.6846 23.1367C21.6199 23.2097 21.5944 23.3166 21.6189 23.4161C21.6856 23.688 22.2809 26.0887 22.7724 26.6429ZM28.803 27.319C28.5621 27.3943 26.436 28.0669 25.944 28.6211C25.3884 29.2495 25.3884 30.2711 25.944 30.9C26.2139 31.2041 26.5719 31.3714 26.9534 31.3714C27.3343 31.3714 27.6928 31.2041 27.9622 30.9C28.4536 30.3452 29.0495 27.9445 29.1162 27.6731C29.1406 27.5731 29.1152 27.4668 29.0505 27.3937C28.9868 27.3207 28.8916 27.2926 28.803 27.319ZM21.9356 27.319C21.846 27.2926 21.7523 27.3207 21.6881 27.3932C21.6235 27.4662 21.598 27.5731 21.6224 27.6726C21.6892 27.9445 22.2845 30.3447 22.7754 30.8994C23.0453 31.2035 23.4033 31.3708 23.7848 31.3708C24.1657 31.3708 24.5242 31.2035 24.7931 30.8994C25.3497 30.2711 25.3497 29.2489 24.7931 28.6206C24.3022 28.0669 22.1765 27.3943 21.9356 27.319ZM28.7964 31.5749C28.5555 31.6502 26.4293 32.3229 25.9374 32.8776C25.3813 33.5054 25.3813 34.5276 25.9374 35.1565C26.2073 35.4606 26.5658 35.6279 26.9467 35.6279C27.3282 35.6279 27.6862 35.46 27.9556 35.1559C28.447 34.6017 29.0428 32.2004 29.1096 31.9291C29.134 31.829 29.1085 31.7227 29.0439 31.6497C28.9792 31.5766 28.885 31.5473 28.7964 31.5749ZM24.7865 32.8776C24.2955 32.3229 22.1694 31.6502 21.929 31.5749C21.8399 31.5473 21.7457 31.5761 21.6815 31.6491C21.6168 31.7221 21.5914 31.829 21.6158 31.9285C21.6825 32.2004 22.2779 34.6011 22.7688 35.1553C23.0382 35.4595 23.3967 35.6273 23.7781 35.6273C24.1591 35.6273 24.5171 35.46 24.7865 35.1559C25.0559 34.8518 25.2046 34.4471 25.2046 34.0165C25.2046 33.5859 25.0559 33.1812 24.7865 32.8776ZM25.3701 35.6216C25.0885 35.6216 24.8608 35.8785 24.8608 36.1965V42.2857C24.8608 42.6036 25.0885 42.8606 25.3701 42.8606C25.6517 42.8606 25.8793 42.6036 25.8793 42.2857V36.1965C25.8793 35.8791 25.6517 35.6216 25.3701 35.6216ZM15.438 22.9447C15.5343 22.9447 15.6305 22.9303 15.7247 22.9021C16.0089 22.8165 16.2457 22.6101 16.3934 22.3226C16.54 22.0352 16.5787 21.7 16.5029 21.3804C16.3715 20.825 15.3234 19.6057 15.1141 19.3665C15.05 19.2935 14.9547 19.2654 14.8671 19.2907C14.779 19.3177 14.7098 19.3964 14.6869 19.4959C14.612 19.8201 14.2443 21.4683 14.3757 22.0231C14.504 22.5652 14.9415 22.9447 15.438 22.9447ZM16.2034 23.2902C15.9009 23.8835 16.0822 24.6446 16.6073 24.9884C16.7743 25.0965 16.9643 25.154 17.1562 25.154C17.5489 25.154 17.914 24.9165 18.1111 24.5331C18.3652 24.0352 18.3887 22.337 18.3907 22.0018C18.3912 21.8978 18.3428 21.8024 18.2634 21.7506C18.1839 21.6983 18.0862 21.6989 18.0072 21.7512C17.7506 21.9214 16.4591 22.7929 16.2034 23.2902ZM14.3981 25.6564C14.5657 25.7645 14.7551 25.8226 14.9476 25.8226C15.3402 25.8226 15.7054 25.5846 15.9019 25.2017C16.205 24.6078 16.0237 23.8461 15.4986 23.504C15.0586 23.2166 13.5538 23.1901 13.2569 23.1878C13.2558 23.1878 13.2553 23.1878 13.2548 23.1878C13.1637 23.1878 13.0796 23.243 13.0343 23.3316C12.9885 23.4207 12.9885 23.5316 13.0348 23.6207C13.1856 23.9099 13.9576 25.3678 14.3981 25.6564ZM16.8986 26.2601C16.595 26.8528 16.7758 27.6145 17.3014 27.9583C17.4684 28.0664 17.6584 28.1239 17.8504 28.1239C18.243 28.1239 18.6087 27.8858 18.8047 27.5024C19.0593 27.0051 19.0828 25.3063 19.0848 24.9712C19.0853 24.8671 19.0369 24.7717 18.9575 24.7199C18.8781 24.6676 18.7798 24.6688 18.7013 24.7205C18.4452 24.8907 17.1527 25.7634 16.8986 26.2601ZM15.0927 28.6246C15.2598 28.7338 15.4497 28.7919 15.6422 28.7919C16.0349 28.7919 16.4 28.5539 16.5961 28.171C16.8991 27.5777 16.7178 26.8166 16.1932 26.4739C15.7527 26.1865 14.2479 26.16 13.951 26.1577C13.95 26.1577 13.9494 26.1577 13.9489 26.1577C13.8578 26.1577 13.7738 26.2123 13.7284 26.3015C13.6826 26.3906 13.6826 26.5015 13.7289 26.5906C13.8797 26.8798 14.6517 28.3383 15.0927 28.6246ZM17.5973 29.2276C17.2943 29.8209 17.475 30.5827 18.0006 30.9264C18.1676 31.0345 18.3576 31.092 18.5496 31.092C18.9422 31.092 19.3074 30.854 19.5039 30.4706C19.7586 29.9733 19.7815 28.2745 19.7835 27.9387C19.784 27.8353 19.7351 27.7398 19.6562 27.6881C19.5768 27.6358 19.4785 27.6363 19.4 27.6887C19.1444 27.8588 17.8529 28.7304 17.5973 29.2276ZM15.7925 31.5939C15.9595 31.702 16.1494 31.7595 16.3414 31.7595C16.7341 31.7595 17.0992 31.522 17.2958 31.1386C17.5983 30.5453 17.4175 29.7841 16.893 29.4409C16.4519 29.1546 14.9471 29.1282 14.6502 29.1259C14.6492 29.1259 14.6487 29.1259 14.6482 29.1259C14.557 29.1259 14.473 29.1811 14.4276 29.2696C14.3813 29.3593 14.3818 29.4697 14.4282 29.5588C14.5789 29.8479 15.3514 31.3053 15.7925 31.5939ZM18.3041 32.1935C18.0006 32.7862 18.1814 33.5479 18.7069 33.8912C18.874 33.9998 19.0639 34.0579 19.2564 34.0579C19.6491 34.0579 20.0147 33.8199 20.2113 33.4364C20.4649 32.9386 20.4883 31.2403 20.4904 30.9052C20.4909 30.8011 20.4425 30.7057 20.363 30.6539C20.2836 30.6016 20.1853 30.6022 20.1069 30.6545C19.8507 30.8253 18.5593 31.6962 18.3041 32.1935ZM16.4983 34.5597C16.6653 34.6684 16.8553 34.7265 17.0478 34.7265C17.4404 34.7265 17.8056 34.4885 18.0021 34.105C18.3046 33.5117 18.1238 32.7506 17.5988 32.4079C17.1583 32.1205 15.6539 32.094 15.357 32.0917C15.356 32.0917 15.3555 32.0917 15.355 32.0917C15.2638 32.0917 15.1798 32.1469 15.1345 32.2355C15.0887 32.3246 15.0887 32.4355 15.135 32.5246C15.2857 32.8138 16.0583 34.2729 16.4983 34.5597ZM20.8061 33.6233C20.5494 33.7934 19.2574 34.6655 19.0028 35.1622C18.7003 35.7549 18.8811 36.5167 19.4062 36.861C19.5732 36.9691 19.7631 37.0266 19.9551 37.0266C20.3478 37.0266 20.7134 36.7886 20.9095 36.4051C21.1641 35.9079 21.1875 34.2091 21.1896 33.8739C21.1901 33.7699 21.1417 33.6744 21.0623 33.6227C20.9833 33.5698 20.885 33.5709 20.8061 33.6233ZM18.2975 35.3755C17.858 35.0886 16.3531 35.0628 16.0557 35.0605C16.0552 35.0605 16.0547 35.0605 16.0542 35.0605C15.9631 35.0605 15.879 35.1157 15.8337 35.2042C15.7879 35.2933 15.7879 35.4043 15.8342 35.4934C15.9844 35.7825 16.757 37.2399 17.1975 37.5285C17.365 37.6366 17.555 37.6946 17.747 37.6946C18.1396 37.6946 18.5048 37.4566 18.7013 37.0737C19.0043 36.4799 18.8236 35.7182 18.2975 35.3755ZM19.7107 37.4865C19.6379 37.1795 19.3588 36.9973 19.0868 37.0801C18.8154 37.1623 18.654 37.4773 18.7268 37.7843L19.7341 42.0282C19.7947 42.2851 20.0005 42.4541 20.2255 42.4541C20.2693 42.4541 20.3137 42.4478 20.358 42.4346C20.6294 42.3524 20.7908 42.0373 20.718 41.7304L19.7107 37.4865ZM35.2757 22.9832C35.3699 23.0114 35.4656 23.0257 35.5624 23.0257C36.0589 23.0257 36.4958 22.6469 36.6252 22.1036C36.7566 21.5494 36.3889 19.9018 36.314 19.577C36.2911 19.4769 36.2219 19.3982 36.1338 19.3717C36.0446 19.3464 35.9504 19.3746 35.8868 19.4476C35.678 19.6868 34.6294 20.9061 34.4985 21.4603C34.4221 21.7811 34.4608 22.1162 34.608 22.4037C34.7547 22.6911 34.9925 22.8969 35.2757 22.9832ZM33.8441 25.2356C34.0361 25.2356 34.2261 25.1781 34.3931 25.0695C34.9182 24.7262 35.0995 23.9651 34.7964 23.3718C34.5413 22.8745 33.2498 22.0024 32.9937 21.8328C32.9152 21.7805 32.817 21.7799 32.7375 21.8323C32.6586 21.884 32.6097 21.9794 32.6102 22.0829C32.6122 22.4186 32.6352 24.1169 32.8898 24.6141C33.0864 24.9976 33.4515 25.2356 33.8441 25.2356ZM37.9661 23.4132C37.9207 23.3247 37.8367 23.2695 37.7456 23.2695C37.7451 23.2695 37.7445 23.2695 37.7435 23.2695C37.4466 23.2718 35.9418 23.2982 35.5018 23.5851C35.2471 23.7512 35.0653 24.0191 34.9884 24.3399C34.9126 24.6607 34.9518 24.9953 35.0989 25.2833C35.2945 25.6662 35.6602 25.9042 36.0523 25.9042C36.2448 25.9042 36.4347 25.8461 36.6018 25.7375C37.0423 25.4506 37.8148 23.9921 37.9656 23.7029C38.0114 23.6133 38.0114 23.5023 37.9661 23.4132ZM33.1495 28.2055C33.342 28.2055 33.532 28.1474 33.699 28.0388C33.9536 27.8732 34.1354 27.6047 34.2123 27.2845C34.2882 26.9637 34.249 26.6286 34.1018 26.3411C33.8477 25.8444 32.5562 24.9717 32.2996 24.8016C32.2211 24.7492 32.1228 24.7487 32.0434 24.801C31.9645 24.8527 31.9156 24.9482 31.9161 25.0516C31.9181 25.3874 31.9405 27.0856 32.1957 27.5835C32.3907 27.9669 32.7569 28.2055 33.1495 28.2055ZM37.0514 26.2394C37.0509 26.2394 37.0504 26.2394 37.0494 26.2394C36.7525 26.2417 35.2482 26.2681 34.8066 26.555C34.2826 26.8982 34.1018 27.6593 34.4043 28.2526C34.6004 28.6355 34.966 28.8735 35.3582 28.8735C35.5507 28.8735 35.7406 28.8154 35.9071 28.7068C36.3487 28.4199 37.1212 26.9614 37.2714 26.6723C37.3178 26.5831 37.3178 26.4722 37.272 26.3831C37.2261 26.294 37.1421 26.2394 37.0514 26.2394ZM32.4503 31.1736C32.6423 31.1736 32.8322 31.1162 32.9998 31.0075C33.5248 30.6637 33.7056 29.902 33.4021 29.3087C33.147 28.812 31.856 27.9405 31.5998 27.7703C31.5209 27.718 31.4226 27.7174 31.3437 27.7697C31.2647 27.8215 31.2159 27.9169 31.2164 28.0204C31.2184 28.3561 31.2413 30.0549 31.4959 30.5522C31.6925 30.9356 32.0582 31.1736 32.4503 31.1736ZM36.3527 29.2075C36.3522 29.2075 36.3517 29.2075 36.3507 29.2075C36.0538 29.2098 34.5489 29.2363 34.1079 29.5231C33.5834 29.8658 33.4021 30.6269 33.7056 31.2202C33.9017 31.6031 34.2668 31.8411 34.6589 31.8411C34.8514 31.8411 35.0414 31.7836 35.2089 31.6744C35.6489 31.3875 36.422 29.9296 36.5727 29.6404C36.6191 29.5513 36.6196 29.4409 36.5732 29.3512C36.5274 29.2627 36.4434 29.2075 36.3527 29.2075ZM31.7445 34.1395C31.9365 34.1395 32.1264 34.0814 32.2934 33.9728C32.819 33.6296 32.9998 32.8678 32.6963 32.2751C32.4411 31.7779 31.1496 30.9057 30.8935 30.7362C30.8151 30.6838 30.7163 30.6833 30.6373 30.7356C30.5579 30.7873 30.5095 30.8828 30.51 30.9868C30.5121 31.322 30.5355 33.0208 30.7896 33.5175C30.9857 33.9009 31.3513 34.1395 31.7445 34.1395ZM35.6454 32.1728C35.6449 32.1728 35.6444 32.1728 35.6433 32.1728C35.3464 32.1751 33.8421 32.2016 33.4016 32.489C32.8765 32.8311 32.6952 33.5922 32.9988 34.1861C33.1948 34.5695 33.5605 34.8075 33.9521 34.8075C34.1441 34.8075 34.3351 34.7495 34.5021 34.6408C34.9426 34.3539 35.7151 32.8954 35.8654 32.6057C35.9117 32.5166 35.9117 32.4056 35.8659 32.3165C35.8206 32.2274 35.7365 32.1728 35.6454 32.1728ZM31.5947 36.9415C32.1188 36.5977 32.2996 35.836 31.9971 35.2427C31.7424 34.746 30.4509 33.8745 30.1943 33.7043C30.1159 33.652 30.0176 33.6514 29.9381 33.7037C29.8587 33.7555 29.8103 33.8509 29.8108 33.955C29.8128 34.2901 29.8363 35.9889 30.0909 36.4862C30.287 36.8697 30.6526 37.1077 31.0453 37.1077C31.2372 37.1077 31.4272 37.0507 31.5947 36.9415ZM34.9462 35.1415C34.9457 35.1415 34.9452 35.1415 34.9446 35.1415C34.6472 35.1438 33.1424 35.1697 32.7029 35.4566C32.1773 35.7992 31.996 36.5609 32.2996 37.1548C32.4956 37.5377 32.8613 37.7751 33.2529 37.7751C33.4449 37.7751 33.6353 37.717 33.8029 37.6084C34.2434 37.3215 35.0159 35.8636 35.1662 35.5744C35.2125 35.4853 35.2125 35.3749 35.1667 35.2853C35.1214 35.1967 35.0373 35.1415 34.9462 35.1415ZM31.9135 37.1617C31.6426 37.0806 31.3625 37.2617 31.2897 37.5682L30.2824 41.812C30.2096 42.1184 30.371 42.434 30.6424 42.5162C30.6867 42.5295 30.731 42.5358 30.7748 42.5358C30.9994 42.5358 31.2057 42.3662 31.2663 42.1098L32.2736 37.8659C32.3459 37.559 32.185 37.2439 31.9135 37.1617Z" fill="white"/>
<defs>
<linearGradient id="paint0_linear_2025_7652" x1="0" y1="26" x2="52" y2="26" gradientUnits="userSpaceOnUse">
<stop stop-color="#01159A"/>
<stop offset="1" stop-color="#3E55F2"/>
</linearGradient>
</defs>
</svg>
