<svg width="50" height="50" viewBox="0 0 50 50" fill="none" xmlns="http://www.w3.org/2000/svg">
<path fill-rule="evenodd" clip-rule="evenodd" d="M25 0C38.8069 0 50 11.1926 50 24.9989C50 38.8053 38.8069 50 25 50C11.1931 50 0 38.8058 0 24.9989C0 11.192 11.1931 0 25 0ZM25 2.27342C12.4476 2.27342 2.27134 12.4471 2.27134 24.9989C2.27134 25.0983 2.31403 25.1933 2.38577 25.2621L4.28276 27.0805C4.45536 27.2467 4.65564 27.3852 4.87296 27.4896L7.27216 28.6402C7.71536 28.8511 8.07547 29.2026 8.30343 29.6373L9.48601 31.9043C9.59894 32.1238 9.75022 32.324 9.9292 32.4945L10.952 33.4767C11.2226 33.7345 11.5528 33.922 11.9023 34.0541C12.7332 34.3716 14.2866 35.1109 14.7724 36.3233C15.369 37.8126 15.3157 38.4497 16.477 39.5917C18.335 41.4198 20.5701 41.8971 21.3265 42.0121C21.5013 42.0377 21.693 42.0228 21.7846 41.8715C21.9594 41.5817 22.117 40.8126 21.5907 38.7757C21.2328 37.3907 21.2669 36.8986 21.5907 35.5051C21.8784 34.2587 21.9146 33.4746 21.5907 32.2367C20.9068 29.6096 19.2171 28.8063 16.477 28.1501C15.1857 27.8411 14.2589 27.9029 13.0678 27.3319C12.2261 26.9292 11.6615 26.5542 11.3632 25.6977C10.8923 24.3426 12.0152 23.4371 13.0678 22.4272C14.7724 20.7929 15.6247 20.7929 16.477 17.5245C17.3293 14.2561 16.477 12.6198 18.1816 10.9857C19.8861 9.35149 20.7384 12.6199 23.2953 12.6199C25.1789 12.6199 25.3664 11.2755 26.7045 9.35149C28.4091 6.89911 28.4091 4.89203 28.4091 4.89203V3.34945C28.4091 3.25239 28.4028 3.15668 28.3907 3.06269C28.3449 2.70732 28.0265 2.47066 27.6706 2.42903C26.7941 2.32648 25.9035 2.27342 25 2.27342ZM37.7116 6.15512C37.4591 5.98439 37.1333 5.93439 36.8722 6.0917C36.4305 6.35781 36.0733 6.78112 35.8964 7.32306L35.466 8.63126C35.2615 9.24914 34.699 9.67955 34.0469 9.71151C33.6698 9.72856 33.3097 9.8841 33.0348 10.1462L32.468 10.6916C32.0205 11.1199 31.7691 11.7143 31.7691 12.3322V12.5368C31.7691 12.8862 31.6882 13.2313 31.5348 13.5424L30.3223 16.0012C30.1689 16.3144 30.0901 16.6574 30.0901 17.0069V19.0885C30.0901 19.5978 29.8813 20.0857 29.5127 20.4373C28.8713 21.0488 28.7499 22.031 29.225 22.781L29.485 23.1922C29.86 23.7845 30.5162 24.1361 31.2173 24.119C32.272 24.0913 33.1669 24.8946 33.25 25.9493L33.3821 27.5835C33.4247 28.1162 33.6549 28.6169 34.0277 28.9961L34.5647 29.5394C35.662 30.6538 37.5307 30.3512 38.221 28.9492L38.253 28.8832C38.4085 28.5721 38.4874 28.227 38.4874 27.8775V24.2256C38.4874 23.629 38.7239 23.0559 39.1415 22.6318L39.6997 22.0651C40.0044 21.7561 40.3943 21.5388 40.8184 21.4429L45.6658 20.3499C46.0912 20.2549 46.4641 20.0436 46.7529 19.7587C46.9545 19.5599 46.9974 19.2596 46.9226 18.9866C45.4707 13.6854 42.1508 9.1565 37.7116 6.15512Z" fill="url(#paint0_linear_2023_897)"/>
<defs>
<linearGradient id="paint0_linear_2023_897" x1="0" y1="25" x2="50" y2="25" gradientUnits="userSpaceOnUse">
<stop stop-color="#01159A"/>
<stop offset="1" stop-color="#3E55F2"/>
</linearGradient>
</defs>
</svg>
