<svg width="24" height="24" viewBox="0 0 24 24" fill="none" xmlns="http://www.w3.org/2000/svg">
<path d="M12 8V4H8" stroke="url(#paint0_linear_4157_12174)" stroke-width="2" stroke-linecap="round" stroke-linejoin="round"/>
<path d="M18 8H6C4.89543 8 4 8.89543 4 10V18C4 19.1046 4.89543 20 6 20H18C19.1046 20 20 19.1046 20 18V10C20 8.89543 19.1046 8 18 8Z" stroke="url(#paint1_linear_4157_12174)" stroke-width="2" stroke-linecap="round" stroke-linejoin="round"/>
<path d="M2 14H4" stroke="url(#paint2_linear_4157_12174)" stroke-width="2" stroke-linecap="round" stroke-linejoin="round"/>
<path d="M20 14H22" stroke="url(#paint3_linear_4157_12174)" stroke-width="2" stroke-linecap="round" stroke-linejoin="round"/>
<path d="M15 13V15" stroke="url(#paint4_linear_4157_12174)" stroke-width="2" stroke-linecap="round" stroke-linejoin="round"/>
<path d="M9 13V15" stroke="url(#paint5_linear_4157_12174)" stroke-width="2" stroke-linecap="round" stroke-linejoin="round"/>
<defs>
<linearGradient id="paint0_linear_4157_12174" x1="10" y1="4" x2="10" y2="8" gradientUnits="userSpaceOnUse">
<stop stop-color="#3E55F2"/>
<stop offset="1" stop-color="#01159A"/>
</linearGradient>
<linearGradient id="paint1_linear_4157_12174" x1="12" y1="8" x2="12" y2="20" gradientUnits="userSpaceOnUse">
<stop stop-color="#3E55F2"/>
<stop offset="1" stop-color="#01159A"/>
</linearGradient>
<linearGradient id="paint2_linear_4157_12174" x1="3" y1="14" x2="3" y2="15" gradientUnits="userSpaceOnUse">
<stop stop-color="#3E55F2"/>
<stop offset="1" stop-color="#01159A"/>
</linearGradient>
<linearGradient id="paint3_linear_4157_12174" x1="21" y1="14" x2="21" y2="15" gradientUnits="userSpaceOnUse">
<stop stop-color="#3E55F2"/>
<stop offset="1" stop-color="#01159A"/>
</linearGradient>
<linearGradient id="paint4_linear_4157_12174" x1="15.5" y1="13" x2="15.5" y2="15" gradientUnits="userSpaceOnUse">
<stop stop-color="#3E55F2"/>
<stop offset="1" stop-color="#01159A"/>
</linearGradient>
<linearGradient id="paint5_linear_4157_12174" x1="9.5" y1="13" x2="9.5" y2="15" gradientUnits="userSpaceOnUse">
<stop stop-color="#3E55F2"/>
<stop offset="1" stop-color="#01159A"/>
</linearGradient>
</defs>
</svg>
