<svg width="48" height="48" viewBox="0 0 48 48" fill="none" xmlns="http://www.w3.org/2000/svg">
<path d="M5 40C4.175 40 3.46883 39.7062 2.8815 39.1185C2.29383 38.5312 2 37.825 2 37V15.5C2 14.6716 2.67157 14 3.5 14C4.32843 14 5 14.6716 5 15.5V25.5C5 31.8513 10.1487 37 16.5 37H38.5C39.3284 37 40 37.6716 40 38.5C40 39.3284 39.3284 40 38.5 40H5ZM11 34C10.175 34 9.46883 33.7062 8.8815 33.1185C8.29383 32.5312 8 31.825 8 31V11C8 10.175 8.29383 9.46867 8.8815 8.881C9.46883 8.29367 10.175 8 11 8H43C43.825 8 44.5313 8.29367 45.119 8.881C45.7063 9.46867 46 10.175 46 11V31C46 31.825 45.7063 32.5312 45.119 33.1185C44.5313 33.7062 43.825 34 43 34H11ZM13.5 31C14.8807 31 16.077 29.8085 15.416 28.5964C15.1919 28.1853 14.9032 27.8032 14.55 27.45C14.1968 27.0968 13.8147 26.8081 13.4036 26.584C12.1915 25.923 11 27.1193 11 28.5C11 29.8807 12.1193 31 13.5 31ZM38.584 28.5964C37.923 29.8085 39.1193 31 40.5 31C41.8807 31 43 29.8807 43 28.5C43 27.1193 41.8085 25.923 40.5964 26.584C40.1853 26.8081 39.8032 27.0968 39.45 27.45C39.0968 27.8032 38.8081 28.1853 38.584 28.5964ZM27 27C28.6667 27 30.0833 26.4167 31.25 25.25C32.4167 24.0833 33 22.6667 33 21C33 19.3333 32.4167 17.9167 31.25 16.75C30.0833 15.5833 28.6667 15 27 15C25.3333 15 23.9167 15.5833 22.75 16.75C21.5833 17.9167 21 19.3333 21 21C21 22.6667 21.5833 24.0833 22.75 25.25C23.9167 26.4167 25.3333 27 27 27ZM11 13.5C11 14.8807 12.1915 16.077 13.4036 15.416C13.8147 15.1919 14.1968 14.9032 14.55 14.55C14.9032 14.1968 15.1919 13.8147 15.416 13.4036C16.077 12.1915 14.8807 11 13.5 11C12.1193 11 11 12.1193 11 13.5ZM40.5964 15.416C41.8085 16.077 43 14.8807 43 13.5C43 12.1193 41.8807 11 40.5 11C39.1193 11 37.923 12.1915 38.584 13.4036C38.8081 13.8147 39.0968 14.1968 39.45 14.55C39.8032 14.9032 40.1853 15.1919 40.5964 15.416Z" fill="url(#paint0_linear_2025_7817)"/>
<defs>
<linearGradient id="paint0_linear_2025_7817" x1="2" y1="24" x2="46" y2="24" gradientUnits="userSpaceOnUse">
<stop stop-color="#01159A"/>
<stop offset="1" stop-color="#3E55F2"/>
</linearGradient>
</defs>
</svg>
