<svg width="56" height="56" viewBox="0 0 56 56" fill="none" xmlns="http://www.w3.org/2000/svg">
<path d="M0 16C0 7.16344 7.16344 0 16 0H40C48.8366 0 56 7.16344 56 16V40C56 48.8366 48.8366 56 40 56H16C7.16344 56 0 48.8366 0 40V16Z" fill="#F8F9FC"/>
<path d="M19.4 34.4998L18 33.0498L25.5 25.5498L29.5 29.5498L32.4 26.2998C31.55 25.2998 30.55 24.5081 29.4 23.9248C28.25 23.3415 26.9833 23.0498 25.6 23.0498C24.4167 23.0498 23.3 23.2706 22.25 23.7123C21.2 24.154 20.25 24.7498 19.4 25.4998L18 24.0498C19.0333 23.1165 20.1917 22.3831 21.475 21.8498C22.7583 21.3165 24.1333 21.0498 25.6 21.0498C27.2333 21.0498 28.7417 21.379 30.125 22.0373C31.5083 22.6956 32.7167 23.6165 33.75 24.7998L36.6 21.5498L38 22.9998L35 26.3998C35.55 27.2831 35.9958 28.2415 36.3375 29.2748C36.6792 30.3081 36.9 31.3998 37 32.5498H35C34.9 31.7165 34.7292 30.9206 34.4875 30.1623C34.2458 29.404 33.9333 28.6831 33.55 27.9998L29.6 32.4498L25.5 28.3998L19.4 34.4998Z" fill="#3E55F2"/>
</svg>
