<svg width="67" height="67" viewBox="0 0 67 67" fill="none" xmlns="http://www.w3.org/2000/svg">
<rect width="67" height="67" rx="7.12766" fill="#F3F4FF"/>
<path d="M33.0469 44.3281L40.3594 30.4062H34.7344V21.2187L27.0937 35.0937H33.0469V44.3281ZM33.75 51.5C31.1875 51.5 28.7656 51.0078 26.4844 50.0234C24.2031 49.0391 22.2109 47.6953 20.5078 45.9922C18.8047 44.2891 17.4609 42.2969 16.4766 40.0156C15.4922 37.7344 15 35.3125 15 32.75C15 30.1562 15.4922 27.7187 16.4766 25.4375C17.4609 23.1562 18.8047 21.1719 20.5078 19.4844C22.2109 17.7969 24.2031 16.4609 26.4844 15.4766C28.7656 14.4922 31.1875 14 33.75 14C36.3437 14 38.7812 14.4922 41.0625 15.4766C43.3437 16.4609 45.3281 17.7969 47.0156 19.4844C48.7031 21.1719 50.0391 23.1562 51.0234 25.4375C52.0078 27.7187 52.5 30.1562 52.5 32.75C52.5 35.3125 52.0078 37.7344 51.0234 40.0156C50.0391 42.2969 48.7031 44.2891 47.0156 45.9922C45.3281 47.6953 43.3437 49.0391 41.0625 50.0234C38.7812 51.0078 36.3437 51.5 33.75 51.5Z" fill="url(#paint0_linear_3866_10683)"/>
<defs>
<linearGradient id="paint0_linear_3866_10683" x1="15" y1="32.75" x2="52.5" y2="32.75" gradientUnits="userSpaceOnUse">
<stop stop-color="#01159A"/>
<stop offset="1" stop-color="#3E55F2"/>
</linearGradient>
</defs>
</svg>
