<svg width="55" height="35" viewBox="0 0 55 35" fill="none" xmlns="http://www.w3.org/2000/svg">
<path d="M20.198 18.668C21.5444 18.668 22.7261 19.6014 23.0842 20.9526L25.5574 30.2865C26.0826 32.2656 24.6502 34.2231 22.6712 34.2231H2.99557C1.01652 34.2231 -0.415807 32.2656 0.109345 30.2865L2.58256 20.9526C2.94065 19.6014 4.12232 18.668 5.46878 18.668H20.198Z" fill="url(#paint0_linear_2023_978)"/>
<path d="M49.5339 18.668C50.8803 18.668 52.062 19.6014 52.4201 20.9526L54.8933 30.2865C55.4185 32.2656 53.9862 34.2231 52.0071 34.2231H32.3315C30.3525 34.2231 28.9201 32.2656 29.4453 30.2865L31.9185 20.9526C32.2766 19.6014 33.4583 18.668 34.8047 18.668H49.5339Z" fill="url(#paint1_linear_2023_978)"/>
<path d="M35.0168 0C36.3919 0 37.5975 0.935776 37.9627 2.28462L40.4884 11.6185C41.0255 13.6 39.5622 15.5551 37.5425 15.5551H17.4562C15.4366 15.5551 13.9732 13.6 14.5104 11.6185L17.0361 2.28462C17.399 0.935837 18.6069 0 19.982 0H35.0168Z" fill="url(#paint2_linear_2023_978)"/>
<defs>
<linearGradient id="paint0_linear_2023_978" x1="0" y1="26.4455" x2="25.6668" y2="26.4455" gradientUnits="userSpaceOnUse">
<stop stop-color="#01159A"/>
<stop offset="1" stop-color="#3E55F2"/>
</linearGradient>
<linearGradient id="paint1_linear_2023_978" x1="29.3359" y1="26.4455" x2="55.0027" y2="26.4455" gradientUnits="userSpaceOnUse">
<stop stop-color="#01159A"/>
<stop offset="1" stop-color="#3E55F2"/>
</linearGradient>
<linearGradient id="paint2_linear_2023_978" x1="14.3984" y1="7.77756" x2="40.6003" y2="7.77756" gradientUnits="userSpaceOnUse">
<stop stop-color="#01159A"/>
<stop offset="1" stop-color="#3E55F2"/>
</linearGradient>
</defs>
</svg>
