<svg width="31" height="34" viewBox="0 0 31 34" fill="none" xmlns="http://www.w3.org/2000/svg">
<path d="M1.67235 20.0043C1.35696 20.0054 1.04774 19.917 0.780606 19.7493C0.513477 19.5816 0.299407 19.3416 0.163267 19.0571C0.0271269 18.7726 -0.0254946 18.4553 0.0115162 18.1421C0.048527 17.8289 0.173651 17.5326 0.37235 17.2877L16.8724 0.287674C16.9961 0.14481 17.1648 0.0482679 17.3507 0.0138952C17.5365 -0.0204774 17.7286 0.00936139 17.8952 0.098514C18.0619 0.187667 18.1933 0.330835 18.2679 0.504521C18.3425 0.678206 18.3558 0.872088 18.3057 1.05434L15.1057 11.0877C15.0113 11.3402 14.9796 11.6119 15.0133 11.8794C15.047 12.1468 15.1451 12.4021 15.2992 12.6234C15.4532 12.8446 15.6586 13.0252 15.8978 13.1496C16.137 13.274 16.4028 13.3386 16.6723 13.3377H28.339C28.6544 13.3366 28.9636 13.425 29.2308 13.5927C29.4979 13.7604 29.712 14.0004 29.8481 14.2849C29.9842 14.5694 30.0369 14.8867 29.9998 15.1999C29.9628 15.5131 29.8377 15.8094 29.639 16.0543L13.139 33.0543C13.0152 33.1972 12.8466 33.2937 12.6607 33.3281C12.4748 33.3625 12.2828 33.3327 12.1161 33.2435C11.9495 33.1543 11.818 33.0112 11.7435 32.8375C11.6689 32.6638 11.6556 32.4699 11.7057 32.2877L14.9057 22.2543C15 22.0018 15.0317 21.7301 14.998 21.4627C14.9643 21.1952 14.8663 20.9399 14.7122 20.7186C14.5581 20.4974 14.3527 20.3168 14.1136 20.1924C13.8744 20.068 13.6086 20.0035 13.339 20.0043H1.67235Z" fill="url(#paint0_linear_4157_11855)"/>
<defs>
<linearGradient id="paint0_linear_4157_11855" x1="15.0057" y1="0" x2="15.0057" y2="33.342" gradientUnits="userSpaceOnUse">
<stop stop-color="#3E55F2"/>
<stop offset="1" stop-color="#01159A"/>
</linearGradient>
</defs>
</svg>
