<svg width="60" height="60" viewBox="0 0 60 60" fill="none" xmlns="http://www.w3.org/2000/svg">
<path d="M26.6679 38.1679C27.0584 38.5584 27.6916 38.5584 28.0821 38.1679L40.7929 25.4571C41.1834 25.0666 41.1834 24.4334 40.7929 24.0429L38.6446 21.8946C38.2541 21.5041 37.6209 21.5041 37.2304 21.8946L28.0821 31.0429C27.6916 31.4334 27.0584 31.4334 26.6679 31.0429L22.8321 27.2071C22.4416 26.8166 21.8084 26.8166 21.4179 27.2071L19.2696 29.3554C18.8791 29.7459 18.8791 30.3791 19.2696 30.7696L26.6679 38.1679ZM30.2442 54.9372C30.0843 54.9792 29.9157 54.9792 29.7558 54.9372C24.0738 53.4476 19.3739 50.1457 15.6562 45.0312C11.8854 39.8438 10 34.0833 10 27.75V13.193C10 12.7762 10.2586 12.403 10.6489 12.2567L29.6489 5.13167C29.8753 5.04678 30.1247 5.04678 30.3511 5.13167L49.3511 12.2567C49.7414 12.403 50 12.7762 50 13.193V27.75C50 34.0833 48.1146 39.8438 44.3438 45.0312C40.6261 50.1457 35.9262 53.4476 30.2442 54.9372ZM29.6982 49.6516C29.894 49.7171 30.106 49.7171 30.3018 49.6516C34.5 48.246 37.9827 45.5288 40.75 41.5C43.5833 37.375 45 32.7917 45 27.75V16.6305C45 16.2137 44.7414 15.8405 44.3511 15.6942L30.3511 10.4442C30.1247 10.3593 29.8753 10.3593 29.6489 10.4442L15.6489 15.6942C15.2586 15.8405 15 16.2137 15 16.6305V27.75C15 32.7917 16.4167 37.375 19.25 41.5C22.0173 45.5288 25.5 48.246 29.6982 49.6516Z" fill="url(#paint0_linear_2025_18041)"/>
<defs>
<linearGradient id="paint0_linear_2025_18041" x1="10" y1="30" x2="50" y2="30" gradientUnits="userSpaceOnUse">
<stop stop-color="#01159A"/>
<stop offset="1" stop-color="#3E55F2"/>
</linearGradient>
</defs>
</svg>
