<svg width="60" height="60" viewBox="0 0 60 60" fill="none" xmlns="http://www.w3.org/2000/svg">
<path d="M16.25 2.5C19.7917 2.5 22.5521 4.07292 24.5312 7.21875C26.5104 10.3646 27.5 13.7917 27.5 17.5C27.5 19.2083 27.3229 20.8333 26.9688 22.375C26.6644 23.6999 26.3215 24.9017 25.9402 25.9805C25.8255 26.3051 25.545 26.541 25.2074 26.6085L8.67588 29.9148C8.23867 30.0023 7.79444 29.7908 7.60785 29.3859C7.08608 28.2535 6.55014 26.802 6 25.0312C5.33333 22.8854 5 20.375 5 17.5C5 13.2083 6.0625 9.63542 8.1875 6.78125C10.3125 3.92708 13 2.5 16.25 2.5ZM19.6875 45C16.7292 45 14.4271 43.9688 12.7812 41.9062C11.316 40.07 10.4204 37.9779 10.0945 35.6297C10.0251 35.1294 10.3721 34.675 10.8673 34.5752L25.3564 31.6549C25.8077 31.5639 26.2652 31.7919 26.442 32.2169C26.6584 32.7371 26.8652 33.3002 27.0625 33.9062C27.3542 34.8021 27.5 35.7292 27.5 36.6875C27.5 39.0625 26.7604 41.0417 25.2812 42.625C23.8021 44.2083 21.9375 45 19.6875 45ZM43.75 15C47 15 49.6875 16.4271 51.8125 19.2812C53.9375 22.1354 55 25.7083 55 30C55 32.875 54.6667 35.3854 54 37.5312C53.4499 39.302 52.9139 40.7535 52.3922 41.8859C52.2056 42.2908 51.7613 42.5023 51.3241 42.4148L34.7926 39.1085C34.455 39.041 34.1745 38.8051 34.0598 38.4805C33.6785 37.4017 33.3356 36.1999 33.0312 34.875C32.6771 33.3333 32.5 31.7083 32.5 30C32.5 26.2917 33.4896 22.8646 35.4688 19.7188C37.4479 16.5729 40.2083 15 43.75 15ZM40.3125 57.5C38.0625 57.5 36.1979 56.7083 34.7188 55.125C33.2396 53.5417 32.5 51.5625 32.5 49.1875C32.5 48.2292 32.6458 47.3021 32.9375 46.4062C33.1347 45.8005 33.3415 45.2376 33.5578 44.7175C33.7347 44.2922 34.1925 44.0643 34.644 44.1556L49.071 47.0747C49.5658 47.1748 49.9124 47.629 49.8434 48.1291C49.5197 50.4775 48.6343 52.5699 47.1875 54.4062C45.5625 56.4688 43.2708 57.5 40.3125 57.5Z" fill="url(#paint0_linear_2025_18036)"/>
<defs>
<linearGradient id="paint0_linear_2025_18036" x1="5" y1="30" x2="55" y2="30" gradientUnits="userSpaceOnUse">
<stop stop-color="#01159A"/>
<stop offset="1" stop-color="#3E55F2"/>
</linearGradient>
</defs>
</svg>
