<svg width="42" height="42" viewBox="0 0 42 42" fill="none" xmlns="http://www.w3.org/2000/svg">
<path d="M7.5 16.6574L11.5625 18.3762C12.0486 17.404 12.5521 16.4665 13.0729 15.5637C13.5938 14.6609 14.1667 13.7581 14.7917 12.8553L11.875 12.2824L7.5 16.6574ZM14.8958 20.9803L20.8333 26.8658C22.2917 26.3102 23.8542 25.4595 25.5208 24.3137C27.1875 23.1678 28.75 21.8658 30.2083 20.4074C32.6389 17.9769 34.5399 15.2772 35.9115 12.3085C37.283 9.33972 37.8819 6.60534 37.7083 4.10534C35.2083 3.93173 32.4653 4.53069 29.4792 5.90222C26.4931 7.27375 23.7847 9.17479 21.3542 11.6053C19.8958 13.0637 18.5938 14.6262 17.4479 16.2928C16.3021 17.9595 15.4514 19.522 14.8958 20.9803ZM22.9688 14.6522C22.9688 13.489 23.3681 12.5081 24.1667 11.7095C24.9653 10.9109 25.9549 10.5116 27.1354 10.5116C28.316 10.5116 29.3056 10.9109 30.1042 11.7095C30.9028 12.5081 31.3021 13.489 31.3021 14.6522C31.3021 15.8154 30.9028 16.7963 30.1042 17.5949C29.3056 18.3935 28.316 18.7928 27.1354 18.7928C25.9549 18.7928 24.9653 18.3935 24.1667 17.5949C23.3681 16.7963 22.9688 15.8154 22.9688 14.6522ZM25.1563 34.3137L29.5313 29.9387L28.9583 27.022C28.0556 27.647 27.1528 28.2112 26.25 28.7147C25.3472 29.2182 24.4097 29.713 23.4375 30.1991L25.1563 34.3137ZM41.4583 0.303259C42.1181 4.50465 41.7101 8.59319 40.2344 12.5689C38.7587 16.5446 36.2153 20.338 32.6042 23.9491L33.6458 29.1053C33.7847 29.7998 33.75 30.4769 33.5417 31.1366C33.3333 31.7963 32.9861 32.3692 32.5 32.8553L23.75 41.6053L19.375 31.3449L10.4688 22.4387L0.208333 18.0637L8.90625 9.31368C9.39236 8.82757 9.97396 8.48034 10.651 8.27201C11.3281 8.06368 12.0139 8.02895 12.7083 8.16784L17.8646 9.20951C21.4757 5.5984 25.2604 3.04631 29.2188 1.55326C33.1771 0.0602039 37.2569 -0.356463 41.4583 0.303259ZM3.90625 29.0533C5.12153 27.838 6.6059 27.2217 8.35938 27.2043C10.1128 27.1869 11.5972 27.7859 12.8125 29.0012C14.0278 30.2165 14.6267 31.7008 14.6094 33.4543C14.592 35.2078 13.9757 36.6921 12.7604 37.9074C11.8924 38.7755 10.4427 39.522 8.41146 40.147C6.38021 40.772 3.57639 41.3276 0 41.8137C0.486111 38.2373 1.04167 35.4335 1.66667 33.4022C2.29167 31.371 3.03819 29.9213 3.90625 29.0533ZM6.875 31.9699C6.52778 32.3171 6.18056 32.9508 5.83333 33.871C5.48611 34.7911 5.24306 35.7199 5.10417 36.6574C6.04167 36.5185 6.97049 36.2842 7.89063 35.9543C8.81076 35.6244 9.44444 35.2859 9.79167 34.9387C10.2083 34.522 10.434 34.0185 10.4688 33.4283C10.5035 32.838 10.3125 32.3345 9.89583 31.9178C9.47917 31.5012 8.97569 31.3015 8.38542 31.3189C7.79514 31.3362 7.29167 31.5533 6.875 31.9699Z" fill="url(#paint0_linear_4186_18718)"/>
<defs>
<linearGradient id="paint0_linear_4186_18718" x1="20.882" y1="0" x2="20.882" y2="41.8137" gradientUnits="userSpaceOnUse">
<stop stop-color="#3E55F2"/>
<stop offset="1" stop-color="#01159A"/>
</linearGradient>
</defs>
</svg>
