<svg width="50" height="50" viewBox="0 0 50 50" fill="none" xmlns="http://www.w3.org/2000/svg">
<path d="M25 50C21.5417 50 18.2917 49.3438 15.25 48.0312C12.2083 46.7188 9.5625 44.9375 7.3125 42.6875C5.0625 40.4375 3.28125 37.7917 1.96875 34.75C0.65625 31.7083 0 28.4583 0 25C0 21.5417 0.65625 18.2917 1.96875 15.25C3.28125 12.2083 5.0625 9.5625 7.3125 7.3125C9.5625 5.0625 12.2083 3.28125 15.25 1.96875C18.2917 0.65625 21.5417 0 25 0C28.4583 0 31.7083 0.65625 34.75 1.96875C37.7917 3.28125 40.4375 5.0625 42.6875 7.3125C44.9375 9.5625 46.7188 12.2083 48.0312 15.25C49.3438 18.2917 50 21.5417 50 25C50 28.4583 49.3438 31.7083 48.0312 34.75C46.7188 37.7917 44.9375 40.4375 42.6875 42.6875C40.4375 44.9375 37.7917 46.7188 34.75 48.0312C31.7083 49.3438 28.4583 50 25 50ZM25 45C30.5833 45 35.3125 43.0625 39.1875 39.1875C43.0625 35.3125 45 30.5833 45 25C45 24.7083 44.9896 24.4062 44.9688 24.0938C44.9633 24.012 44.7766 23.9934 44.7513 24.0714C44.4677 24.946 43.9673 25.693 43.25 26.3125C42.3333 27.1042 41.25 27.5 40 27.5H35C33.625 27.5 32.4479 27.0104 31.4688 26.0312C30.4896 25.0521 30 23.875 30 22.5V21C30 20.4477 29.5523 20 29 20H21C20.4477 20 20 19.5523 20 19V15C20 13.625 20.4896 12.4479 21.4688 11.4688C22.4479 10.4896 23.625 10 25 10H26.5C27.0523 10 27.4859 9.547 27.6018 9.00702C27.7219 8.44747 27.9484 7.93471 28.2812 7.46875C28.328 7.40333 28.3756 7.33901 28.4242 7.27577C28.9645 6.57233 28.7253 5.35135 27.8486 5.21638C27.7845 5.20652 27.7204 5.19689 27.6562 5.1875C26.8021 5.0625 25.9167 5 25 5C19.4167 5 14.6875 6.9375 10.8125 10.8125C7.17097 14.454 5.2405 18.8499 5.0211 24.0001C4.99759 24.5519 5.44772 25 6 25H17.5C20.25 25 22.6042 25.9792 24.5625 27.9375C26.5208 29.8958 27.5 32.25 27.5 35V36.5C27.5 37.0523 27.0523 37.5 26.5 37.5H21C20.4477 37.5 20 37.9477 20 38.5V43.5942C20 44.0531 20.3118 44.4555 20.7606 44.5513C21.335 44.6739 21.9044 44.7714 22.4688 44.8438C23.2812 44.9479 24.125 45 25 45Z" fill="url(#paint0_linear_2025_18029)"/>
<defs>
<linearGradient id="paint0_linear_2025_18029" x1="0" y1="25" x2="50" y2="25" gradientUnits="userSpaceOnUse">
<stop stop-color="#01159A"/>
<stop offset="1" stop-color="#3E55F2"/>
</linearGradient>
</defs>
</svg>
