<svg width="68" height="68" viewBox="0 0 68 68" fill="none" xmlns="http://www.w3.org/2000/svg">
<path d="M8.5 44.9167C8.5 44.3644 8.94772 43.9167 9.5 43.9167H25.0052C25.8629 43.9167 26.3396 44.9409 25.8375 45.6363C25.4095 46.2292 25.0018 46.8484 24.6146 47.4938C23.9046 48.6771 23.2436 49.9486 22.6316 51.3084C22.5172 51.5627 22.5172 51.8539 22.6316 52.1083C23.2436 53.468 23.9046 54.7396 24.6146 55.9229C25.0018 56.5683 25.4095 57.1874 25.8375 57.7803C26.3396 58.4757 25.8629 59.5 25.0052 59.5H12.75C11.5812 59.5 10.5808 59.0837 9.74879 58.2512C8.91626 57.4192 8.5 56.4188 8.5 55.25V44.9167ZM9.5 39.6667C8.94772 39.6667 8.5 39.219 8.5 38.6667V25.0833C8.5 24.531 8.94772 24.0833 9.5 24.0833H30.875C31.4273 24.0833 31.875 24.531 31.875 25.0833V38.6667C31.875 39.219 31.4273 39.6667 30.875 39.6667H9.5ZM36.125 25.0833C36.125 24.531 36.5727 24.0833 37.125 24.0833H58.5C59.0523 24.0833 59.5 24.531 59.5 25.0833V37.2817C59.5 38.0701 58.6248 38.5559 57.9281 38.187C56.4512 37.4049 54.8983 36.7884 53.2695 36.3375C51.0519 35.7236 48.6663 35.4167 46.1125 35.4167C44.3223 35.4167 42.5878 35.5701 40.9091 35.8771C39.7484 36.0894 38.6277 36.3863 37.547 36.768C36.867 37.0082 36.125 36.5213 36.125 35.8002V25.0833ZM9.5 19.8333C8.94772 19.8333 8.5 19.3856 8.5 18.8333V12.75C8.5 11.5812 8.91626 10.5806 9.74879 9.74808C10.5808 8.91603 11.5812 8.5 12.75 8.5H55.25C56.4188 8.5 57.4194 8.91603 58.2519 9.74808C59.084 10.5806 59.5 11.5812 59.5 12.75V18.8333C59.5 19.3856 59.0523 19.8333 58.5 19.8333H9.5ZM46.0948 63.75C41.951 63.75 38.1556 62.6875 34.7083 60.5625C31.3835 58.5129 28.8933 55.6946 27.2377 52.1075C27.1209 51.8543 27.1209 51.5624 27.2377 51.3092C28.8933 47.7221 31.3835 44.9037 34.7083 42.8542C38.1556 40.7292 41.9569 39.6667 46.1125 39.6667C50.2681 39.6667 54.0694 40.7292 57.5167 42.8542C60.8464 44.9067 63.339 47.7414 64.9946 51.358C65.1069 51.6035 65.11 51.8853 65.0024 52.1329C63.433 55.7471 60.9555 58.5688 57.5698 60.5979C54.0635 62.6993 50.2385 63.75 46.0948 63.75ZM46.1224 58.0833C47.9103 58.0833 49.4181 57.4661 50.6458 56.2318C51.8736 54.9974 52.4875 53.4862 52.4875 51.6984C52.4875 49.9106 51.8703 48.4028 50.6359 47.175C49.4015 45.9472 47.8904 45.3333 46.1026 45.3333C44.3147 45.3333 42.8069 45.9505 41.5792 47.1849C40.3514 48.4193 39.7375 49.9304 39.7375 51.7183C39.7375 53.5061 40.3547 55.0139 41.5891 56.2417C42.8235 57.4694 44.3346 58.0833 46.1224 58.0833ZM46.104 55.25C45.118 55.25 44.2826 54.9048 43.5979 54.2144C42.9132 53.524 42.5708 52.6858 42.5708 51.6998C42.5708 50.7138 42.916 49.8785 43.6064 49.1937C44.2968 48.509 45.135 48.1667 46.121 48.1667C47.107 48.1667 47.9424 48.5119 48.6271 49.2022C49.3118 49.8926 49.6542 50.7308 49.6542 51.7168C49.6542 52.7028 49.309 53.5382 48.6186 54.2229C47.9282 54.9076 47.09 55.25 46.104 55.25Z" fill="url(#paint0_linear_2025_9948)"/>
<defs>
<linearGradient id="paint0_linear_2025_9948" x1="8.5" y1="36.125" x2="65.1667" y2="36.125" gradientUnits="userSpaceOnUse">
<stop stop-color="#01159A"/>
<stop offset="1" stop-color="#3E55F2"/>
</linearGradient>
</defs>
</svg>
