<svg width="57" height="56" viewBox="0 0 57 56" fill="none" xmlns="http://www.w3.org/2000/svg">
<path d="M0 36.4167C0 35.8644 0.447715 35.4167 1 35.4167H16.5052C17.3629 35.4167 17.8396 36.4409 17.3375 37.1363C16.9095 37.7292 16.5018 38.3484 16.1146 38.9938C15.4046 40.1771 14.7436 41.4486 14.1316 42.8084C14.0172 43.0627 14.0172 43.3539 14.1316 43.6083C14.7436 44.968 15.4046 46.2396 16.1146 47.4229C16.5018 48.0683 16.9095 48.6874 17.3375 49.2803C17.8396 49.9757 17.3629 51 16.5052 51H4.25C3.08125 51 2.08085 50.5837 1.24879 49.7512C0.416264 48.9192 0 47.9188 0 46.75V36.4167ZM1 31.1667C0.447715 31.1667 0 30.719 0 30.1667V16.5833C0 16.031 0.447715 15.5833 1 15.5833H22.375C22.9273 15.5833 23.375 16.031 23.375 16.5833V30.1667C23.375 30.719 22.9273 31.1667 22.375 31.1667H1ZM27.625 16.5833C27.625 16.031 28.0727 15.5833 28.625 15.5833H50C50.5523 15.5833 51 16.031 51 16.5833V28.7817C51 29.5701 50.1248 30.0559 49.4281 29.687C47.9512 28.9049 46.3983 28.2884 44.7695 27.8375C42.5519 27.2236 40.1663 26.9167 37.6125 26.9167C35.8223 26.9167 34.0878 27.0701 32.4091 27.3771C31.2484 27.5894 30.1277 27.8863 29.047 28.268C28.367 28.5082 27.625 28.0213 27.625 27.3002V16.5833ZM1 11.3333C0.447715 11.3333 0 10.8856 0 10.3333V4.25C0 3.08125 0.416264 2.08061 1.24879 1.24808C2.08085 0.416027 3.08125 0 4.25 0H46.75C47.9188 0 48.9194 0.416027 49.7519 1.24808C50.584 2.08061 51 3.08125 51 4.25V10.3333C51 10.8856 50.5523 11.3333 50 11.3333H1ZM37.5948 55.25C33.451 55.25 29.6556 54.1875 26.2083 52.0625C22.8835 50.0129 20.3933 47.1946 18.7377 43.6075C18.6209 43.3543 18.6209 43.0624 18.7377 42.8092C20.3933 39.2221 22.8835 36.4037 26.2083 34.3542C29.6556 32.2292 33.4569 31.1667 37.6125 31.1667C41.7681 31.1667 45.5694 32.2292 49.0167 34.3542C52.3464 36.4067 54.839 39.2414 56.4946 42.858C56.6069 43.1035 56.61 43.3853 56.5024 43.6329C54.933 47.2471 52.4555 50.0688 49.0698 52.0979C45.5635 54.1993 41.7385 55.25 37.5948 55.25ZM37.6224 49.5833C39.4103 49.5833 40.9181 48.9661 42.1458 47.7318C43.3736 46.4974 43.9875 44.9862 43.9875 43.1984C43.9875 41.4106 43.3703 39.9028 42.1359 38.675C40.9015 37.4472 39.3904 36.8333 37.6026 36.8333C35.8147 36.8333 34.3069 37.4505 33.0792 38.6849C31.8514 39.9193 31.2375 41.4304 31.2375 43.2183C31.2375 45.0061 31.8547 46.5139 33.0891 47.7417C34.3235 48.9694 35.8346 49.5833 37.6224 49.5833ZM37.604 46.75C36.618 46.75 35.7826 46.4048 35.0979 45.7144C34.4132 45.024 34.0708 44.1858 34.0708 43.1998C34.0708 42.2138 34.416 41.3785 35.1064 40.6937C35.7968 40.009 36.635 39.6667 37.621 39.6667C38.607 39.6667 39.4424 40.0119 40.1271 40.7022C40.8118 41.3926 41.1542 42.2308 41.1542 43.2168C41.1542 44.2028 40.809 45.0382 40.1186 45.7229C39.4282 46.4076 38.59 46.75 37.604 46.75Z" fill="url(#paint0_linear_2025_9949)"/>
<defs>
<linearGradient id="paint0_linear_2025_9949" x1="0" y1="27.625" x2="56.6667" y2="27.625" gradientUnits="userSpaceOnUse">
<stop stop-color="#01159A"/>
<stop offset="1" stop-color="#3E55F2"/>
</linearGradient>
</defs>
</svg>
