<svg width="48" height="48" viewBox="0 0 48 48" fill="none" xmlns="http://www.w3.org/2000/svg">
<path d="M24.0135 44C21.2555 44 18.6638 43.475 16.2385 42.425C13.8128 41.375 11.6917 39.9417 9.875 38.125C8.05833 36.3083 6.625 34.186 5.575 31.758C4.525 29.33 4 26.7357 4 23.975C4 21.2143 4.525 18.62 5.575 16.192C6.625 13.764 8.05833 11.65 9.875 9.85C11.6917 8.05 13.814 6.625 16.242 5.575C18.67 4.525 21.2643 4 24.025 4C26.7857 4 29.38 4.525 31.808 5.575C34.236 6.625 36.35 8.05 38.15 9.85C39.95 11.65 41.375 13.7667 42.425 16.2C43.475 18.6333 44 21.2288 44 23.9865C44 26.7445 43.475 29.3362 42.425 31.7615C41.375 34.1872 39.95 36.3053 38.15 38.116C36.35 39.9263 34.2333 41.3597 31.8 42.416C29.3667 43.472 26.7712 44 24.0135 44ZM24 41C28.746 41 32.7658 39.3417 36.0595 36.025C39.3532 32.7083 41 28.7 41 24C41 23.9119 40.8372 23.8874 40.8037 23.9689C40.5575 24.5677 40.1661 25.0864 39.6295 25.525C38.9162 26.1083 38.073 26.4 37.1 26.4H33.1C32 26.4 31.0583 26.0083 30.275 25.225C29.4917 24.4417 29.1 23.5 29.1 22.4C29.1 21.2954 28.2046 20.4 27.1 20.4H25.1C22.8909 20.4 21.1 18.6091 21.1 16.4C21.1 15.3 21.4917 14.3583 22.275 13.575C23.0583 12.7917 24 12.4 25.1 12.4H26C26.6075 12.4 27.1 11.9075 27.1 11.3C27.1 10.7667 27.325 10.1 27.775 9.3C28.0949 8.73131 27.8525 7.4393 27.2123 7.31326C27.053 7.28188 26.8929 7.25246 26.732 7.225C25.8537 7.075 24.943 7 24 7C19.3 7 15.2917 8.64683 11.975 11.9405C10.5114 13.394 9.3707 14.9889 8.55297 16.7251C6.7881 20.4725 10.3579 24 14.5 24C16.7 24 18.5833 24.7833 20.15 26.35C21.7167 27.9167 22.5 29.8 22.5 32C22.5 33.1046 21.6046 34 20.5 34H19.5C17.8431 34 16.5 35.3431 16.5 37V37.2447C16.5 38.4737 17.1859 39.6233 18.3439 40.0351C18.9105 40.2365 19.4909 40.4082 20.085 40.55C21.3417 40.85 22.6467 41 24 41Z" fill="url(#paint0_linear_2025_7812)"/>
<defs>
<linearGradient id="paint0_linear_2025_7812" x1="4" y1="24" x2="44" y2="24" gradientUnits="userSpaceOnUse">
<stop stop-color="#01159A"/>
<stop offset="1" stop-color="#3E55F2"/>
</linearGradient>
</defs>
</svg>
