<svg width="32" height="32" viewBox="0 0 32 32" fill="none" xmlns="http://www.w3.org/2000/svg">
<path d="M0 10C0 4.47715 4.47715 0 10 0H22C27.5228 0 32 4.47715 32 10V22C32 27.5228 27.5228 32 22 32H10C4.47715 32 0 27.5228 0 22V10Z" fill="url(#paint0_linear_4099_6523)"/>
<path d="M15.3359 19.3337H16.6693V18.667H17.3359C17.5248 18.667 17.6832 18.6031 17.8109 18.4753C17.9387 18.3475 18.0026 18.1892 18.0026 18.0003V16.0003C18.0026 15.8114 17.9387 15.6531 17.8109 15.5253C17.6832 15.3975 17.5248 15.3337 17.3359 15.3337H15.3359V14.667H18.0026V13.3337H16.6693V12.667H15.3359V13.3337H14.6693C14.4804 13.3337 14.322 13.3975 14.1943 13.5253C14.0665 13.6531 14.0026 13.8114 14.0026 14.0003V16.0003C14.0026 16.1892 14.0665 16.3475 14.1943 16.4753C14.322 16.6031 14.4804 16.667 14.6693 16.667H16.6693V17.3337H14.0026V18.667H15.3359V19.3337ZM10.6693 21.3337C10.3026 21.3337 9.98872 21.2031 9.7276 20.942C9.46649 20.6809 9.33594 20.367 9.33594 20.0003V12.0003C9.33594 11.6337 9.46649 11.3198 9.7276 11.0587C9.98872 10.7975 10.3026 10.667 10.6693 10.667H21.3359C21.7026 10.667 22.0165 10.7975 22.2776 11.0587C22.5387 11.3198 22.6693 11.6337 22.6693 12.0003V20.0003C22.6693 20.367 22.5387 20.6809 22.2776 20.942C22.0165 21.2031 21.7026 21.3337 21.3359 21.3337H10.6693ZM10.6693 20.0003H21.3359V12.0003H10.6693V20.0003Z" fill="white"/>
<defs>
<linearGradient id="paint0_linear_4099_6523" x1="16" y1="-3.27826e-07" x2="5" y2="32" gradientUnits="userSpaceOnUse">
<stop stop-color="#3E55F2"/>
<stop offset="1" stop-color="#01159A"/>
</linearGradient>
</defs>
</svg>
