<svg width="60" height="60" viewBox="0 0 60 60" fill="none" xmlns="http://www.w3.org/2000/svg">
<path d="M6 52.5C5.44771 52.5 5 52.0523 5 51.5V8.5C5 7.94772 5.44772 7.5 6 7.5H29C29.5523 7.5 30 7.94772 30 8.5V16.5C30 17.0523 30.4477 17.5 31 17.5H54C54.5523 17.5 55 17.9477 55 18.5V51.5C55 52.0523 54.5523 52.5 54 52.5H6ZM10 46.5C10 47.0523 10.4477 47.5 11 47.5H24C24.5523 47.5 25 47.0523 25 46.5V43.5C25 42.9477 24.5523 42.5 24 42.5H11C10.4477 42.5 10 42.9477 10 43.5V46.5ZM10 36.5C10 37.0523 10.4477 37.5 11 37.5H24C24.5523 37.5 25 37.0523 25 36.5V33.5C25 32.9477 24.5523 32.5 24 32.5H11C10.4477 32.5 10 32.9477 10 33.5V36.5ZM10 26.5C10 27.0523 10.4477 27.5 11 27.5H24C24.5523 27.5 25 27.0523 25 26.5V23.5C25 22.9477 24.5523 22.5 24 22.5H11C10.4477 22.5 10 22.9477 10 23.5V26.5ZM10 16.5C10 17.0523 10.4477 17.5 11 17.5H24C24.5523 17.5 25 17.0523 25 16.5V13.5C25 12.9477 24.5523 12.5 24 12.5H11C10.4477 12.5 10 12.9477 10 13.5V16.5ZM30 46.5C30 47.0523 30.4477 47.5 31 47.5H49C49.5523 47.5 50 47.0523 50 46.5V23.5C50 22.9477 49.5523 22.5 49 22.5H31C30.4477 22.5 30 22.9477 30 23.5V46.5ZM36 32.5C35.4477 32.5 35 32.0523 35 31.5V28.5C35 27.9477 35.4477 27.5 36 27.5H44C44.5523 27.5 45 27.9477 45 28.5V31.5C45 32.0523 44.5523 32.5 44 32.5H36ZM36 42.5C35.4477 42.5 35 42.0523 35 41.5V38.5C35 37.9477 35.4477 37.5 36 37.5H44C44.5523 37.5 45 37.9477 45 38.5V41.5C45 42.0523 44.5523 42.5 44 42.5H36Z" fill="url(#paint0_linear_2025_18020)"/>
<defs>
<linearGradient id="paint0_linear_2025_18020" x1="5" y1="30" x2="55" y2="30" gradientUnits="userSpaceOnUse">
<stop stop-color="#01159A"/>
<stop offset="1" stop-color="#3E55F2"/>
</linearGradient>
</defs>
</svg>
