<svg width="52" height="52" viewBox="0 0 52 52" fill="none" xmlns="http://www.w3.org/2000/svg">
<circle cx="26" cy="26" r="26" fill="url(#paint0_linear_2023_1137)"/>
<path d="M23.9457 10.1453C23.9457 9.40619 25.0284 7.35802 25.1516 7.1272C25.2423 6.9576 25.5035 6.9576 25.5941 7.1272C25.7174 7.35856 26.8001 9.40619 26.8001 10.1453C26.8001 10.983 26.1599 11.6641 25.3726 11.6641C24.5853 11.6641 23.9457 10.983 23.9457 10.1453ZM28.8213 11.288C28.5804 11.359 26.4543 11.993 25.9629 12.5158C25.6935 12.8019 25.5448 13.1834 25.5448 13.5892C25.5448 13.9945 25.6935 14.376 25.9629 14.6632C26.2323 14.9498 26.5908 15.1075 26.9717 15.1075C27.3531 15.1075 27.7116 14.9492 27.981 14.6626C28.472 14.1403 29.0678 11.877 29.1345 11.6212C29.159 11.527 29.1335 11.4267 29.0688 11.3579C29.0041 11.2896 28.9094 11.2631 28.8213 11.288ZM22.7932 14.6632C23.0626 14.9498 23.4211 15.108 23.8026 15.108C24.1835 15.108 24.542 14.9503 24.8114 14.6637C25.368 14.0709 25.368 13.1075 24.8114 12.5158C24.32 11.993 22.1938 11.359 21.9535 11.288C21.8638 11.2631 21.7706 11.2896 21.706 11.3579C21.6413 11.4267 21.6158 11.5275 21.6403 11.6212C21.707 11.8775 22.3023 14.1408 22.7932 14.6632ZM28.8066 15.2998C28.5657 15.3708 26.4395 16.0048 25.9481 16.5271C25.3915 17.1188 25.3915 18.0822 25.9481 18.675C26.2175 18.9616 26.5755 19.1193 26.9569 19.1193C27.3384 19.1193 27.6964 18.9616 27.9663 18.675C28.4572 18.1521 29.053 15.8893 29.1197 15.6336C29.1442 15.5393 29.1187 15.4391 29.0541 15.3703C28.9904 15.3014 28.8957 15.2744 28.8066 15.2998ZM22.779 18.675C23.0484 18.9616 23.4064 19.1193 23.7878 19.1193C24.1692 19.1193 24.5273 18.9616 24.7967 18.675C25.3528 18.0827 25.3528 17.1193 24.7967 16.5271C24.3052 16.0048 22.1791 15.3708 21.9387 15.2998C21.8496 15.2744 21.7559 15.3014 21.6912 15.3697C21.6265 15.4385 21.6011 15.5393 21.6255 15.6331C21.6922 15.8893 22.2875 18.1521 22.779 18.675ZM26.9503 23.1311C27.3317 23.1311 27.6903 22.9729 27.9597 22.6862C28.4506 22.1639 29.0464 19.9012 29.1131 19.6454C29.1376 19.5511 29.1121 19.4509 29.0474 19.3821C28.9833 19.3138 28.8885 19.2867 28.7999 19.3122C28.5591 19.3832 26.4329 20.0166 25.9415 20.5394C25.3848 21.1311 25.3848 22.0945 25.9415 22.6873C26.2109 22.9734 26.5694 23.1311 26.9503 23.1311ZM22.7724 22.6862C23.0417 22.9729 23.3998 23.1311 23.7812 23.1311C24.1621 23.1311 24.5206 22.9734 24.79 22.6868C25.3467 22.094 25.3467 21.1306 24.79 20.5389C24.2986 20.016 22.1724 19.3826 21.9321 19.3116C21.8435 19.2862 21.7487 19.3133 21.6846 19.3815C21.6199 19.4503 21.5944 19.5511 21.6189 19.6449C21.6856 19.9012 22.2809 22.1639 22.7724 22.6862ZM28.803 23.3234C28.5621 23.3944 26.436 24.0284 25.944 24.5507C25.3884 25.143 25.3884 26.1058 25.944 26.6986C26.2139 26.9852 26.5719 27.1429 26.9534 27.1429C27.3343 27.1429 27.6928 26.9852 27.9622 26.6986C28.4536 26.1757 29.0495 23.913 29.1162 23.6572C29.1406 23.5629 29.1152 23.4627 29.0505 23.3939C28.9868 23.3251 28.8916 23.2985 28.803 23.3234ZM21.9356 23.3234C21.846 23.2985 21.7523 23.3251 21.6881 23.3933C21.6235 23.4622 21.598 23.5629 21.6224 23.6567C21.6892 23.913 22.2845 26.1752 22.7754 26.698C23.0453 26.9847 23.4033 27.1424 23.7848 27.1424C24.1657 27.1424 24.5242 26.9847 24.7931 26.698C25.3497 26.1058 25.3497 25.1424 24.7931 24.5502C24.3022 24.0284 22.1765 23.3944 21.9356 23.3234ZM28.7964 27.3347C28.5555 27.4057 26.4293 28.0396 25.9374 28.5625C25.3813 29.1542 25.3813 30.1176 25.9374 30.7104C26.2073 30.997 26.5658 31.1547 26.9467 31.1547C27.3282 31.1547 27.6862 30.9965 27.9556 30.7099C28.447 30.1875 29.0428 27.9242 29.1096 27.6685C29.134 27.5742 29.1085 27.474 29.0439 27.4051C28.9792 27.3363 28.885 27.3087 28.7964 27.3347ZM24.7865 28.5625C24.2955 28.0396 22.1694 27.4057 21.929 27.3347C21.8399 27.3087 21.7457 27.3358 21.6815 27.4046C21.6168 27.4734 21.5914 27.5742 21.6158 27.6679C21.6825 27.9242 22.2779 30.187 22.7688 30.7093C23.0382 30.9959 23.3967 31.1542 23.7781 31.1542C24.1591 31.1542 24.5171 30.9965 24.7865 30.7099C25.0559 30.4232 25.2046 30.0418 25.2046 29.6359C25.2046 29.2301 25.0559 28.8486 24.7865 28.5625ZM25.3701 31.1487C25.0885 31.1487 24.8608 31.3909 24.8608 31.6906V37.4298C24.8608 37.7294 25.0885 37.9716 25.3701 37.9716C25.6517 37.9716 25.8793 37.7294 25.8793 37.4298V31.6906C25.8793 31.3915 25.6517 31.1487 25.3701 31.1487ZM15.438 19.2006C15.5343 19.2006 15.6305 19.187 15.7247 19.1605C16.0089 19.0797 16.2457 18.8852 16.3934 18.6143C16.54 18.3434 16.5787 18.0275 16.5029 17.7262C16.3715 17.2028 15.3234 16.0535 15.1141 15.8281C15.05 15.7593 14.9547 15.7328 14.8671 15.7566C14.779 15.7821 14.7098 15.8563 14.6869 15.95C14.612 16.2556 14.2443 17.8091 14.3757 18.332C14.504 18.8429 14.9415 19.2006 15.438 19.2006ZM16.2034 19.5262C15.9009 20.0854 16.0822 20.8028 16.6073 21.1268C16.7743 21.2287 16.9643 21.2829 17.1562 21.2829C17.5489 21.2829 17.914 21.0591 18.1111 20.6977C18.3652 20.2284 18.3887 18.6278 18.3907 18.3119C18.3912 18.2139 18.3428 18.1239 18.2634 18.0751C18.1839 18.0258 18.0862 18.0264 18.0072 18.0757C17.7506 18.2361 16.4591 19.0575 16.2034 19.5262ZM14.3981 21.7564C14.5657 21.8583 14.7551 21.913 14.9476 21.913C15.3402 21.913 15.7054 21.6887 15.9019 21.3278C16.205 20.7681 16.0237 20.0502 15.4986 19.7278C15.0586 19.4568 13.5538 19.4319 13.2569 19.4298C13.2558 19.4298 13.2553 19.4298 13.2548 19.4298C13.1637 19.4298 13.0796 19.4818 13.0343 19.5652C12.9885 19.6492 12.9885 19.7538 13.0348 19.8378C13.1856 20.1103 13.9576 21.4844 14.3981 21.7564ZM16.8986 22.3254C16.595 22.884 16.7758 23.6019 17.3014 23.926C17.4684 24.0278 17.6584 24.082 17.8504 24.082C18.243 24.082 18.6087 23.8577 18.8047 23.4963C19.0593 23.0276 19.0828 21.4264 19.0848 21.1106C19.0853 21.0125 19.0369 20.9225 18.9575 20.8738C18.8781 20.8245 18.7798 20.8255 18.7013 20.8743C18.4452 21.0347 17.1527 21.8572 16.8986 22.3254ZM15.0927 24.554C15.2598 24.6569 15.4497 24.7116 15.6422 24.7116C16.0349 24.7116 16.4 24.4873 16.5961 24.1265C16.8991 23.5673 16.7178 22.8499 16.1932 22.5269C15.7527 22.256 14.2479 22.2311 13.951 22.2289C13.95 22.2289 13.9494 22.2289 13.9489 22.2289C13.8578 22.2289 13.7738 22.2804 13.7284 22.3644C13.6826 22.4484 13.6826 22.5529 13.7289 22.6369C13.8797 22.9095 14.6517 24.2841 15.0927 24.554ZM17.5973 25.1224C17.2943 25.6815 17.475 26.3995 18.0006 26.7235C18.1676 26.8254 18.3576 26.8796 18.5496 26.8796C18.9422 26.8796 19.3074 26.6552 19.5039 26.2938C19.7586 25.8251 19.7815 24.224 19.7835 23.9075C19.784 23.81 19.7351 23.7201 19.6562 23.6713C19.5768 23.622 19.4785 23.6225 19.4 23.6718C19.1444 23.8322 17.8529 24.6537 17.5973 25.1224ZM15.7925 27.3526C15.9595 27.4545 16.1494 27.5086 16.3414 27.5086C16.7341 27.5086 17.0992 27.2849 17.2958 26.9234C17.5983 26.3643 17.4175 25.6469 16.893 25.3234C16.4519 25.0535 14.9471 25.0286 14.6502 25.0265C14.6492 25.0265 14.6487 25.0265 14.6482 25.0265C14.557 25.0265 14.473 25.0785 14.4276 25.1619C14.3813 25.2464 14.3818 25.3505 14.4282 25.4345C14.5789 25.707 15.3514 27.0806 15.7925 27.3526ZM18.3041 27.9177C18.0006 28.4764 18.1814 29.1943 18.7069 29.5178C18.874 29.6202 19.0639 29.6749 19.2564 29.6749C19.6491 29.6749 20.0147 29.4506 20.2113 29.0892C20.4649 28.62 20.4883 27.0194 20.4904 26.7035C20.4909 26.6054 20.4425 26.5154 20.363 26.4667C20.2836 26.4174 20.1853 26.4179 20.1069 26.4672C19.8507 26.6281 18.5593 27.449 18.3041 27.9177ZM16.4983 30.148C16.6653 30.2504 16.8553 30.3051 17.0478 30.3051C17.4404 30.3051 17.8056 30.0808 18.0021 29.7194C18.3046 29.1602 18.1238 28.4428 17.5988 28.1198C17.1583 27.8489 15.6539 27.824 15.357 27.8218C15.356 27.8218 15.3555 27.8218 15.355 27.8218C15.2638 27.8218 15.1798 27.8738 15.1345 27.9573C15.0887 28.0413 15.0887 28.1458 15.135 28.2298C15.2857 28.5024 16.0583 29.8776 16.4983 30.148ZM20.8061 29.2653C20.5494 29.4257 19.2574 30.2477 19.0028 30.7158C18.7003 31.2745 18.8811 31.9924 19.4062 32.317C19.5732 32.4188 19.7631 32.473 19.9551 32.473C20.3478 32.473 20.7134 32.2487 20.9095 31.8873C21.1641 31.4186 21.1875 29.8174 21.1896 29.5015C21.1901 29.4035 21.1417 29.3135 21.0623 29.2648C20.9833 29.2149 20.885 29.216 20.8061 29.2653ZM18.2975 30.9168C17.858 30.6465 16.3531 30.6221 16.0557 30.6199C16.0552 30.6199 16.0547 30.6199 16.0542 30.6199C15.9631 30.6199 15.879 30.6719 15.8337 30.7554C15.7879 30.8394 15.7879 30.9439 15.8342 31.0279C15.9844 31.3005 16.757 32.674 17.1975 32.946C17.365 33.0479 17.555 33.1026 17.747 33.1026C18.1396 33.1026 18.5048 32.8783 18.7013 32.5174C19.0043 31.9577 18.8236 31.2398 18.2975 30.9168ZM19.7107 32.9065C19.6379 32.6171 19.3588 32.4454 19.0868 32.5234C18.8154 32.6009 18.654 32.8978 18.7268 33.1872L19.7341 37.187C19.7947 37.4293 20.0005 37.5886 20.2255 37.5886C20.2693 37.5886 20.3137 37.5826 20.358 37.5701C20.6294 37.4926 20.7908 37.1957 20.718 36.9064L19.7107 32.9065ZM35.2757 19.2369C35.3699 19.2634 35.4656 19.277 35.5624 19.277C36.0589 19.277 36.4958 18.9199 36.6252 18.4078C36.7566 17.8855 36.3889 16.3326 36.314 16.0264C36.2911 15.9322 36.2219 15.8579 36.1338 15.833C36.0446 15.8092 35.9504 15.8357 35.8868 15.9045C35.678 16.1299 34.6294 17.2792 34.4985 17.8015C34.4221 18.1039 34.4608 18.4198 34.608 18.6907C34.7547 18.9616 34.9925 19.1556 35.2757 19.2369ZM33.8441 21.3598C34.0361 21.3598 34.2261 21.3056 34.3931 21.2032C34.9182 20.8797 35.0995 20.1623 34.7964 19.6031C34.5413 19.1344 33.2498 18.3125 32.9937 18.1526C32.9152 18.1033 32.817 18.1028 32.7375 18.1521C32.6586 18.2009 32.6097 18.2908 32.6102 18.3883C32.6122 18.7048 32.6352 20.3054 32.8898 20.7741C33.0864 21.1355 33.4515 21.3598 33.8441 21.3598ZM37.9661 19.6422C37.9207 19.5587 37.8367 19.5067 37.7456 19.5067C37.7451 19.5067 37.7445 19.5067 37.7435 19.5067C37.4466 19.5089 35.9418 19.5338 35.5018 19.8042C35.2471 19.9608 35.0653 20.2133 34.9884 20.5156C34.9126 20.818 34.9518 21.1333 35.0989 21.4048C35.2945 21.7656 35.6602 21.99 36.0523 21.99C36.2448 21.99 36.4347 21.9352 36.6018 21.8328C37.0423 21.5624 37.8148 20.1878 37.9656 19.9152C38.0114 19.8307 38.0114 19.7261 37.9661 19.6422ZM33.1495 24.159C33.342 24.159 33.532 24.1042 33.699 24.0018C33.9536 23.8458 34.1354 23.5927 34.2123 23.2909C34.2882 22.9886 34.249 22.6727 34.1018 22.4018C33.8477 21.9336 32.5562 21.1111 32.2996 20.9507C32.2211 20.9014 32.1228 20.9009 32.0434 20.9502C31.9645 20.9989 31.9156 21.0889 31.9161 21.1864C31.9181 21.5028 31.9405 23.1035 32.1957 23.5727C32.3907 23.9341 32.7569 24.159 33.1495 24.159ZM37.0514 22.3059C37.0509 22.3059 37.0504 22.3059 37.0494 22.3059C36.7525 22.308 35.2482 22.333 34.8066 22.6033C34.2826 22.9268 34.1018 23.6442 34.4043 24.2034C34.6004 24.5643 34.966 24.7886 35.3582 24.7886C35.5507 24.7886 35.7406 24.7339 35.9071 24.6315C36.3487 24.3611 37.1212 22.9864 37.2714 22.7139C37.3178 22.6299 37.3178 22.5253 37.272 22.4413C37.2261 22.3573 37.1421 22.3059 37.0514 22.3059ZM32.4503 26.9565C32.6423 26.9565 32.8322 26.9023 32.9998 26.7999C33.5248 26.4759 33.7056 25.7579 33.4021 25.1988C33.147 24.7306 31.856 23.9092 31.5998 23.7488C31.5209 23.6995 31.4226 23.6989 31.3437 23.7482C31.2647 23.797 31.2159 23.887 31.2164 23.9845C31.2184 24.3009 31.2413 25.9021 31.4959 26.3708C31.6925 26.7322 32.0582 26.9565 32.4503 26.9565ZM36.3527 25.1034C36.3522 25.1034 36.3517 25.1034 36.3507 25.1034C36.0538 25.1056 34.5489 25.1305 34.1079 25.4009C33.5834 25.7238 33.4021 26.4412 33.7056 27.0004C33.9017 27.3613 34.2668 27.5856 34.6589 27.5856C34.8514 27.5856 35.0414 27.5314 35.2089 27.4284C35.6489 27.1581 36.422 25.784 36.5727 25.5114C36.6191 25.4274 36.6196 25.3234 36.5732 25.2389C36.5274 25.1554 36.4434 25.1034 36.3527 25.1034ZM31.7445 29.7519C31.9365 29.7519 32.1264 29.6971 32.2934 29.5947C32.819 29.2713 32.9998 28.5533 32.6963 27.9947C32.4411 27.526 31.1496 26.704 30.8935 26.5442C30.8151 26.4949 30.7163 26.4943 30.6373 26.5436C30.5579 26.5924 30.5095 26.6823 30.51 26.7804C30.5121 27.0963 30.5355 28.6974 30.7896 29.1656C30.9857 29.527 31.3513 29.7519 31.7445 29.7519ZM35.6454 27.8982C35.6449 27.8982 35.6444 27.8982 35.6433 27.8982C35.3464 27.9004 33.8421 27.9253 33.4016 28.1962C32.8765 28.5186 32.6952 29.236 32.9988 29.7958C33.1948 30.1572 33.5605 30.3815 33.9521 30.3815C34.1441 30.3815 34.3351 30.3268 34.5021 30.2244C34.9426 29.954 35.7151 28.5793 35.8654 28.3062C35.9117 28.2222 35.9117 28.1177 35.8659 28.0337C35.8206 27.9497 35.7365 27.8982 35.6454 27.8982ZM31.5947 32.3928C32.1188 32.0688 32.2996 31.3509 31.9971 30.7917C31.7424 30.3235 30.4509 29.5021 30.1943 29.3417C30.1159 29.2924 30.0176 29.2918 29.9381 29.3412C29.8587 29.3899 29.8103 29.4799 29.8108 29.5779C29.8128 29.8938 29.8363 31.495 30.0909 31.9637C30.287 32.3251 30.6526 32.5494 31.0453 32.5494C31.2372 32.5494 31.4272 32.4958 31.5947 32.3928ZM34.9462 30.6963C34.9457 30.6963 34.9452 30.6963 34.9446 30.6963C34.6472 30.6985 33.1424 30.7229 32.7029 30.9932C32.1773 31.3162 31.996 32.0341 32.2996 32.5938C32.4956 32.9547 32.8613 33.1785 33.2529 33.1785C33.4449 33.1785 33.6353 33.1238 33.8029 33.0214C34.2434 32.751 35.0159 31.3769 35.1662 31.1043C35.2125 31.0203 35.2125 30.9163 35.1667 30.8318C35.1214 30.7483 35.0373 30.6963 34.9462 30.6963ZM31.9135 32.6003C31.6426 32.5239 31.3625 32.6946 31.2897 32.9834L30.2824 36.9833C30.2096 37.2721 30.371 37.5696 30.6424 37.6471C30.6867 37.6595 30.731 37.6655 30.7748 37.6655C30.9994 37.6655 31.2057 37.5057 31.2663 37.264L32.2736 33.2641C32.3459 32.9748 32.185 32.6778 31.9135 32.6003Z" fill="white"/>
<defs>
<linearGradient id="paint0_linear_2023_1137" x1="0" y1="26" x2="52" y2="26" gradientUnits="userSpaceOnUse">
<stop stop-color="#01159A"/>
<stop offset="1" stop-color="#3E55F2"/>
</linearGradient>
</defs>
</svg>
