<svg width="40" height="40" viewBox="0 0 40 40" fill="none" xmlns="http://www.w3.org/2000/svg">
<path d="M33.3346 21.6671C33.3346 30.0004 27.5013 34.1671 20.568 36.5838C20.2049 36.7068 19.8105 36.7009 19.4513 36.5671C12.5013 34.1671 6.66797 30.0004 6.66797 21.6671V10.0004C6.66797 9.5584 6.84356 9.13447 7.15612 8.82191C7.46869 8.50935 7.89261 8.33376 8.33464 8.33376C11.668 8.33376 15.8346 6.33376 18.7346 3.80042C19.0877 3.49875 19.5369 3.33301 20.0013 3.33301C20.4657 3.33301 20.9149 3.49875 21.268 3.80042C24.1846 6.35042 28.3346 8.33376 31.668 8.33376C32.11 8.33376 32.5339 8.50935 32.8465 8.82191C33.159 9.13447 33.3346 9.5584 33.3346 10.0004V21.6671Z" stroke="url(#paint0_linear_2025_18667)" stroke-width="3.33333" stroke-linecap="round" stroke-linejoin="round"/>
<path d="M15 20.0003L18.3333 23.3337L25 16.667" stroke="url(#paint1_linear_2025_18667)" stroke-width="3.33333" stroke-linecap="round" stroke-linejoin="round"/>
<defs>
<linearGradient id="paint0_linear_2025_18667" x1="6.66797" y1="20.0025" x2="33.3346" y2="20.0025" gradientUnits="userSpaceOnUse">
<stop stop-color="#01159A"/>
<stop offset="1" stop-color="#3E55F2"/>
</linearGradient>
<linearGradient id="paint1_linear_2025_18667" x1="15" y1="20.0003" x2="25" y2="20.0003" gradientUnits="userSpaceOnUse">
<stop stop-color="#01159A"/>
<stop offset="1" stop-color="#3E55F2"/>
</linearGradient>
</defs>
</svg>
