<svg width="86" height="86" viewBox="0 0 86 86" fill="none" xmlns="http://www.w3.org/2000/svg">
<path d="M11.9553 63.2851C11.2888 64.5989 9.68261 65.1224 8.36995 64.4537C7.06041 63.7866 6.53842 62.185 7.20332 60.8744L26.5613 22.716C27.2278 21.4022 28.8341 20.8786 30.1467 21.5474C31.4563 22.2145 31.9782 23.816 31.3133 25.1267L11.9553 63.2851ZM35.6053 63.2851C34.9388 64.5989 33.3326 65.1224 32.0199 64.4537C30.7104 63.7866 30.1884 62.185 30.8533 60.8744L50.2113 22.716C50.8778 21.4022 52.4841 20.8786 53.7967 21.5474C55.1063 22.2145 55.6282 23.816 54.9633 25.1267L35.6053 63.2851ZM59.2553 63.2851C58.5888 64.5989 56.9826 65.1224 55.6699 64.4537C54.3604 63.7866 53.8384 62.185 54.5033 60.8744L73.8614 22.716C74.5278 21.4022 76.134 20.8786 77.4467 21.5474C78.7562 22.2145 79.2782 23.816 78.6133 25.1267L59.2553 63.2851Z" fill="#342E2E"/>
</svg>
