<svg width="67" height="61" viewBox="0 0 67 61" fill="none" xmlns="http://www.w3.org/2000/svg">
<path d="M6.33333 25.3333V44.3333V6.33333V25.3333ZM38 53.8333C38.8972 53.8333 39.6493 53.5299 40.2562 52.9229C40.8632 52.316 41.1667 51.5639 41.1667 50.6667C41.1667 49.7694 40.8632 49.0174 40.2562 48.4104C39.6493 47.8035 38.8972 47.5 38 47.5C37.1028 47.5 36.3507 47.8035 35.7437 48.4104C35.1368 49.0174 34.8333 49.7694 34.8333 50.6667C34.8333 51.5639 35.1368 52.316 35.7437 52.9229C36.3507 53.5299 37.1028 53.8333 38 53.8333ZM57 22.1667C57.8972 22.1667 58.6493 21.8632 59.2562 21.2563C59.8632 20.6493 60.1667 19.8972 60.1667 19C60.1667 18.1028 59.8632 17.3507 59.2562 16.7437C58.6493 16.1368 57.8972 15.8333 57 15.8333C56.1028 15.8333 55.3507 16.1368 54.7437 16.7437C54.1368 17.3507 53.8333 18.1028 53.8333 19C53.8333 19.8972 54.1368 20.6493 54.7437 21.2563C55.3507 21.8632 56.1028 22.1667 57 22.1667ZM12.6667 21.1667C12.6667 21.719 13.1144 22.1667 13.6667 22.1667H27.5C28.0523 22.1667 28.5 21.719 28.5 21.1667V16.8333C28.5 16.281 28.0523 15.8333 27.5 15.8333H13.6667C13.1144 15.8333 12.6667 16.281 12.6667 16.8333V21.1667ZM12.6667 33.8333C12.6667 34.3856 13.1144 34.8333 13.6667 34.8333H27.5C28.0523 34.8333 28.5 34.3856 28.5 33.8333V29.5C28.5 28.9477 28.0523 28.5 27.5 28.5H13.6667C13.1144 28.5 12.6667 28.9477 12.6667 29.5V33.8333ZM6.33333 50.6667C4.59167 50.6667 3.10069 50.0465 1.86042 48.8062C0.620139 47.566 0 46.075 0 44.3333V6.33333C0 4.59167 0.620139 3.10069 1.86042 1.86042C3.10069 0.620139 4.59167 0 6.33333 0H57C58.7417 0 60.2326 0.620139 61.4729 1.86042C62.4697 2.85724 63.066 4.016 63.2617 5.3367C63.3426 5.88302 62.8856 6.33333 62.3333 6.33333H6.33333V44.3333H21.1667C21.719 44.3333 22.1667 44.781 22.1667 45.3333V49.6667C22.1667 50.2189 21.719 50.6667 21.1667 50.6667H6.33333ZM31.2708 57.3958C29.4236 55.5486 28.5 53.3056 28.5 50.6667C28.5 48.6083 29.0938 46.7611 30.2812 45.125C31.3227 43.6901 32.6179 42.6408 34.1668 41.9772C34.5596 41.809 34.8333 41.4338 34.8333 41.0065V32.6667C34.8333 32.1144 35.281 31.6667 35.8333 31.6667H52.8333C53.3856 31.6667 53.8333 31.219 53.8333 30.6667V28.6601C53.8333 28.2328 53.5596 27.8577 53.1668 27.6894C51.6179 27.0258 50.3227 25.9766 49.2812 24.5417C48.0938 22.9056 47.5 21.0583 47.5 19C47.5 16.3611 48.4236 14.1181 50.2708 12.2708C52.1181 10.4236 54.3611 9.5 57 9.5C59.6389 9.5 61.8819 10.4236 63.7292 12.2708C65.5764 14.1181 66.5 16.3611 66.5 19C66.5 21.0583 65.9062 22.9056 64.7188 24.5417C63.6773 25.9766 62.3821 27.0258 60.8332 27.6894C60.4404 27.8577 60.1667 28.2328 60.1667 28.6601V37C60.1667 37.5523 59.719 38 59.1667 38H42.1667C41.6144 38 41.1667 38.4477 41.1667 39V41.0065C41.1667 41.4338 41.4404 41.809 41.8332 41.9772C43.3821 42.6408 44.6773 43.6901 45.7188 45.125C46.9062 46.7611 47.5 48.6083 47.5 50.6667C47.5 53.3056 46.5764 55.5486 44.7292 57.3958C42.8819 59.2431 40.6389 60.1667 38 60.1667C35.3611 60.1667 33.1181 59.2431 31.2708 57.3958Z" fill="url(#paint0_linear_4175_15350)"/>
<defs>
<linearGradient id="paint0_linear_4175_15350" x1="0" y1="30.0833" x2="66.5" y2="30.0833" gradientUnits="userSpaceOnUse">
<stop stop-color="#01159A"/>
<stop offset="1" stop-color="#3E55F2"/>
</linearGradient>
</defs>
</svg>
