<svg width="65" height="65" viewBox="0 0 65 65" fill="none" xmlns="http://www.w3.org/2000/svg">
<path d="M8.0625 64.5C3.6097 64.5 0 60.8903 0 56.4375C0 51.9847 3.6097 48.375 8.0625 48.375H9.75513C12.3423 48.375 14.8236 47.3472 16.653 45.5178L26.0981 36.0727C28.3163 33.8545 29.5625 30.846 29.5625 27.709V25.6593C29.5625 21.8315 26.7757 18.6293 24.4115 15.6189C23.0677 13.9078 22.3958 11.9862 22.3958 9.85417C22.3958 7.1171 23.355 4.79032 25.2732 2.87383C27.1915 0.957946 29.5207 0 32.2607 0C35.0008 0 37.3264 0.957946 39.2375 2.87383C41.1486 4.79032 42.1042 7.1171 42.1042 9.85417C42.1042 11.9862 41.4323 13.9078 40.0885 15.6189C37.7243 18.6293 34.9375 21.8315 34.9375 25.6593V27.709C34.9375 30.846 36.1837 33.8545 38.4018 36.0727L47.847 45.5178C49.6764 47.3472 52.1577 48.375 54.7449 48.375H56.4375C60.8903 48.375 64.5 51.9847 64.5 56.4375C64.5 60.8903 60.8903 64.5 56.4375 64.5H55.723C51.6648 64.5 48.375 61.2102 48.375 57.152C48.375 55.2032 47.6008 53.3342 46.2228 51.9561L43.6521 49.3854C37.3549 43.0882 27.1451 43.0882 20.8479 49.3854L18.2772 51.9561C16.8992 53.3342 16.125 55.2032 16.125 57.152C16.125 61.2102 12.8352 64.5 8.77698 64.5H8.0625Z" fill="#454545"/>
</svg>
