<svg width="68" height="68" viewBox="0 0 68 68" fill="none" xmlns="http://www.w3.org/2000/svg">
<path d="M20.8327 56.6663C20.2804 56.6663 19.8327 56.2186 19.8327 55.6663V51.2913C19.8327 50.7391 19.385 50.2913 18.8327 50.2913H15.166C14.6137 50.2913 14.166 49.8436 14.166 49.2913V18.708C14.166 18.1557 14.6137 17.708 15.166 17.708H18.8327C19.385 17.708 19.8327 17.2603 19.8327 16.708V12.333C19.8327 11.7807 20.2804 11.333 20.8327 11.333H23.0827C23.635 11.333 24.0827 11.7807 24.0827 12.333V16.708C24.0827 17.2603 24.5304 17.708 25.0827 17.708H28.7493C29.3016 17.708 29.7493 18.1557 29.7493 18.708V49.2913C29.7493 49.8436 29.3016 50.2913 28.7493 50.2913H25.0827C24.5304 50.2913 24.0827 50.7391 24.0827 51.2913V55.6663C24.0827 56.2186 23.635 56.6663 23.0827 56.6663H20.8327ZM44.916 56.6663C44.3637 56.6663 43.916 56.2186 43.916 55.6663V42.7913C43.916 42.2391 43.4683 41.7913 42.916 41.7913H39.2493C38.6971 41.7913 38.2493 41.3436 38.2493 40.7913V24.3747C38.2493 23.8224 38.6971 23.3747 39.2493 23.3747H42.916C43.4683 23.3747 43.916 22.927 43.916 22.3747V12.333C43.916 11.7807 44.3637 11.333 44.916 11.333H47.166C47.7183 11.333 48.166 11.7807 48.166 12.333V22.3747C48.166 22.927 48.6137 23.3747 49.166 23.3747H52.8327C53.385 23.3747 53.8327 23.8224 53.8327 24.3747V40.7913C53.8327 41.3436 53.385 41.7913 52.8327 41.7913H49.166C48.6137 41.7913 48.166 42.2391 48.166 42.7913V55.6663C48.166 56.2186 47.7183 56.6663 47.166 56.6663H44.916Z" fill="url(#paint0_linear_3852_5487)"/>
<defs>
<linearGradient id="paint0_linear_3852_5487" x1="14.166" y1="33.9997" x2="53.8327" y2="33.9997" gradientUnits="userSpaceOnUse">
<stop stop-color="#01159A"/>
<stop offset="1" stop-color="#3E55F2"/>
</linearGradient>
</defs>
</svg>
