<svg width="40" height="46" viewBox="0 0 40 46" fill="none" xmlns="http://www.w3.org/2000/svg">
<path d="M6.66667 45.3333C6.11438 45.3333 5.66667 44.8856 5.66667 44.3333V39.9583C5.66667 39.406 5.21895 38.9583 4.66667 38.9583H0.999999C0.447715 38.9583 0 38.5106 0 37.9583V7.375C0 6.82272 0.447715 6.375 1 6.375H4.66667C5.21895 6.375 5.66667 5.92728 5.66667 5.375V1C5.66667 0.447715 6.11438 0 6.66667 0H8.91667C9.46895 0 9.91667 0.447715 9.91667 1V5.375C9.91667 5.92728 10.3644 6.375 10.9167 6.375H14.5833C15.1356 6.375 15.5833 6.82272 15.5833 7.375V37.9583C15.5833 38.5106 15.1356 38.9583 14.5833 38.9583H10.9167C10.3644 38.9583 9.91667 39.406 9.91667 39.9583V44.3333C9.91667 44.8856 9.46895 45.3333 8.91667 45.3333H6.66667ZM30.75 45.3333C30.1977 45.3333 29.75 44.8856 29.75 44.3333V31.4583C29.75 30.906 29.3023 30.4583 28.75 30.4583H25.0833C24.531 30.4583 24.0833 30.0106 24.0833 29.4583V13.0417C24.0833 12.4894 24.531 12.0417 25.0833 12.0417H28.75C29.3023 12.0417 29.75 11.594 29.75 11.0417V1C29.75 0.447716 30.1977 0 30.75 0H33C33.5523 0 34 0.447715 34 1V11.0417C34 11.594 34.4477 12.0417 35 12.0417H38.6667C39.219 12.0417 39.6667 12.4894 39.6667 13.0417V29.4583C39.6667 30.0106 39.219 30.4583 38.6667 30.4583H35C34.4477 30.4583 34 30.906 34 31.4583V44.3333C34 44.8856 33.5523 45.3333 33 45.3333H30.75Z" fill="url(#paint0_linear_4270_2801)"/>
<defs>
<linearGradient id="paint0_linear_4270_2801" x1="0" y1="22.6667" x2="39.6667" y2="22.6667" gradientUnits="userSpaceOnUse">
<stop stop-color="#01159A"/>
<stop offset="1" stop-color="#3E55F2"/>
</linearGradient>
</defs>
</svg>
