<svg width="49" height="61" viewBox="0 0 49 61" fill="none" xmlns="http://www.w3.org/2000/svg">
<path d="M1.05383 41.3332H1.00024C0.447959 41.3332 0.000244141 41.7809 0.000244141 42.3332V46.7717C0.000244141 48.5664 1.4226 50.0348 3.16099 50.0348H7.52243C8.0368 50.0348 8.47395 49.6437 8.46922 49.1294C8.43067 44.9435 5.27474 41.3052 1.05383 41.3332Z" fill="url(#paint0_linear_2223_4889)"/>
<path d="M26.6771 18.1206C20.9035 11.8908 10.4597 16.4374 10.5359 25.0166C10.4332 30.2676 14.9293 34.9121 20.0178 34.8056C28.3467 34.8981 32.7424 24.0295 26.6764 18.1201L26.6771 18.1206ZM19.3125 23.929H20.7243C24.4936 24.0117 24.9595 29.3364 21.627 30.3166C21.3164 30.408 21.072 30.6753 21.072 30.9991C21.072 31.5974 20.5979 32.0868 20.0184 32.0868C19.5647 32.0675 19.2803 31.8579 19.1204 31.5518C18.8471 31.0289 18.4544 30.477 17.8644 30.477H17.1948C15.8094 30.4498 15.8094 28.3233 17.1948 28.3016H20.7243C22.123 28.2717 22.123 26.1262 20.7243 26.1045H19.3125C15.5432 26.0218 15.0774 20.6971 18.4098 19.7169C18.7205 19.6255 18.9648 19.3582 18.9648 19.0344C18.9648 18.4361 19.4389 17.9467 20.0184 17.9467C20.4721 17.966 20.7565 18.1756 20.9165 18.4817C21.1897 19.0046 21.5825 19.5565 22.1725 19.5565H22.842C24.2275 19.5837 24.2275 21.7102 22.842 21.7319H19.3125C17.9139 21.7618 17.9139 23.9073 19.3125 23.929Z" fill="url(#paint1_linear_2223_4889)"/>
<path d="M38.9828 8.70164H39.0363C39.5886 8.70164 40.0363 8.25392 40.0363 7.70164V3.26311C40.0363 1.46842 38.614 0 36.8756 0H32.5142C31.9998 0 31.5626 0.391074 31.5674 0.905423C31.6059 5.09127 34.7618 8.72957 38.9828 8.70164Z" fill="url(#paint2_linear_2223_4889)"/>
<path d="M38.9827 30.4553C39.5488 30.4553 40.0362 30.0205 40.0362 29.4543V11.97C40.0362 11.3826 39.531 10.9265 38.9438 10.9118C33.8271 10.7836 29.4733 6.55123 29.5004 1.0877V1C29.5004 0.447716 29.0527 0 28.5004 0H11.6232C11.038 0 10.5823 0.501312 10.5709 1.08641C10.4672 6.38675 6.36002 10.9051 1.05407 10.877H1.00049C0.448204 10.877 0.000488281 11.3248 0.000488281 11.877V38.0724C0.000488281 38.6567 0.500793 39.1117 1.08499 39.1263C6.34894 39.2576 10.458 43.5186 10.5669 48.9554C10.5786 49.5375 11.0332 50.0344 11.6155 50.0344H27.953C28.7959 50.0344 29.2855 49.0295 28.8749 48.2934C24.6329 40.6871 29.9905 30.3875 38.9827 30.4553ZM11.8215 33.4791C4.54387 26.0883 9.79862 12.9788 20.0182 13.0519C26.2818 12.9703 31.6551 18.5366 31.6079 25.017C31.679 35.5675 18.9805 40.9925 11.8215 33.4791Z" fill="url(#paint3_linear_2223_4889)"/>
<path d="M8.42877 1.0877V1C8.42877 0.447716 7.98106 0 7.42877 0H3.16087C1.42247 0 0.00012207 1.46842 0.00012207 3.26311V7.801C0.00012207 8.31291 0.387776 8.74954 0.899652 8.74301C4.94471 8.6914 8.45578 5.43726 8.42877 1.0877Z" fill="url(#paint4_linear_2223_4889)"/>
<path d="M38.9829 32.6309C33.7571 32.6309 29.501 37.0252 29.501 42.4198C30.0041 55.3992 47.9651 55.3909 48.4654 42.4198C48.4654 37.0248 44.2083 32.6309 38.9829 32.6309Z" fill="url(#paint5_linear_2223_4889)"/>
<path d="M38.9829 54.3826C37.3896 54.3806 35.78 54.032 34.3123 53.365C33.58 53.0321 32.6614 53.5281 32.6614 54.3324V58.7334C32.6008 60.4954 34.7843 61.5941 36.0855 60.4302L38.3461 58.5632C38.7157 58.2579 39.25 58.2579 39.6197 58.5632L41.8802 60.4302C43.1841 61.5804 45.365 60.4982 45.3044 58.7334V54.3225C45.3044 53.5201 44.3909 53.0253 43.6608 53.3581C42.1923 54.0275 40.5849 54.3826 38.9829 54.3826Z" fill="url(#paint6_linear_2223_4889)"/>
<defs>
<linearGradient id="paint0_linear_2223_4889" x1="0.000244141" y1="45.6839" x2="8.46957" y2="45.6839" gradientUnits="userSpaceOnUse">
<stop stop-color="#01159A"/>
<stop offset="1" stop-color="#3E55F2"/>
</linearGradient>
<linearGradient id="paint1_linear_2223_4889" x1="10.5342" y1="25.0185" x2="29.5" y2="25.0185" gradientUnits="userSpaceOnUse">
<stop stop-color="#01159A"/>
<stop offset="1" stop-color="#3E55F2"/>
</linearGradient>
<linearGradient id="paint2_linear_2223_4889" x1="31.567" y1="4.3509" x2="40.0363" y2="4.3509" gradientUnits="userSpaceOnUse">
<stop stop-color="#01159A"/>
<stop offset="1" stop-color="#3E55F2"/>
</linearGradient>
<linearGradient id="paint3_linear_2223_4889" x1="0.000488281" y1="25.0172" x2="40.0362" y2="25.0172" gradientUnits="userSpaceOnUse">
<stop stop-color="#01159A"/>
<stop offset="1" stop-color="#3E55F2"/>
</linearGradient>
<linearGradient id="paint4_linear_2223_4889" x1="0.00012207" y1="4.37181" x2="8.42893" y2="4.37181" gradientUnits="userSpaceOnUse">
<stop stop-color="#01159A"/>
<stop offset="1" stop-color="#3E55F2"/>
</linearGradient>
<linearGradient id="paint5_linear_2223_4889" x1="29.501" y1="42.391" x2="48.4654" y2="42.391" gradientUnits="userSpaceOnUse">
<stop stop-color="#01159A"/>
<stop offset="1" stop-color="#3E55F2"/>
</linearGradient>
<linearGradient id="paint6_linear_2223_4889" x1="32.6602" y1="56.6733" x2="45.3056" y2="56.6733" gradientUnits="userSpaceOnUse">
<stop stop-color="#01159A"/>
<stop offset="1" stop-color="#3E55F2"/>
</linearGradient>
</defs>
</svg>
