<svg width="33" height="56" viewBox="0 0 33 56" fill="none" xmlns="http://www.w3.org/2000/svg">
<path d="M32.5426 16.6761H0.457444C0.20402 16.6761 0 16.8891 0 17.1516V17.6386C0 17.9011 0.20402 18.1141 0.457444 18.1141H0.90574C1.20582 18.1141 1.45101 18.368 1.45101 18.6809V36.0247C1.45101 36.2872 1.65503 36.5002 1.90845 36.5002H31.0934C31.345 36.5002 31.5508 36.2872 31.5508 36.0247V18.68C31.5508 18.3671 31.796 18.1132 32.0961 18.1132H32.5426C32.796 18.1132 33 17.9001 33 17.6376V17.1507C33 16.8891 32.7969 16.6761 32.5426 16.6761ZM12.8066 28.2249C12.8066 26.8824 14.3745 23.792 15.6628 21.5146C16.0341 20.8582 16.9659 20.8582 17.3372 21.5146C18.6255 23.792 20.1934 26.8824 20.1934 28.2249C20.1934 30.343 18.5347 32.0654 16.5 32.0654C14.4625 32.0644 12.8066 30.342 12.8066 28.2249ZM33 0.475536V0.969143C33 1.23164 32.796 1.44468 32.5426 1.44468H32.0961C31.796 1.44468 31.5508 1.69861 31.5508 2.01152V14.1168C31.5508 14.3792 31.345 14.5923 31.0934 14.5923H1.90845C1.65503 14.5923 1.45101 14.3792 1.45101 14.1168V2.01152C1.45101 1.69861 1.20582 1.44468 0.90574 1.44468H0.457444C0.20402 1.44468 0 1.23164 0 0.969143V0.475536C0 0.21304 0.20402 0 0.457444 0H32.5426C32.7969 0 33 0.21304 33 0.475536ZM33 39.0605V39.5541C33 39.8166 32.796 40.0296 32.5426 40.0296H32.0961C31.796 40.0296 31.5508 40.2845 31.5508 40.5965V53.7441C31.5508 54.057 31.796 54.3109 32.0961 54.3109H32.5426C32.796 54.3109 33 54.524 33 54.7865V55.2734C33 55.5359 32.796 55.7489 32.5426 55.7489H0.457444C0.20402 55.7489 0 55.5359 0 55.2734V54.7865C0 54.524 0.20402 54.3109 0.457444 54.3109H0.90574C1.20582 54.3109 1.45101 54.057 1.45101 53.7441V40.5965C1.45101 40.2836 1.20582 40.0296 0.90574 40.0296H0.457444C0.20402 40.0296 0 39.8166 0 39.5541V39.0605C0 38.798 0.20402 38.585 0.457444 38.585H32.5426C32.7969 38.585 33 38.798 33 39.0605Z" fill="url(#paint0_linear_2223_4887)"/>
<defs>
<linearGradient id="paint0_linear_2223_4887" x1="0" y1="27.8745" x2="33" y2="27.8745" gradientUnits="userSpaceOnUse">
<stop stop-color="#01159A"/>
<stop offset="1" stop-color="#3E55F2"/>
</linearGradient>
</defs>
</svg>
